<?xml version="1.0" encoding="utf-8" standalone="no"?>
<!DOCTYPE svg PUBLIC "-//W3C//DTD SVG 1.1//EN"
  "http://www.w3.org/Graphics/SVG/1.1/DTD/svg11.dtd">
<svg xmlns:xlink="http://www.w3.org/1999/xlink" width="460.8pt" height="345.6pt" viewBox="0 0 460.8 345.6" xmlns="http://www.w3.org/2000/svg" version="1.1">
 <metadata>
  <rdf:RDF xmlns:dc="http://purl.org/dc/elements/1.1/" xmlns:cc="http://creativecommons.org/ns#" xmlns:rdf="http://www.w3.org/1999/02/22-rdf-syntax-ns#">
   <cc:Work>
    <dc:type rdf:resource="http://purl.org/dc/dcmitype/StillImage"/>
    <dc:date>2025-05-14T11:19:55.754763</dc:date>
    <dc:format>image/svg+xml</dc:format>
    <dc:creator>
     <cc:Agent>
      <dc:title>Matplotlib v3.9.4, https://matplotlib.org/</dc:title>
     </cc:Agent>
    </dc:creator>
   </cc:Work>
  </rdf:RDF>
 </metadata>
 <defs>
  <style type="text/css">*{stroke-linejoin: round; stroke-linecap: butt}</style>
 </defs>
 <g id="figure_1">
  <g id="patch_1">
   <path d="M 0 345.6 
L 460.8 345.6 
L 460.8 0 
L 0 0 
z
" style="fill: #ffffff"/>
  </g>
  <g id="axes_1">
   <g id="patch_2">
    <path d="M 57.6 307.584 
L 414.72 307.584 
L 414.72 41.472 
L 57.6 41.472 
z
" style="fill: #ffffff"/>
   </g>
   <g id="matplotlib.axis_1">
    <g id="xtick_1">
     <g id="line2d_1">
      <path d="M 73.832727 307.584 
L 73.832727 41.472 
" clip-path="url(#p4d058046fe)" style="fill: none; stroke: #b0b0b0; stroke-width: 0.8; stroke-linecap: square"/>
     </g>
     <g id="line2d_2">
      <defs>
       <path id="mbc94618da1" d="M 0 0 
L 0 3.5 
" style="stroke: #000000; stroke-width: 0.8"/>
      </defs>
      <g>
       <use xlink:href="#mbc94618da1" x="73.832727" y="307.584" style="stroke: #000000; stroke-width: 0.8"/>
      </g>
     </g>
     <g id="text_1">
      <!-- 0 -->
      <g transform="translate(70.651477 322.182437) scale(0.1 -0.1)">
       <defs>
        <path id="DejaVuSans-30" d="M 2034 4250 
Q 1547 4250 1301 3770 
Q 1056 3291 1056 2328 
Q 1056 1369 1301 889 
Q 1547 409 2034 409 
Q 2525 409 2770 889 
Q 3016 1369 3016 2328 
Q 3016 3291 2770 3770 
Q 2525 4250 2034 4250 
z
M 2034 4750 
Q 2819 4750 3233 4129 
Q 3647 3509 3647 2328 
Q 3647 1150 3233 529 
Q 2819 -91 2034 -91 
Q 1250 -91 836 529 
Q 422 1150 422 2328 
Q 422 3509 836 4129 
Q 1250 4750 2034 4750 
z
" transform="scale(0.015625)"/>
       </defs>
       <use xlink:href="#DejaVuSans-30"/>
      </g>
     </g>
    </g>
    <g id="xtick_2">
     <g id="line2d_3">
      <path d="M 114.465336 307.584 
L 114.465336 41.472 
" clip-path="url(#p4d058046fe)" style="fill: none; stroke: #b0b0b0; stroke-width: 0.8; stroke-linecap: square"/>
     </g>
     <g id="line2d_4">
      <g>
       <use xlink:href="#mbc94618da1" x="114.465336" y="307.584" style="stroke: #000000; stroke-width: 0.8"/>
      </g>
     </g>
     <g id="text_2">
      <!-- 100 -->
      <g transform="translate(104.921586 322.182437) scale(0.1 -0.1)">
       <defs>
        <path id="DejaVuSans-31" d="M 794 531 
L 1825 531 
L 1825 4091 
L 703 3866 
L 703 4441 
L 1819 4666 
L 2450 4666 
L 2450 531 
L 3481 531 
L 3481 0 
L 794 0 
L 794 531 
z
" transform="scale(0.015625)"/>
       </defs>
       <use xlink:href="#DejaVuSans-31"/>
       <use xlink:href="#DejaVuSans-30" x="63.623047"/>
       <use xlink:href="#DejaVuSans-30" x="127.246094"/>
      </g>
     </g>
    </g>
    <g id="xtick_3">
     <g id="line2d_5">
      <path d="M 155.097945 307.584 
L 155.097945 41.472 
" clip-path="url(#p4d058046fe)" style="fill: none; stroke: #b0b0b0; stroke-width: 0.8; stroke-linecap: square"/>
     </g>
     <g id="line2d_6">
      <g>
       <use xlink:href="#mbc94618da1" x="155.097945" y="307.584" style="stroke: #000000; stroke-width: 0.8"/>
      </g>
     </g>
     <g id="text_3">
      <!-- 200 -->
      <g transform="translate(145.554195 322.182437) scale(0.1 -0.1)">
       <defs>
        <path id="DejaVuSans-32" d="M 1228 531 
L 3431 531 
L 3431 0 
L 469 0 
L 469 531 
Q 828 903 1448 1529 
Q 2069 2156 2228 2338 
Q 2531 2678 2651 2914 
Q 2772 3150 2772 3378 
Q 2772 3750 2511 3984 
Q 2250 4219 1831 4219 
Q 1534 4219 1204 4116 
Q 875 4013 500 3803 
L 500 4441 
Q 881 4594 1212 4672 
Q 1544 4750 1819 4750 
Q 2544 4750 2975 4387 
Q 3406 4025 3406 3419 
Q 3406 3131 3298 2873 
Q 3191 2616 2906 2266 
Q 2828 2175 2409 1742 
Q 1991 1309 1228 531 
z
" transform="scale(0.015625)"/>
       </defs>
       <use xlink:href="#DejaVuSans-32"/>
       <use xlink:href="#DejaVuSans-30" x="63.623047"/>
       <use xlink:href="#DejaVuSans-30" x="127.246094"/>
      </g>
     </g>
    </g>
    <g id="xtick_4">
     <g id="line2d_7">
      <path d="M 195.730554 307.584 
L 195.730554 41.472 
" clip-path="url(#p4d058046fe)" style="fill: none; stroke: #b0b0b0; stroke-width: 0.8; stroke-linecap: square"/>
     </g>
     <g id="line2d_8">
      <g>
       <use xlink:href="#mbc94618da1" x="195.730554" y="307.584" style="stroke: #000000; stroke-width: 0.8"/>
      </g>
     </g>
     <g id="text_4">
      <!-- 300 -->
      <g transform="translate(186.186804 322.182437) scale(0.1 -0.1)">
       <defs>
        <path id="DejaVuSans-33" d="M 2597 2516 
Q 3050 2419 3304 2112 
Q 3559 1806 3559 1356 
Q 3559 666 3084 287 
Q 2609 -91 1734 -91 
Q 1441 -91 1130 -33 
Q 819 25 488 141 
L 488 750 
Q 750 597 1062 519 
Q 1375 441 1716 441 
Q 2309 441 2620 675 
Q 2931 909 2931 1356 
Q 2931 1769 2642 2001 
Q 2353 2234 1838 2234 
L 1294 2234 
L 1294 2753 
L 1863 2753 
Q 2328 2753 2575 2939 
Q 2822 3125 2822 3475 
Q 2822 3834 2567 4026 
Q 2313 4219 1838 4219 
Q 1578 4219 1281 4162 
Q 984 4106 628 3988 
L 628 4550 
Q 988 4650 1302 4700 
Q 1616 4750 1894 4750 
Q 2613 4750 3031 4423 
Q 3450 4097 3450 3541 
Q 3450 3153 3228 2886 
Q 3006 2619 2597 2516 
z
" transform="scale(0.015625)"/>
       </defs>
       <use xlink:href="#DejaVuSans-33"/>
       <use xlink:href="#DejaVuSans-30" x="63.623047"/>
       <use xlink:href="#DejaVuSans-30" x="127.246094"/>
      </g>
     </g>
    </g>
    <g id="xtick_5">
     <g id="line2d_9">
      <path d="M 236.363163 307.584 
L 236.363163 41.472 
" clip-path="url(#p4d058046fe)" style="fill: none; stroke: #b0b0b0; stroke-width: 0.8; stroke-linecap: square"/>
     </g>
     <g id="line2d_10">
      <g>
       <use xlink:href="#mbc94618da1" x="236.363163" y="307.584" style="stroke: #000000; stroke-width: 0.8"/>
      </g>
     </g>
     <g id="text_5">
      <!-- 400 -->
      <g transform="translate(226.819413 322.182437) scale(0.1 -0.1)">
       <defs>
        <path id="DejaVuSans-34" d="M 2419 4116 
L 825 1625 
L 2419 1625 
L 2419 4116 
z
M 2253 4666 
L 3047 4666 
L 3047 1625 
L 3713 1625 
L 3713 1100 
L 3047 1100 
L 3047 0 
L 2419 0 
L 2419 1100 
L 313 1100 
L 313 1709 
L 2253 4666 
z
" transform="scale(0.015625)"/>
       </defs>
       <use xlink:href="#DejaVuSans-34"/>
       <use xlink:href="#DejaVuSans-30" x="63.623047"/>
       <use xlink:href="#DejaVuSans-30" x="127.246094"/>
      </g>
     </g>
    </g>
    <g id="xtick_6">
     <g id="line2d_11">
      <path d="M 276.995772 307.584 
L 276.995772 41.472 
" clip-path="url(#p4d058046fe)" style="fill: none; stroke: #b0b0b0; stroke-width: 0.8; stroke-linecap: square"/>
     </g>
     <g id="line2d_12">
      <g>
       <use xlink:href="#mbc94618da1" x="276.995772" y="307.584" style="stroke: #000000; stroke-width: 0.8"/>
      </g>
     </g>
     <g id="text_6">
      <!-- 500 -->
      <g transform="translate(267.452022 322.182437) scale(0.1 -0.1)">
       <defs>
        <path id="DejaVuSans-35" d="M 691 4666 
L 3169 4666 
L 3169 4134 
L 1269 4134 
L 1269 2991 
Q 1406 3038 1543 3061 
Q 1681 3084 1819 3084 
Q 2600 3084 3056 2656 
Q 3513 2228 3513 1497 
Q 3513 744 3044 326 
Q 2575 -91 1722 -91 
Q 1428 -91 1123 -41 
Q 819 9 494 109 
L 494 744 
Q 775 591 1075 516 
Q 1375 441 1709 441 
Q 2250 441 2565 725 
Q 2881 1009 2881 1497 
Q 2881 1984 2565 2268 
Q 2250 2553 1709 2553 
Q 1456 2553 1204 2497 
Q 953 2441 691 2322 
L 691 4666 
z
" transform="scale(0.015625)"/>
       </defs>
       <use xlink:href="#DejaVuSans-35"/>
       <use xlink:href="#DejaVuSans-30" x="63.623047"/>
       <use xlink:href="#DejaVuSans-30" x="127.246094"/>
      </g>
     </g>
    </g>
    <g id="xtick_7">
     <g id="line2d_13">
      <path d="M 317.628381 307.584 
L 317.628381 41.472 
" clip-path="url(#p4d058046fe)" style="fill: none; stroke: #b0b0b0; stroke-width: 0.8; stroke-linecap: square"/>
     </g>
     <g id="line2d_14">
      <g>
       <use xlink:href="#mbc94618da1" x="317.628381" y="307.584" style="stroke: #000000; stroke-width: 0.8"/>
      </g>
     </g>
     <g id="text_7">
      <!-- 600 -->
      <g transform="translate(308.084631 322.182437) scale(0.1 -0.1)">
       <defs>
        <path id="DejaVuSans-36" d="M 2113 2584 
Q 1688 2584 1439 2293 
Q 1191 2003 1191 1497 
Q 1191 994 1439 701 
Q 1688 409 2113 409 
Q 2538 409 2786 701 
Q 3034 994 3034 1497 
Q 3034 2003 2786 2293 
Q 2538 2584 2113 2584 
z
M 3366 4563 
L 3366 3988 
Q 3128 4100 2886 4159 
Q 2644 4219 2406 4219 
Q 1781 4219 1451 3797 
Q 1122 3375 1075 2522 
Q 1259 2794 1537 2939 
Q 1816 3084 2150 3084 
Q 2853 3084 3261 2657 
Q 3669 2231 3669 1497 
Q 3669 778 3244 343 
Q 2819 -91 2113 -91 
Q 1303 -91 875 529 
Q 447 1150 447 2328 
Q 447 3434 972 4092 
Q 1497 4750 2381 4750 
Q 2619 4750 2861 4703 
Q 3103 4656 3366 4563 
z
" transform="scale(0.015625)"/>
       </defs>
       <use xlink:href="#DejaVuSans-36"/>
       <use xlink:href="#DejaVuSans-30" x="63.623047"/>
       <use xlink:href="#DejaVuSans-30" x="127.246094"/>
      </g>
     </g>
    </g>
    <g id="xtick_8">
     <g id="line2d_15">
      <path d="M 358.26099 307.584 
L 358.26099 41.472 
" clip-path="url(#p4d058046fe)" style="fill: none; stroke: #b0b0b0; stroke-width: 0.8; stroke-linecap: square"/>
     </g>
     <g id="line2d_16">
      <g>
       <use xlink:href="#mbc94618da1" x="358.26099" y="307.584" style="stroke: #000000; stroke-width: 0.8"/>
      </g>
     </g>
     <g id="text_8">
      <!-- 700 -->
      <g transform="translate(348.71724 322.182437) scale(0.1 -0.1)">
       <defs>
        <path id="DejaVuSans-37" d="M 525 4666 
L 3525 4666 
L 3525 4397 
L 1831 0 
L 1172 0 
L 2766 4134 
L 525 4134 
L 525 4666 
z
" transform="scale(0.015625)"/>
       </defs>
       <use xlink:href="#DejaVuSans-37"/>
       <use xlink:href="#DejaVuSans-30" x="63.623047"/>
       <use xlink:href="#DejaVuSans-30" x="127.246094"/>
      </g>
     </g>
    </g>
    <g id="xtick_9">
     <g id="line2d_17">
      <path d="M 398.893599 307.584 
L 398.893599 41.472 
" clip-path="url(#p4d058046fe)" style="fill: none; stroke: #b0b0b0; stroke-width: 0.8; stroke-linecap: square"/>
     </g>
     <g id="line2d_18">
      <g>
       <use xlink:href="#mbc94618da1" x="398.893599" y="307.584" style="stroke: #000000; stroke-width: 0.8"/>
      </g>
     </g>
     <g id="text_9">
      <!-- 800 -->
      <g transform="translate(389.349849 322.182437) scale(0.1 -0.1)">
       <defs>
        <path id="DejaVuSans-38" d="M 2034 2216 
Q 1584 2216 1326 1975 
Q 1069 1734 1069 1313 
Q 1069 891 1326 650 
Q 1584 409 2034 409 
Q 2484 409 2743 651 
Q 3003 894 3003 1313 
Q 3003 1734 2745 1975 
Q 2488 2216 2034 2216 
z
M 1403 2484 
Q 997 2584 770 2862 
Q 544 3141 544 3541 
Q 544 4100 942 4425 
Q 1341 4750 2034 4750 
Q 2731 4750 3128 4425 
Q 3525 4100 3525 3541 
Q 3525 3141 3298 2862 
Q 3072 2584 2669 2484 
Q 3125 2378 3379 2068 
Q 3634 1759 3634 1313 
Q 3634 634 3220 271 
Q 2806 -91 2034 -91 
Q 1263 -91 848 271 
Q 434 634 434 1313 
Q 434 1759 690 2068 
Q 947 2378 1403 2484 
z
M 1172 3481 
Q 1172 3119 1398 2916 
Q 1625 2713 2034 2713 
Q 2441 2713 2670 2916 
Q 2900 3119 2900 3481 
Q 2900 3844 2670 4047 
Q 2441 4250 2034 4250 
Q 1625 4250 1398 4047 
Q 1172 3844 1172 3481 
z
" transform="scale(0.015625)"/>
       </defs>
       <use xlink:href="#DejaVuSans-38"/>
       <use xlink:href="#DejaVuSans-30" x="63.623047"/>
       <use xlink:href="#DejaVuSans-30" x="127.246094"/>
      </g>
     </g>
    </g>
    <g id="text_10">
     <!-- Sorted index -->
     <g transform="translate(204.390469 335.860562) scale(0.1 -0.1)">
      <defs>
       <path id="DejaVuSans-53" d="M 3425 4513 
L 3425 3897 
Q 3066 4069 2747 4153 
Q 2428 4238 2131 4238 
Q 1616 4238 1336 4038 
Q 1056 3838 1056 3469 
Q 1056 3159 1242 3001 
Q 1428 2844 1947 2747 
L 2328 2669 
Q 3034 2534 3370 2195 
Q 3706 1856 3706 1288 
Q 3706 609 3251 259 
Q 2797 -91 1919 -91 
Q 1588 -91 1214 -16 
Q 841 59 441 206 
L 441 856 
Q 825 641 1194 531 
Q 1563 422 1919 422 
Q 2459 422 2753 634 
Q 3047 847 3047 1241 
Q 3047 1584 2836 1778 
Q 2625 1972 2144 2069 
L 1759 2144 
Q 1053 2284 737 2584 
Q 422 2884 422 3419 
Q 422 4038 858 4394 
Q 1294 4750 2059 4750 
Q 2388 4750 2728 4690 
Q 3069 4631 3425 4513 
z
" transform="scale(0.015625)"/>
       <path id="DejaVuSans-6f" d="M 1959 3097 
Q 1497 3097 1228 2736 
Q 959 2375 959 1747 
Q 959 1119 1226 758 
Q 1494 397 1959 397 
Q 2419 397 2687 759 
Q 2956 1122 2956 1747 
Q 2956 2369 2687 2733 
Q 2419 3097 1959 3097 
z
M 1959 3584 
Q 2709 3584 3137 3096 
Q 3566 2609 3566 1747 
Q 3566 888 3137 398 
Q 2709 -91 1959 -91 
Q 1206 -91 779 398 
Q 353 888 353 1747 
Q 353 2609 779 3096 
Q 1206 3584 1959 3584 
z
" transform="scale(0.015625)"/>
       <path id="DejaVuSans-72" d="M 2631 2963 
Q 2534 3019 2420 3045 
Q 2306 3072 2169 3072 
Q 1681 3072 1420 2755 
Q 1159 2438 1159 1844 
L 1159 0 
L 581 0 
L 581 3500 
L 1159 3500 
L 1159 2956 
Q 1341 3275 1631 3429 
Q 1922 3584 2338 3584 
Q 2397 3584 2469 3576 
Q 2541 3569 2628 3553 
L 2631 2963 
z
" transform="scale(0.015625)"/>
       <path id="DejaVuSans-74" d="M 1172 4494 
L 1172 3500 
L 2356 3500 
L 2356 3053 
L 1172 3053 
L 1172 1153 
Q 1172 725 1289 603 
Q 1406 481 1766 481 
L 2356 481 
L 2356 0 
L 1766 0 
Q 1100 0 847 248 
Q 594 497 594 1153 
L 594 3053 
L 172 3053 
L 172 3500 
L 594 3500 
L 594 4494 
L 1172 4494 
z
" transform="scale(0.015625)"/>
       <path id="DejaVuSans-65" d="M 3597 1894 
L 3597 1613 
L 953 1613 
Q 991 1019 1311 708 
Q 1631 397 2203 397 
Q 2534 397 2845 478 
Q 3156 559 3463 722 
L 3463 178 
Q 3153 47 2828 -22 
Q 2503 -91 2169 -91 
Q 1331 -91 842 396 
Q 353 884 353 1716 
Q 353 2575 817 3079 
Q 1281 3584 2069 3584 
Q 2775 3584 3186 3129 
Q 3597 2675 3597 1894 
z
M 3022 2063 
Q 3016 2534 2758 2815 
Q 2500 3097 2075 3097 
Q 1594 3097 1305 2825 
Q 1016 2553 972 2059 
L 3022 2063 
z
" transform="scale(0.015625)"/>
       <path id="DejaVuSans-64" d="M 2906 2969 
L 2906 4863 
L 3481 4863 
L 3481 0 
L 2906 0 
L 2906 525 
Q 2725 213 2448 61 
Q 2172 -91 1784 -91 
Q 1150 -91 751 415 
Q 353 922 353 1747 
Q 353 2572 751 3078 
Q 1150 3584 1784 3584 
Q 2172 3584 2448 3432 
Q 2725 3281 2906 2969 
z
M 947 1747 
Q 947 1113 1208 752 
Q 1469 391 1925 391 
Q 2381 391 2643 752 
Q 2906 1113 2906 1747 
Q 2906 2381 2643 2742 
Q 2381 3103 1925 3103 
Q 1469 3103 1208 2742 
Q 947 2381 947 1747 
z
" transform="scale(0.015625)"/>
       <path id="DejaVuSans-20" transform="scale(0.015625)"/>
       <path id="DejaVuSans-69" d="M 603 3500 
L 1178 3500 
L 1178 0 
L 603 0 
L 603 3500 
z
M 603 4863 
L 1178 4863 
L 1178 4134 
L 603 4134 
L 603 4863 
z
" transform="scale(0.015625)"/>
       <path id="DejaVuSans-6e" d="M 3513 2113 
L 3513 0 
L 2938 0 
L 2938 2094 
Q 2938 2591 2744 2837 
Q 2550 3084 2163 3084 
Q 1697 3084 1428 2787 
Q 1159 2491 1159 1978 
L 1159 0 
L 581 0 
L 581 3500 
L 1159 3500 
L 1159 2956 
Q 1366 3272 1645 3428 
Q 1925 3584 2291 3584 
Q 2894 3584 3203 3211 
Q 3513 2838 3513 2113 
z
" transform="scale(0.015625)"/>
       <path id="DejaVuSans-78" d="M 3513 3500 
L 2247 1797 
L 3578 0 
L 2900 0 
L 1881 1375 
L 863 0 
L 184 0 
L 1544 1831 
L 300 3500 
L 978 3500 
L 1906 2253 
L 2834 3500 
L 3513 3500 
z
" transform="scale(0.015625)"/>
      </defs>
      <use xlink:href="#DejaVuSans-53"/>
      <use xlink:href="#DejaVuSans-6f" x="63.476562"/>
      <use xlink:href="#DejaVuSans-72" x="124.658203"/>
      <use xlink:href="#DejaVuSans-74" x="165.771484"/>
      <use xlink:href="#DejaVuSans-65" x="204.980469"/>
      <use xlink:href="#DejaVuSans-64" x="266.503906"/>
      <use xlink:href="#DejaVuSans-20" x="329.980469"/>
      <use xlink:href="#DejaVuSans-69" x="361.767578"/>
      <use xlink:href="#DejaVuSans-6e" x="389.550781"/>
      <use xlink:href="#DejaVuSans-64" x="452.929688"/>
      <use xlink:href="#DejaVuSans-65" x="516.40625"/>
      <use xlink:href="#DejaVuSans-78" x="576.179688"/>
     </g>
    </g>
   </g>
   <g id="matplotlib.axis_2">
    <g id="ytick_1">
     <g id="line2d_19">
      <path d="M 57.6 304.430393 
L 414.72 304.430393 
" clip-path="url(#p4d058046fe)" style="fill: none; stroke: #b0b0b0; stroke-width: 0.8; stroke-linecap: square"/>
     </g>
     <g id="line2d_20">
      <defs>
       <path id="m2b1ec89043" d="M 0 0 
L -3.5 0 
" style="stroke: #000000; stroke-width: 0.8"/>
      </defs>
      <g>
       <use xlink:href="#m2b1ec89043" x="57.6" y="304.430393" style="stroke: #000000; stroke-width: 0.8"/>
      </g>
     </g>
     <g id="text_11">
      <!-- 0.2 -->
      <g transform="translate(34.696875 308.229612) scale(0.1 -0.1)">
       <defs>
        <path id="DejaVuSans-2e" d="M 684 794 
L 1344 794 
L 1344 0 
L 684 0 
L 684 794 
z
" transform="scale(0.015625)"/>
       </defs>
       <use xlink:href="#DejaVuSans-30"/>
       <use xlink:href="#DejaVuSans-2e" x="63.623047"/>
       <use xlink:href="#DejaVuSans-32" x="95.410156"/>
      </g>
     </g>
    </g>
    <g id="ytick_2">
     <g id="line2d_21">
      <path d="M 57.6 272.522655 
L 414.72 272.522655 
" clip-path="url(#p4d058046fe)" style="fill: none; stroke: #b0b0b0; stroke-width: 0.8; stroke-linecap: square"/>
     </g>
     <g id="line2d_22">
      <g>
       <use xlink:href="#m2b1ec89043" x="57.6" y="272.522655" style="stroke: #000000; stroke-width: 0.8"/>
      </g>
     </g>
     <g id="text_12">
      <!-- 0.4 -->
      <g transform="translate(34.696875 276.321874) scale(0.1 -0.1)">
       <use xlink:href="#DejaVuSans-30"/>
       <use xlink:href="#DejaVuSans-2e" x="63.623047"/>
       <use xlink:href="#DejaVuSans-34" x="95.410156"/>
      </g>
     </g>
    </g>
    <g id="ytick_3">
     <g id="line2d_23">
      <path d="M 57.6 240.614917 
L 414.72 240.614917 
" clip-path="url(#p4d058046fe)" style="fill: none; stroke: #b0b0b0; stroke-width: 0.8; stroke-linecap: square"/>
     </g>
     <g id="line2d_24">
      <g>
       <use xlink:href="#m2b1ec89043" x="57.6" y="240.614917" style="stroke: #000000; stroke-width: 0.8"/>
      </g>
     </g>
     <g id="text_13">
      <!-- 0.6 -->
      <g transform="translate(34.696875 244.414136) scale(0.1 -0.1)">
       <use xlink:href="#DejaVuSans-30"/>
       <use xlink:href="#DejaVuSans-2e" x="63.623047"/>
       <use xlink:href="#DejaVuSans-36" x="95.410156"/>
      </g>
     </g>
    </g>
    <g id="ytick_4">
     <g id="line2d_25">
      <path d="M 57.6 208.707179 
L 414.72 208.707179 
" clip-path="url(#p4d058046fe)" style="fill: none; stroke: #b0b0b0; stroke-width: 0.8; stroke-linecap: square"/>
     </g>
     <g id="line2d_26">
      <g>
       <use xlink:href="#m2b1ec89043" x="57.6" y="208.707179" style="stroke: #000000; stroke-width: 0.8"/>
      </g>
     </g>
     <g id="text_14">
      <!-- 0.8 -->
      <g transform="translate(34.696875 212.506398) scale(0.1 -0.1)">
       <use xlink:href="#DejaVuSans-30"/>
       <use xlink:href="#DejaVuSans-2e" x="63.623047"/>
       <use xlink:href="#DejaVuSans-38" x="95.410156"/>
      </g>
     </g>
    </g>
    <g id="ytick_5">
     <g id="line2d_27">
      <path d="M 57.6 176.799441 
L 414.72 176.799441 
" clip-path="url(#p4d058046fe)" style="fill: none; stroke: #b0b0b0; stroke-width: 0.8; stroke-linecap: square"/>
     </g>
     <g id="line2d_28">
      <g>
       <use xlink:href="#m2b1ec89043" x="57.6" y="176.799441" style="stroke: #000000; stroke-width: 0.8"/>
      </g>
     </g>
     <g id="text_15">
      <!-- 1.0 -->
      <g transform="translate(34.696875 180.598659) scale(0.1 -0.1)">
       <use xlink:href="#DejaVuSans-31"/>
       <use xlink:href="#DejaVuSans-2e" x="63.623047"/>
       <use xlink:href="#DejaVuSans-30" x="95.410156"/>
      </g>
     </g>
    </g>
    <g id="ytick_6">
     <g id="line2d_29">
      <path d="M 57.6 144.891702 
L 414.72 144.891702 
" clip-path="url(#p4d058046fe)" style="fill: none; stroke: #b0b0b0; stroke-width: 0.8; stroke-linecap: square"/>
     </g>
     <g id="line2d_30">
      <g>
       <use xlink:href="#m2b1ec89043" x="57.6" y="144.891702" style="stroke: #000000; stroke-width: 0.8"/>
      </g>
     </g>
     <g id="text_16">
      <!-- 1.2 -->
      <g transform="translate(34.696875 148.690921) scale(0.1 -0.1)">
       <use xlink:href="#DejaVuSans-31"/>
       <use xlink:href="#DejaVuSans-2e" x="63.623047"/>
       <use xlink:href="#DejaVuSans-32" x="95.410156"/>
      </g>
     </g>
    </g>
    <g id="ytick_7">
     <g id="line2d_31">
      <path d="M 57.6 112.983964 
L 414.72 112.983964 
" clip-path="url(#p4d058046fe)" style="fill: none; stroke: #b0b0b0; stroke-width: 0.8; stroke-linecap: square"/>
     </g>
     <g id="line2d_32">
      <g>
       <use xlink:href="#m2b1ec89043" x="57.6" y="112.983964" style="stroke: #000000; stroke-width: 0.8"/>
      </g>
     </g>
     <g id="text_17">
      <!-- 1.4 -->
      <g transform="translate(34.696875 116.783183) scale(0.1 -0.1)">
       <use xlink:href="#DejaVuSans-31"/>
       <use xlink:href="#DejaVuSans-2e" x="63.623047"/>
       <use xlink:href="#DejaVuSans-34" x="95.410156"/>
      </g>
     </g>
    </g>
    <g id="ytick_8">
     <g id="line2d_33">
      <path d="M 57.6 81.076226 
L 414.72 81.076226 
" clip-path="url(#p4d058046fe)" style="fill: none; stroke: #b0b0b0; stroke-width: 0.8; stroke-linecap: square"/>
     </g>
     <g id="line2d_34">
      <g>
       <use xlink:href="#m2b1ec89043" x="57.6" y="81.076226" style="stroke: #000000; stroke-width: 0.8"/>
      </g>
     </g>
     <g id="text_18">
      <!-- 1.6 -->
      <g transform="translate(34.696875 84.875445) scale(0.1 -0.1)">
       <use xlink:href="#DejaVuSans-31"/>
       <use xlink:href="#DejaVuSans-2e" x="63.623047"/>
       <use xlink:href="#DejaVuSans-36" x="95.410156"/>
      </g>
     </g>
    </g>
    <g id="ytick_9">
     <g id="line2d_35">
      <path d="M 57.6 49.168488 
L 414.72 49.168488 
" clip-path="url(#p4d058046fe)" style="fill: none; stroke: #b0b0b0; stroke-width: 0.8; stroke-linecap: square"/>
     </g>
     <g id="line2d_36">
      <g>
       <use xlink:href="#m2b1ec89043" x="57.6" y="49.168488" style="stroke: #000000; stroke-width: 0.8"/>
      </g>
     </g>
     <g id="text_19">
      <!-- 1.8 -->
      <g transform="translate(34.696875 52.967707) scale(0.1 -0.1)">
       <use xlink:href="#DejaVuSans-31"/>
       <use xlink:href="#DejaVuSans-2e" x="63.623047"/>
       <use xlink:href="#DejaVuSans-38" x="95.410156"/>
      </g>
     </g>
    </g>
    <g id="text_20">
     <!-- k-distance -->
     <g transform="translate(28.617187 200.413938) rotate(-90) scale(0.1 -0.1)">
      <defs>
       <path id="DejaVuSans-6b" d="M 581 4863 
L 1159 4863 
L 1159 1991 
L 2875 3500 
L 3609 3500 
L 1753 1863 
L 3688 0 
L 2938 0 
L 1159 1709 
L 1159 0 
L 581 0 
L 581 4863 
z
" transform="scale(0.015625)"/>
       <path id="DejaVuSans-2d" d="M 313 2009 
L 1997 2009 
L 1997 1497 
L 313 1497 
L 313 2009 
z
" transform="scale(0.015625)"/>
       <path id="DejaVuSans-73" d="M 2834 3397 
L 2834 2853 
Q 2591 2978 2328 3040 
Q 2066 3103 1784 3103 
Q 1356 3103 1142 2972 
Q 928 2841 928 2578 
Q 928 2378 1081 2264 
Q 1234 2150 1697 2047 
L 1894 2003 
Q 2506 1872 2764 1633 
Q 3022 1394 3022 966 
Q 3022 478 2636 193 
Q 2250 -91 1575 -91 
Q 1294 -91 989 -36 
Q 684 19 347 128 
L 347 722 
Q 666 556 975 473 
Q 1284 391 1588 391 
Q 1994 391 2212 530 
Q 2431 669 2431 922 
Q 2431 1156 2273 1281 
Q 2116 1406 1581 1522 
L 1381 1569 
Q 847 1681 609 1914 
Q 372 2147 372 2553 
Q 372 3047 722 3315 
Q 1072 3584 1716 3584 
Q 2034 3584 2315 3537 
Q 2597 3491 2834 3397 
z
" transform="scale(0.015625)"/>
       <path id="DejaVuSans-61" d="M 2194 1759 
Q 1497 1759 1228 1600 
Q 959 1441 959 1056 
Q 959 750 1161 570 
Q 1363 391 1709 391 
Q 2188 391 2477 730 
Q 2766 1069 2766 1631 
L 2766 1759 
L 2194 1759 
z
M 3341 1997 
L 3341 0 
L 2766 0 
L 2766 531 
Q 2569 213 2275 61 
Q 1981 -91 1556 -91 
Q 1019 -91 701 211 
Q 384 513 384 1019 
Q 384 1609 779 1909 
Q 1175 2209 1959 2209 
L 2766 2209 
L 2766 2266 
Q 2766 2663 2505 2880 
Q 2244 3097 1772 3097 
Q 1472 3097 1187 3025 
Q 903 2953 641 2809 
L 641 3341 
Q 956 3463 1253 3523 
Q 1550 3584 1831 3584 
Q 2591 3584 2966 3190 
Q 3341 2797 3341 1997 
z
" transform="scale(0.015625)"/>
       <path id="DejaVuSans-63" d="M 3122 3366 
L 3122 2828 
Q 2878 2963 2633 3030 
Q 2388 3097 2138 3097 
Q 1578 3097 1268 2742 
Q 959 2388 959 1747 
Q 959 1106 1268 751 
Q 1578 397 2138 397 
Q 2388 397 2633 464 
Q 2878 531 3122 666 
L 3122 134 
Q 2881 22 2623 -34 
Q 2366 -91 2075 -91 
Q 1284 -91 818 406 
Q 353 903 353 1747 
Q 353 2603 823 3093 
Q 1294 3584 2113 3584 
Q 2378 3584 2631 3529 
Q 2884 3475 3122 3366 
z
" transform="scale(0.015625)"/>
      </defs>
      <use xlink:href="#DejaVuSans-6b"/>
      <use xlink:href="#DejaVuSans-2d" x="57.910156"/>
      <use xlink:href="#DejaVuSans-64" x="93.994141"/>
      <use xlink:href="#DejaVuSans-69" x="157.470703"/>
      <use xlink:href="#DejaVuSans-73" x="185.253906"/>
      <use xlink:href="#DejaVuSans-74" x="237.353516"/>
      <use xlink:href="#DejaVuSans-61" x="276.5625"/>
      <use xlink:href="#DejaVuSans-6e" x="337.841797"/>
      <use xlink:href="#DejaVuSans-63" x="401.220703"/>
      <use xlink:href="#DejaVuSans-65" x="456.201172"/>
     </g>
    </g>
   </g>
   <g id="line2d_37">
    <path d="M 73.832727 53.568 
L 74.239053 76.604748 
L 74.645379 90.621348 
L 75.458032 95.963269 
L 75.864358 97.850575 
L 76.270684 102.735741 
L 76.67701 104.351738 
L 77.489662 117.052254 
L 77.895988 119.324575 
L 78.70864 126.770496 
L 79.521293 126.971599 
L 79.927619 133.400224 
L 80.740271 134.826258 
L 81.146597 134.917509 
L 81.552923 137.528641 
L 81.959249 138.298106 
L 82.365575 139.787145 
L 82.771901 140.429921 
L 83.178227 141.637545 
L 83.584553 143.254856 
L 84.397206 148.645801 
L 85.209858 152.848764 
L 85.616184 153.632754 
L 86.02251 154.993378 
L 86.428836 155.628439 
L 86.835162 157.006273 
L 87.647814 158.852387 
L 88.05414 159.051333 
L 88.460466 160.718683 
L 88.866793 163.57077 
L 89.273119 164.035768 
L 90.085771 164.674187 
L 90.898423 166.481515 
L 91.304749 166.572787 
L 91.711075 167.313989 
L 92.117401 167.552961 
L 92.523727 167.928435 
L 92.930053 168.035833 
L 93.742706 169.620216 
L 94.555358 170.456057 
L 94.961684 171.887693 
L 95.36801 172.283648 
L 95.774336 173.152705 
L 96.180662 175.183283 
L 96.586988 175.473112 
L 97.39964 176.748622 
L 98.212293 179.9668 
L 98.618619 180.915508 
L 99.431271 181.373935 
L 100.243923 182.14493 
L 100.650249 182.214447 
L 101.056575 182.549262 
L 102.68188 183.103387 
L 103.088206 184.205749 
L 103.494532 185.638468 
L 103.900858 186.621675 
L 104.71351 186.721463 
L 105.932488 190.276677 
L 106.745141 190.289009 
L 107.151467 191.013154 
L 107.557793 191.098626 
L 108.370445 191.71267 
L 108.776771 192.421096 
L 109.183097 192.42993 
L 109.589423 192.582451 
L 109.995749 193.840795 
L 110.402075 194.328059 
L 111.214728 196.499204 
L 112.02738 196.763446 
L 112.433706 197.898118 
L 112.840032 197.950488 
L 113.246358 198.733008 
L 113.652684 199.092461 
L 114.05901 199.294102 
L 114.871662 201.551677 
L 115.277988 201.810251 
L 115.684314 201.810251 
L 116.090641 202.021249 
L 116.496967 202.416824 
L 116.903293 203.003107 
L 117.715945 203.714822 
L 118.122271 203.838109 
L 118.528597 203.84361 
L 118.934923 205.33622 
L 119.341249 205.416174 
L 119.747575 206.320235 
L 120.153901 206.40275 
L 120.560228 206.603182 
L 120.966554 207.192219 
L 121.37288 207.453428 
L 121.779206 207.884809 
L 122.185532 207.908821 
L 122.591858 208.069175 
L 123.810836 208.159376 
L 124.623488 208.395587 
L 125.436141 209.057613 
L 125.842467 209.093335 
L 127.061445 209.800772 
L 127.874097 209.915814 
L 128.280423 210.400749 
L 128.686749 210.711852 
L 129.499402 210.849046 
L 129.905728 210.908335 
L 130.312054 211.250307 
L 131.531032 211.568887 
L 131.937358 211.986911 
L 132.343684 212.072508 
L 132.75001 212.333292 
L 133.156336 212.395137 
L 133.562662 213.030436 
L 134.375315 213.145426 
L 134.781641 213.80785 
L 135.187967 213.825309 
L 135.594293 214.307305 
L 136.000619 214.507365 
L 136.406945 215.232547 
L 138.844902 215.450338 
L 139.657554 215.71723 
L 140.06388 216.384056 
L 141.689184 217.006025 
L 143.314489 217.5685 
L 143.720815 217.731777 
L 144.127141 218.146568 
L 145.346119 218.599813 
L 146.565097 218.783022 
L 146.971423 219.167012 
L 147.377749 219.332322 
L 148.596728 219.519399 
L 149.003054 219.615175 
L 149.40938 219.990364 
L 151.44101 220.404965 
L 151.847336 220.425771 
L 152.253663 220.822774 
L 153.472641 220.944066 
L 154.691619 221.171929 
L 155.910597 221.775243 
L 156.316923 221.843034 
L 156.72325 222.291986 
L 157.129576 222.46736 
L 157.942228 222.496075 
L 158.348554 223.512454 
L 158.75488 224.099084 
L 159.973858 224.797557 
L 160.78651 225.950896 
L 161.599163 226.071369 
L 162.411815 226.110317 
L 163.224467 226.283344 
L 164.037119 227.13094 
L 164.443445 227.259834 
L 165.256097 227.899278 
L 166.881402 228.13387 
L 168.10038 228.25358 
L 168.506706 228.937857 
L 169.319358 229.407445 
L 170.13201 229.775712 
L 170.538337 230.242714 
L 170.944663 230.27581 
L 171.350989 230.895081 
L 172.569967 231.248222 
L 173.382619 231.792556 
L 175.007924 232.278265 
L 175.41425 232.637949 
L 175.820576 232.815491 
L 176.226902 233.125359 
L 177.039554 233.211634 
L 177.44588 233.759825 
L 178.258532 234.456759 
L 178.664858 234.510088 
L 179.071184 234.676907 
L 179.477511 234.676907 
L 180.290163 234.825699 
L 181.509141 235.030465 
L 181.915467 235.540638 
L 183.134445 235.694382 
L 183.947098 236.609349 
L 184.75975 236.733276 
L 186.385054 236.919873 
L 186.79138 237.011694 
L 187.197706 237.323832 
L 189.635663 237.803088 
L 190.041989 237.97443 
L 190.448315 238.010785 
L 191.667293 238.751696 
L 192.073619 238.827578 
L 192.479945 239.161406 
L 192.886271 239.984562 
L 193.292598 240.251353 
L 194.917902 240.719655 
L 195.730554 241.244872 
L 196.13688 241.272161 
L 196.949532 241.590966 
L 198.574837 241.944049 
L 200.200141 242.13869 
L 200.606467 242.351535 
L 203.857076 242.681202 
L 204.669728 242.86497 
L 205.888706 243.429941 
L 212.389924 244.362363 
L 212.79625 244.543244 
L 213.608902 244.630793 
L 214.421554 244.750521 
L 214.82788 244.754023 
L 215.234206 245.253714 
L 216.046859 245.492301 
L 216.859511 245.603439 
L 218.078489 245.957705 
L 218.484815 246.261356 
L 218.891141 246.284807 
L 219.703793 246.607352 
L 220.516446 246.808613 
L 222.14175 246.960159 
L 222.548076 247.1683 
L 223.360728 247.320211 
L 223.767054 247.665514 
L 224.579706 247.810274 
L 224.986033 248.211035 
L 225.798685 248.325003 
L 227.423989 248.48506 
L 229.049293 248.906999 
L 229.45562 249.239524 
L 230.268272 249.316119 
L 230.674598 249.733264 
L 232.706228 250.261873 
L 233.112554 250.283585 
L 233.925207 250.497703 
L 235.144185 250.669103 
L 235.956837 251.34172 
L 237.175815 251.633163 
L 238.394793 252.192441 
L 240.020098 252.279143 
L 240.426424 252.473452 
L 241.645402 252.565357 
L 242.051728 252.871006 
L 242.458054 252.93986 
L 243.270707 253.259647 
L 244.896011 253.71228 
L 247.333967 253.91369 
L 248.14662 254.408837 
L 248.552946 254.425301 
L 248.959272 254.730498 
L 250.17825 254.894739 
L 250.584576 255.182701 
L 252.209881 255.536682 
L 253.835185 255.653398 
L 255.460489 255.892402 
L 255.866815 256.196989 
L 256.679468 256.284641 
L 257.898446 256.416698 
L 258.304772 256.863138 
L 258.711098 257.101564 
L 259.930076 257.213205 
L 261.149054 257.559543 
L 264.805989 258.344017 
L 265.618641 258.800865 
L 266.431294 258.839633 
L 267.243946 258.970502 
L 268.462924 259.23301 
L 268.86925 259.480118 
L 269.275576 259.512757 
L 269.681902 259.790527 
L 272.119859 260.206372 
L 272.526185 260.572571 
L 273.338837 260.633417 
L 274.151489 260.756957 
L 275.370468 260.932119 
L 275.776794 261.105556 
L 276.18312 261.445527 
L 279.027402 262.291906 
L 279.433729 262.334721 
L 279.840055 262.595179 
L 281.059033 262.7513 
L 281.465359 262.797456 
L 281.871685 263.049435 
L 282.684337 263.150665 
L 283.090663 263.576692 
L 284.309642 263.753768 
L 285.934946 264.133717 
L 288.779229 264.569103 
L 290.404533 264.884643 
L 290.810859 265.02149 
L 291.217185 265.382761 
L 293.655142 265.748305 
L 294.467794 266.210635 
L 296.093098 266.426724 
L 296.499424 266.653947 
L 297.312076 266.732351 
L 298.124729 267.097244 
L 299.750033 267.291678 
L 303.000642 268.01148 
L 303.406968 268.025769 
L 303.813294 268.189533 
L 304.625946 268.304414 
L 305.032272 268.470699 
L 306.657577 268.633033 
L 308.282881 269.321348 
L 311.127163 269.88621 
L 311.939816 269.922769 
L 312.752468 270.189568 
L 313.56512 270.297556 
L 314.784098 270.326581 
L 315.190424 270.490545 
L 317.222055 270.601438 
L 317.628381 270.624912 
L 318.034707 270.876003 
L 318.847359 270.977819 
L 319.253685 271.182463 
L 320.066337 271.213116 
L 320.87899 271.439016 
L 323.316946 271.704154 
L 327.380207 272.277861 
L 329.411838 272.412245 
L 329.818164 272.604778 
L 330.22449 273.022708 
L 332.662446 273.437518 
L 333.068772 273.582954 
L 333.475098 273.596619 
L 333.881425 273.874653 
L 334.694077 273.969027 
L 335.100403 274.191528 
L 335.506729 274.243133 
L 335.913055 274.582774 
L 336.725707 274.623968 
L 337.538359 274.735607 
L 337.944685 274.768366 
L 338.351011 274.981543 
L 339.163664 275.065373 
L 340.788968 275.276798 
L 342.414272 275.576749 
L 344.852229 275.855026 
L 345.664881 276.186685 
L 346.477533 276.289201 
L 347.696512 276.418404 
L 348.102838 276.677911 
L 350.134468 276.858367 
L 352.166099 277.18705 
L 352.572425 277.570871 
L 353.791403 277.63511 
L 357.448338 278.222935 
L 359.479968 278.958806 
L 361.917925 279.209944 
L 362.730577 279.423363 
L 363.949555 279.531948 
L 365.168533 279.920064 
L 365.574859 280.126887 
L 366.387512 280.268807 
L 367.200164 280.422775 
L 372.076077 280.854015 
L 372.482403 281.117249 
L 372.888729 281.146127 
L 373.295055 281.474195 
L 373.701381 281.49035 
L 374.107707 281.710656 
L 374.92036 281.830109 
L 375.326686 282.444256 
L 375.733012 282.459685 
L 376.139338 282.744521 
L 376.95199 282.912034 
L 377.358316 283.276102 
L 378.170968 283.61851 
L 378.577294 283.888956 
L 378.98362 283.888956 
L 379.389947 284.051993 
L 381.015251 284.230388 
L 383.046881 284.867282 
L 383.859534 285.035962 
L 384.26586 285.037771 
L 387.922794 286.012649 
L 389.954425 286.408236 
L 390.360751 287.021682 
L 390.767077 287.197573 
L 391.173403 287.197573 
L 391.579729 287.416287 
L 391.986055 287.44515 
L 393.61136 287.973999 
L 394.017686 288.565876 
L 394.424012 288.879461 
L 395.64299 289.338789 
L 396.455642 289.580782 
L 396.861968 289.934016 
L 397.268294 290.011758 
L 397.674621 290.814467 
L 398.080947 290.837018 
L 398.487273 295.488 
L 398.487273 295.488 
" clip-path="url(#p4d058046fe)" style="fill: none; stroke: #1f77b4; stroke-width: 1.5; stroke-linecap: square"/>
   </g>
   <g id="line2d_38">
    <path d="M 57.6 164.655948 
L 414.72 164.655948 
" clip-path="url(#p4d058046fe)" style="fill: none; stroke-dasharray: 5.55,2.4; stroke-dashoffset: 0; stroke: #ff0000; stroke-width: 1.5"/>
   </g>
   <g id="patch_3">
    <path d="M 57.6 307.584 
L 57.6 41.472 
" style="fill: none; stroke: #000000; stroke-width: 0.8; stroke-linejoin: miter; stroke-linecap: square"/>
   </g>
   <g id="patch_4">
    <path d="M 414.72 307.584 
L 414.72 41.472 
" style="fill: none; stroke: #000000; stroke-width: 0.8; stroke-linejoin: miter; stroke-linecap: square"/>
   </g>
   <g id="patch_5">
    <path d="M 57.6 307.584 
L 414.72 307.584 
" style="fill: none; stroke: #000000; stroke-width: 0.8; stroke-linejoin: miter; stroke-linecap: square"/>
   </g>
   <g id="patch_6">
    <path d="M 57.6 41.472 
L 414.72 41.472 
" style="fill: none; stroke: #000000; stroke-width: 0.8; stroke-linejoin: miter; stroke-linecap: square"/>
   </g>
   <g id="legend_1">
    <g id="patch_7">
     <path d="M 320.52 64.150125 
L 407.72 64.150125 
Q 409.72 64.150125 409.72 62.150125 
L 409.72 48.472 
Q 409.72 46.472 407.72 46.472 
L 320.52 46.472 
Q 318.52 46.472 318.52 48.472 
L 318.52 62.150125 
Q 318.52 64.150125 320.52 64.150125 
z
" style="fill: #ffffff; opacity: 0.8; stroke: #cccccc; stroke-linejoin: miter"/>
    </g>
    <g id="line2d_39">
     <path d="M 322.52 54.570438 
L 332.52 54.570438 
L 342.52 54.570438 
" style="fill: none; stroke-dasharray: 5.55,2.4; stroke-dashoffset: 0; stroke: #ff0000; stroke-width: 1.5"/>
    </g>
    <g id="text_21">
     <!-- $\epsilon$ = 1.0761 -->
     <g transform="translate(350.52 58.070438) scale(0.1 -0.1)">
      <defs>
       <path id="DejaVuSans-Oblique-3b5" d="M 1263 1888 
Q 925 1963 778 2166 
Q 669 2309 669 2503 
Q 669 3034 1175 3344 
Q 1575 3588 2188 3588 
Q 2425 3588 2684 3550 
Q 2944 3513 3234 3438 
L 3134 2916 
Q 2847 3006 2606 3047 
Q 2359 3088 2138 3088 
Q 1766 3088 1522 2944 
Q 1228 2772 1228 2522 
Q 1228 2356 1381 2241 
Q 1563 2103 1925 2103 
L 2409 2103 
L 2319 1628 
L 1856 1628 
Q 1425 1628 1172 1469 
Q 828 1253 828 916 
Q 828 703 1013 563 
Q 1244 388 1716 388 
Q 2006 388 2284 444 
Q 2563 503 2806 619 
L 2700 84 
Q 2403 -3 2131 -47 
Q 1859 -91 1609 -91 
Q 866 -91 516 194 
Q 250 413 250 781 
Q 250 1278 600 1584 
Q 859 1813 1263 1888 
z
" transform="scale(0.015625)"/>
       <path id="DejaVuSans-3d" d="M 678 2906 
L 4684 2906 
L 4684 2381 
L 678 2381 
L 678 2906 
z
M 678 1631 
L 4684 1631 
L 4684 1100 
L 678 1100 
L 678 1631 
z
" transform="scale(0.015625)"/>
      </defs>
      <use xlink:href="#DejaVuSans-Oblique-3b5" transform="translate(0 0.78125)"/>
      <use xlink:href="#DejaVuSans-20" transform="translate(54.052734 0.78125)"/>
      <use xlink:href="#DejaVuSans-3d" transform="translate(85.839844 0.78125)"/>
      <use xlink:href="#DejaVuSans-20" transform="translate(169.628906 0.78125)"/>
      <use xlink:href="#DejaVuSans-31" transform="translate(201.416016 0.78125)"/>
      <use xlink:href="#DejaVuSans-2e" transform="translate(265.039062 0.78125)"/>
      <use xlink:href="#DejaVuSans-30" transform="translate(296.826172 0.78125)"/>
      <use xlink:href="#DejaVuSans-37" transform="translate(360.449219 0.78125)"/>
      <use xlink:href="#DejaVuSans-36" transform="translate(424.072266 0.78125)"/>
      <use xlink:href="#DejaVuSans-31" transform="translate(487.695312 0.78125)"/>
     </g>
    </g>
   </g>
  </g>
 </g>
 <defs>
  <clipPath id="p4d058046fe">
   <rect x="57.6" y="41.472" width="357.12" height="266.112"/>
  </clipPath>
 </defs>
</svg>
