<?xml version="1.0" encoding="utf-8" standalone="no"?>
<!DOCTYPE svg PUBLIC "-//W3C//DTD SVG 1.1//EN"
  "http://www.w3.org/Graphics/SVG/1.1/DTD/svg11.dtd">
<svg xmlns:xlink="http://www.w3.org/1999/xlink" width="460.8pt" height="345.6pt" viewBox="0 0 460.8 345.6" xmlns="http://www.w3.org/2000/svg" version="1.1">
 <metadata>
  <rdf:RDF xmlns:dc="http://purl.org/dc/elements/1.1/" xmlns:cc="http://creativecommons.org/ns#" xmlns:rdf="http://www.w3.org/1999/02/22-rdf-syntax-ns#">
   <cc:Work>
    <dc:type rdf:resource="http://purl.org/dc/dcmitype/StillImage"/>
    <dc:date>2025-05-13T19:08:22.534079</dc:date>
    <dc:format>image/svg+xml</dc:format>
    <dc:creator>
     <cc:Agent>
      <dc:title>Matplotlib v3.9.4, https://matplotlib.org/</dc:title>
     </cc:Agent>
    </dc:creator>
   </cc:Work>
  </rdf:RDF>
 </metadata>
 <defs>
  <style type="text/css">*{stroke-linejoin: round; stroke-linecap: butt}</style>
 </defs>
 <g id="figure_1">
  <g id="patch_1">
   <path d="M 0 345.6 
L 460.8 345.6 
L 460.8 0 
L 0 0 
z
" style="fill: #ffffff"/>
  </g>
  <g id="axes_1">
   <g id="patch_2">
    <path d="M 57.6 307.584 
L 414.72 307.584 
L 414.72 41.472 
L 57.6 41.472 
z
" style="fill: #ffffff"/>
   </g>
   <g id="matplotlib.axis_1">
    <g id="xtick_1">
     <g id="line2d_1">
      <path d="M 73.832727 307.584 
L 73.832727 41.472 
" clip-path="url(#p89a4d96a9e)" style="fill: none; stroke: #b0b0b0; stroke-width: 0.8; stroke-linecap: square"/>
     </g>
     <g id="line2d_2">
      <defs>
       <path id="m7ad2d70783" d="M 0 0 
L 0 3.5 
" style="stroke: #000000; stroke-width: 0.8"/>
      </defs>
      <g>
       <use xlink:href="#m7ad2d70783" x="73.832727" y="307.584" style="stroke: #000000; stroke-width: 0.8"/>
      </g>
     </g>
     <g id="text_1">
      <!-- 0 -->
      <g transform="translate(70.651477 322.182437) scale(0.1 -0.1)">
       <defs>
        <path id="DejaVuSans-30" d="M 2034 4250 
Q 1547 4250 1301 3770 
Q 1056 3291 1056 2328 
Q 1056 1369 1301 889 
Q 1547 409 2034 409 
Q 2525 409 2770 889 
Q 3016 1369 3016 2328 
Q 3016 3291 2770 3770 
Q 2525 4250 2034 4250 
z
M 2034 4750 
Q 2819 4750 3233 4129 
Q 3647 3509 3647 2328 
Q 3647 1150 3233 529 
Q 2819 -91 2034 -91 
Q 1250 -91 836 529 
Q 422 1150 422 2328 
Q 422 3509 836 4129 
Q 1250 4750 2034 4750 
z
" transform="scale(0.015625)"/>
       </defs>
       <use xlink:href="#DejaVuSans-30"/>
      </g>
     </g>
    </g>
    <g id="xtick_2">
     <g id="line2d_3">
      <path d="M 114.434847 307.584 
L 114.434847 41.472 
" clip-path="url(#p89a4d96a9e)" style="fill: none; stroke: #b0b0b0; stroke-width: 0.8; stroke-linecap: square"/>
     </g>
     <g id="line2d_4">
      <g>
       <use xlink:href="#m7ad2d70783" x="114.434847" y="307.584" style="stroke: #000000; stroke-width: 0.8"/>
      </g>
     </g>
     <g id="text_2">
      <!-- 250 -->
      <g transform="translate(104.891097 322.182437) scale(0.1 -0.1)">
       <defs>
        <path id="DejaVuSans-32" d="M 1228 531 
L 3431 531 
L 3431 0 
L 469 0 
L 469 531 
Q 828 903 1448 1529 
Q 2069 2156 2228 2338 
Q 2531 2678 2651 2914 
Q 2772 3150 2772 3378 
Q 2772 3750 2511 3984 
Q 2250 4219 1831 4219 
Q 1534 4219 1204 4116 
Q 875 4013 500 3803 
L 500 4441 
Q 881 4594 1212 4672 
Q 1544 4750 1819 4750 
Q 2544 4750 2975 4387 
Q 3406 4025 3406 3419 
Q 3406 3131 3298 2873 
Q 3191 2616 2906 2266 
Q 2828 2175 2409 1742 
Q 1991 1309 1228 531 
z
" transform="scale(0.015625)"/>
        <path id="DejaVuSans-35" d="M 691 4666 
L 3169 4666 
L 3169 4134 
L 1269 4134 
L 1269 2991 
Q 1406 3038 1543 3061 
Q 1681 3084 1819 3084 
Q 2600 3084 3056 2656 
Q 3513 2228 3513 1497 
Q 3513 744 3044 326 
Q 2575 -91 1722 -91 
Q 1428 -91 1123 -41 
Q 819 9 494 109 
L 494 744 
Q 775 591 1075 516 
Q 1375 441 1709 441 
Q 2250 441 2565 725 
Q 2881 1009 2881 1497 
Q 2881 1984 2565 2268 
Q 2250 2553 1709 2553 
Q 1456 2553 1204 2497 
Q 953 2441 691 2322 
L 691 4666 
z
" transform="scale(0.015625)"/>
       </defs>
       <use xlink:href="#DejaVuSans-32"/>
       <use xlink:href="#DejaVuSans-35" x="63.623047"/>
       <use xlink:href="#DejaVuSans-30" x="127.246094"/>
      </g>
     </g>
    </g>
    <g id="xtick_3">
     <g id="line2d_5">
      <path d="M 155.036966 307.584 
L 155.036966 41.472 
" clip-path="url(#p89a4d96a9e)" style="fill: none; stroke: #b0b0b0; stroke-width: 0.8; stroke-linecap: square"/>
     </g>
     <g id="line2d_6">
      <g>
       <use xlink:href="#m7ad2d70783" x="155.036966" y="307.584" style="stroke: #000000; stroke-width: 0.8"/>
      </g>
     </g>
     <g id="text_3">
      <!-- 500 -->
      <g transform="translate(145.493216 322.182437) scale(0.1 -0.1)">
       <use xlink:href="#DejaVuSans-35"/>
       <use xlink:href="#DejaVuSans-30" x="63.623047"/>
       <use xlink:href="#DejaVuSans-30" x="127.246094"/>
      </g>
     </g>
    </g>
    <g id="xtick_4">
     <g id="line2d_7">
      <path d="M 195.639085 307.584 
L 195.639085 41.472 
" clip-path="url(#p89a4d96a9e)" style="fill: none; stroke: #b0b0b0; stroke-width: 0.8; stroke-linecap: square"/>
     </g>
     <g id="line2d_8">
      <g>
       <use xlink:href="#m7ad2d70783" x="195.639085" y="307.584" style="stroke: #000000; stroke-width: 0.8"/>
      </g>
     </g>
     <g id="text_4">
      <!-- 750 -->
      <g transform="translate(186.095335 322.182437) scale(0.1 -0.1)">
       <defs>
        <path id="DejaVuSans-37" d="M 525 4666 
L 3525 4666 
L 3525 4397 
L 1831 0 
L 1172 0 
L 2766 4134 
L 525 4134 
L 525 4666 
z
" transform="scale(0.015625)"/>
       </defs>
       <use xlink:href="#DejaVuSans-37"/>
       <use xlink:href="#DejaVuSans-35" x="63.623047"/>
       <use xlink:href="#DejaVuSans-30" x="127.246094"/>
      </g>
     </g>
    </g>
    <g id="xtick_5">
     <g id="line2d_9">
      <path d="M 236.241204 307.584 
L 236.241204 41.472 
" clip-path="url(#p89a4d96a9e)" style="fill: none; stroke: #b0b0b0; stroke-width: 0.8; stroke-linecap: square"/>
     </g>
     <g id="line2d_10">
      <g>
       <use xlink:href="#m7ad2d70783" x="236.241204" y="307.584" style="stroke: #000000; stroke-width: 0.8"/>
      </g>
     </g>
     <g id="text_5">
      <!-- 1000 -->
      <g transform="translate(223.516204 322.182437) scale(0.1 -0.1)">
       <defs>
        <path id="DejaVuSans-31" d="M 794 531 
L 1825 531 
L 1825 4091 
L 703 3866 
L 703 4441 
L 1819 4666 
L 2450 4666 
L 2450 531 
L 3481 531 
L 3481 0 
L 794 0 
L 794 531 
z
" transform="scale(0.015625)"/>
       </defs>
       <use xlink:href="#DejaVuSans-31"/>
       <use xlink:href="#DejaVuSans-30" x="63.623047"/>
       <use xlink:href="#DejaVuSans-30" x="127.246094"/>
       <use xlink:href="#DejaVuSans-30" x="190.869141"/>
      </g>
     </g>
    </g>
    <g id="xtick_6">
     <g id="line2d_11">
      <path d="M 276.843323 307.584 
L 276.843323 41.472 
" clip-path="url(#p89a4d96a9e)" style="fill: none; stroke: #b0b0b0; stroke-width: 0.8; stroke-linecap: square"/>
     </g>
     <g id="line2d_12">
      <g>
       <use xlink:href="#m7ad2d70783" x="276.843323" y="307.584" style="stroke: #000000; stroke-width: 0.8"/>
      </g>
     </g>
     <g id="text_6">
      <!-- 1250 -->
      <g transform="translate(264.118323 322.182437) scale(0.1 -0.1)">
       <use xlink:href="#DejaVuSans-31"/>
       <use xlink:href="#DejaVuSans-32" x="63.623047"/>
       <use xlink:href="#DejaVuSans-35" x="127.246094"/>
       <use xlink:href="#DejaVuSans-30" x="190.869141"/>
      </g>
     </g>
    </g>
    <g id="xtick_7">
     <g id="line2d_13">
      <path d="M 317.445443 307.584 
L 317.445443 41.472 
" clip-path="url(#p89a4d96a9e)" style="fill: none; stroke: #b0b0b0; stroke-width: 0.8; stroke-linecap: square"/>
     </g>
     <g id="line2d_14">
      <g>
       <use xlink:href="#m7ad2d70783" x="317.445443" y="307.584" style="stroke: #000000; stroke-width: 0.8"/>
      </g>
     </g>
     <g id="text_7">
      <!-- 1500 -->
      <g transform="translate(304.720443 322.182437) scale(0.1 -0.1)">
       <use xlink:href="#DejaVuSans-31"/>
       <use xlink:href="#DejaVuSans-35" x="63.623047"/>
       <use xlink:href="#DejaVuSans-30" x="127.246094"/>
       <use xlink:href="#DejaVuSans-30" x="190.869141"/>
      </g>
     </g>
    </g>
    <g id="xtick_8">
     <g id="line2d_15">
      <path d="M 358.047562 307.584 
L 358.047562 41.472 
" clip-path="url(#p89a4d96a9e)" style="fill: none; stroke: #b0b0b0; stroke-width: 0.8; stroke-linecap: square"/>
     </g>
     <g id="line2d_16">
      <g>
       <use xlink:href="#m7ad2d70783" x="358.047562" y="307.584" style="stroke: #000000; stroke-width: 0.8"/>
      </g>
     </g>
     <g id="text_8">
      <!-- 1750 -->
      <g transform="translate(345.322562 322.182437) scale(0.1 -0.1)">
       <use xlink:href="#DejaVuSans-31"/>
       <use xlink:href="#DejaVuSans-37" x="63.623047"/>
       <use xlink:href="#DejaVuSans-35" x="127.246094"/>
       <use xlink:href="#DejaVuSans-30" x="190.869141"/>
      </g>
     </g>
    </g>
    <g id="xtick_9">
     <g id="line2d_17">
      <path d="M 398.649681 307.584 
L 398.649681 41.472 
" clip-path="url(#p89a4d96a9e)" style="fill: none; stroke: #b0b0b0; stroke-width: 0.8; stroke-linecap: square"/>
     </g>
     <g id="line2d_18">
      <g>
       <use xlink:href="#m7ad2d70783" x="398.649681" y="307.584" style="stroke: #000000; stroke-width: 0.8"/>
      </g>
     </g>
     <g id="text_9">
      <!-- 2000 -->
      <g transform="translate(385.924681 322.182437) scale(0.1 -0.1)">
       <use xlink:href="#DejaVuSans-32"/>
       <use xlink:href="#DejaVuSans-30" x="63.623047"/>
       <use xlink:href="#DejaVuSans-30" x="127.246094"/>
       <use xlink:href="#DejaVuSans-30" x="190.869141"/>
      </g>
     </g>
    </g>
    <g id="text_10">
     <!-- Sorted index -->
     <g transform="translate(204.390469 335.860562) scale(0.1 -0.1)">
      <defs>
       <path id="DejaVuSans-53" d="M 3425 4513 
L 3425 3897 
Q 3066 4069 2747 4153 
Q 2428 4238 2131 4238 
Q 1616 4238 1336 4038 
Q 1056 3838 1056 3469 
Q 1056 3159 1242 3001 
Q 1428 2844 1947 2747 
L 2328 2669 
Q 3034 2534 3370 2195 
Q 3706 1856 3706 1288 
Q 3706 609 3251 259 
Q 2797 -91 1919 -91 
Q 1588 -91 1214 -16 
Q 841 59 441 206 
L 441 856 
Q 825 641 1194 531 
Q 1563 422 1919 422 
Q 2459 422 2753 634 
Q 3047 847 3047 1241 
Q 3047 1584 2836 1778 
Q 2625 1972 2144 2069 
L 1759 2144 
Q 1053 2284 737 2584 
Q 422 2884 422 3419 
Q 422 4038 858 4394 
Q 1294 4750 2059 4750 
Q 2388 4750 2728 4690 
Q 3069 4631 3425 4513 
z
" transform="scale(0.015625)"/>
       <path id="DejaVuSans-6f" d="M 1959 3097 
Q 1497 3097 1228 2736 
Q 959 2375 959 1747 
Q 959 1119 1226 758 
Q 1494 397 1959 397 
Q 2419 397 2687 759 
Q 2956 1122 2956 1747 
Q 2956 2369 2687 2733 
Q 2419 3097 1959 3097 
z
M 1959 3584 
Q 2709 3584 3137 3096 
Q 3566 2609 3566 1747 
Q 3566 888 3137 398 
Q 2709 -91 1959 -91 
Q 1206 -91 779 398 
Q 353 888 353 1747 
Q 353 2609 779 3096 
Q 1206 3584 1959 3584 
z
" transform="scale(0.015625)"/>
       <path id="DejaVuSans-72" d="M 2631 2963 
Q 2534 3019 2420 3045 
Q 2306 3072 2169 3072 
Q 1681 3072 1420 2755 
Q 1159 2438 1159 1844 
L 1159 0 
L 581 0 
L 581 3500 
L 1159 3500 
L 1159 2956 
Q 1341 3275 1631 3429 
Q 1922 3584 2338 3584 
Q 2397 3584 2469 3576 
Q 2541 3569 2628 3553 
L 2631 2963 
z
" transform="scale(0.015625)"/>
       <path id="DejaVuSans-74" d="M 1172 4494 
L 1172 3500 
L 2356 3500 
L 2356 3053 
L 1172 3053 
L 1172 1153 
Q 1172 725 1289 603 
Q 1406 481 1766 481 
L 2356 481 
L 2356 0 
L 1766 0 
Q 1100 0 847 248 
Q 594 497 594 1153 
L 594 3053 
L 172 3053 
L 172 3500 
L 594 3500 
L 594 4494 
L 1172 4494 
z
" transform="scale(0.015625)"/>
       <path id="DejaVuSans-65" d="M 3597 1894 
L 3597 1613 
L 953 1613 
Q 991 1019 1311 708 
Q 1631 397 2203 397 
Q 2534 397 2845 478 
Q 3156 559 3463 722 
L 3463 178 
Q 3153 47 2828 -22 
Q 2503 -91 2169 -91 
Q 1331 -91 842 396 
Q 353 884 353 1716 
Q 353 2575 817 3079 
Q 1281 3584 2069 3584 
Q 2775 3584 3186 3129 
Q 3597 2675 3597 1894 
z
M 3022 2063 
Q 3016 2534 2758 2815 
Q 2500 3097 2075 3097 
Q 1594 3097 1305 2825 
Q 1016 2553 972 2059 
L 3022 2063 
z
" transform="scale(0.015625)"/>
       <path id="DejaVuSans-64" d="M 2906 2969 
L 2906 4863 
L 3481 4863 
L 3481 0 
L 2906 0 
L 2906 525 
Q 2725 213 2448 61 
Q 2172 -91 1784 -91 
Q 1150 -91 751 415 
Q 353 922 353 1747 
Q 353 2572 751 3078 
Q 1150 3584 1784 3584 
Q 2172 3584 2448 3432 
Q 2725 3281 2906 2969 
z
M 947 1747 
Q 947 1113 1208 752 
Q 1469 391 1925 391 
Q 2381 391 2643 752 
Q 2906 1113 2906 1747 
Q 2906 2381 2643 2742 
Q 2381 3103 1925 3103 
Q 1469 3103 1208 2742 
Q 947 2381 947 1747 
z
" transform="scale(0.015625)"/>
       <path id="DejaVuSans-20" transform="scale(0.015625)"/>
       <path id="DejaVuSans-69" d="M 603 3500 
L 1178 3500 
L 1178 0 
L 603 0 
L 603 3500 
z
M 603 4863 
L 1178 4863 
L 1178 4134 
L 603 4134 
L 603 4863 
z
" transform="scale(0.015625)"/>
       <path id="DejaVuSans-6e" d="M 3513 2113 
L 3513 0 
L 2938 0 
L 2938 2094 
Q 2938 2591 2744 2837 
Q 2550 3084 2163 3084 
Q 1697 3084 1428 2787 
Q 1159 2491 1159 1978 
L 1159 0 
L 581 0 
L 581 3500 
L 1159 3500 
L 1159 2956 
Q 1366 3272 1645 3428 
Q 1925 3584 2291 3584 
Q 2894 3584 3203 3211 
Q 3513 2838 3513 2113 
z
" transform="scale(0.015625)"/>
       <path id="DejaVuSans-78" d="M 3513 3500 
L 2247 1797 
L 3578 0 
L 2900 0 
L 1881 1375 
L 863 0 
L 184 0 
L 1544 1831 
L 300 3500 
L 978 3500 
L 1906 2253 
L 2834 3500 
L 3513 3500 
z
" transform="scale(0.015625)"/>
      </defs>
      <use xlink:href="#DejaVuSans-53"/>
      <use xlink:href="#DejaVuSans-6f" x="63.476562"/>
      <use xlink:href="#DejaVuSans-72" x="124.658203"/>
      <use xlink:href="#DejaVuSans-74" x="165.771484"/>
      <use xlink:href="#DejaVuSans-65" x="204.980469"/>
      <use xlink:href="#DejaVuSans-64" x="266.503906"/>
      <use xlink:href="#DejaVuSans-20" x="329.980469"/>
      <use xlink:href="#DejaVuSans-69" x="361.767578"/>
      <use xlink:href="#DejaVuSans-6e" x="389.550781"/>
      <use xlink:href="#DejaVuSans-64" x="452.929688"/>
      <use xlink:href="#DejaVuSans-65" x="516.40625"/>
      <use xlink:href="#DejaVuSans-78" x="576.179688"/>
     </g>
    </g>
   </g>
   <g id="matplotlib.axis_2">
    <g id="ytick_1">
     <g id="line2d_19">
      <path d="M 57.6 284.201972 
L 414.72 284.201972 
" clip-path="url(#p89a4d96a9e)" style="fill: none; stroke: #b0b0b0; stroke-width: 0.8; stroke-linecap: square"/>
     </g>
     <g id="line2d_20">
      <defs>
       <path id="m517e111359" d="M 0 0 
L -3.5 0 
" style="stroke: #000000; stroke-width: 0.8"/>
      </defs>
      <g>
       <use xlink:href="#m517e111359" x="57.6" y="284.201972" style="stroke: #000000; stroke-width: 0.8"/>
      </g>
     </g>
     <g id="text_11">
      <!-- 1 -->
      <g transform="translate(44.2375 288.001191) scale(0.1 -0.1)">
       <use xlink:href="#DejaVuSans-31"/>
      </g>
     </g>
    </g>
    <g id="ytick_2">
     <g id="line2d_21">
      <path d="M 57.6 235.865341 
L 414.72 235.865341 
" clip-path="url(#p89a4d96a9e)" style="fill: none; stroke: #b0b0b0; stroke-width: 0.8; stroke-linecap: square"/>
     </g>
     <g id="line2d_22">
      <g>
       <use xlink:href="#m517e111359" x="57.6" y="235.865341" style="stroke: #000000; stroke-width: 0.8"/>
      </g>
     </g>
     <g id="text_12">
      <!-- 2 -->
      <g transform="translate(44.2375 239.66456) scale(0.1 -0.1)">
       <use xlink:href="#DejaVuSans-32"/>
      </g>
     </g>
    </g>
    <g id="ytick_3">
     <g id="line2d_23">
      <path d="M 57.6 187.528711 
L 414.72 187.528711 
" clip-path="url(#p89a4d96a9e)" style="fill: none; stroke: #b0b0b0; stroke-width: 0.8; stroke-linecap: square"/>
     </g>
     <g id="line2d_24">
      <g>
       <use xlink:href="#m517e111359" x="57.6" y="187.528711" style="stroke: #000000; stroke-width: 0.8"/>
      </g>
     </g>
     <g id="text_13">
      <!-- 3 -->
      <g transform="translate(44.2375 191.327929) scale(0.1 -0.1)">
       <defs>
        <path id="DejaVuSans-33" d="M 2597 2516 
Q 3050 2419 3304 2112 
Q 3559 1806 3559 1356 
Q 3559 666 3084 287 
Q 2609 -91 1734 -91 
Q 1441 -91 1130 -33 
Q 819 25 488 141 
L 488 750 
Q 750 597 1062 519 
Q 1375 441 1716 441 
Q 2309 441 2620 675 
Q 2931 909 2931 1356 
Q 2931 1769 2642 2001 
Q 2353 2234 1838 2234 
L 1294 2234 
L 1294 2753 
L 1863 2753 
Q 2328 2753 2575 2939 
Q 2822 3125 2822 3475 
Q 2822 3834 2567 4026 
Q 2313 4219 1838 4219 
Q 1578 4219 1281 4162 
Q 984 4106 628 3988 
L 628 4550 
Q 988 4650 1302 4700 
Q 1616 4750 1894 4750 
Q 2613 4750 3031 4423 
Q 3450 4097 3450 3541 
Q 3450 3153 3228 2886 
Q 3006 2619 2597 2516 
z
" transform="scale(0.015625)"/>
       </defs>
       <use xlink:href="#DejaVuSans-33"/>
      </g>
     </g>
    </g>
    <g id="ytick_4">
     <g id="line2d_25">
      <path d="M 57.6 139.19208 
L 414.72 139.19208 
" clip-path="url(#p89a4d96a9e)" style="fill: none; stroke: #b0b0b0; stroke-width: 0.8; stroke-linecap: square"/>
     </g>
     <g id="line2d_26">
      <g>
       <use xlink:href="#m517e111359" x="57.6" y="139.19208" style="stroke: #000000; stroke-width: 0.8"/>
      </g>
     </g>
     <g id="text_14">
      <!-- 4 -->
      <g transform="translate(44.2375 142.991298) scale(0.1 -0.1)">
       <defs>
        <path id="DejaVuSans-34" d="M 2419 4116 
L 825 1625 
L 2419 1625 
L 2419 4116 
z
M 2253 4666 
L 3047 4666 
L 3047 1625 
L 3713 1625 
L 3713 1100 
L 3047 1100 
L 3047 0 
L 2419 0 
L 2419 1100 
L 313 1100 
L 313 1709 
L 2253 4666 
z
" transform="scale(0.015625)"/>
       </defs>
       <use xlink:href="#DejaVuSans-34"/>
      </g>
     </g>
    </g>
    <g id="ytick_5">
     <g id="line2d_27">
      <path d="M 57.6 90.855449 
L 414.72 90.855449 
" clip-path="url(#p89a4d96a9e)" style="fill: none; stroke: #b0b0b0; stroke-width: 0.8; stroke-linecap: square"/>
     </g>
     <g id="line2d_28">
      <g>
       <use xlink:href="#m517e111359" x="57.6" y="90.855449" style="stroke: #000000; stroke-width: 0.8"/>
      </g>
     </g>
     <g id="text_15">
      <!-- 5 -->
      <g transform="translate(44.2375 94.654668) scale(0.1 -0.1)">
       <use xlink:href="#DejaVuSans-35"/>
      </g>
     </g>
    </g>
    <g id="ytick_6">
     <g id="line2d_29">
      <path d="M 57.6 42.518818 
L 414.72 42.518818 
" clip-path="url(#p89a4d96a9e)" style="fill: none; stroke: #b0b0b0; stroke-width: 0.8; stroke-linecap: square"/>
     </g>
     <g id="line2d_30">
      <g>
       <use xlink:href="#m517e111359" x="57.6" y="42.518818" style="stroke: #000000; stroke-width: 0.8"/>
      </g>
     </g>
     <g id="text_16">
      <!-- 6 -->
      <g transform="translate(44.2375 46.318037) scale(0.1 -0.1)">
       <defs>
        <path id="DejaVuSans-36" d="M 2113 2584 
Q 1688 2584 1439 2293 
Q 1191 2003 1191 1497 
Q 1191 994 1439 701 
Q 1688 409 2113 409 
Q 2538 409 2786 701 
Q 3034 994 3034 1497 
Q 3034 2003 2786 2293 
Q 2538 2584 2113 2584 
z
M 3366 4563 
L 3366 3988 
Q 3128 4100 2886 4159 
Q 2644 4219 2406 4219 
Q 1781 4219 1451 3797 
Q 1122 3375 1075 2522 
Q 1259 2794 1537 2939 
Q 1816 3084 2150 3084 
Q 2853 3084 3261 2657 
Q 3669 2231 3669 1497 
Q 3669 778 3244 343 
Q 2819 -91 2113 -91 
Q 1303 -91 875 529 
Q 447 1150 447 2328 
Q 447 3434 972 4092 
Q 1497 4750 2381 4750 
Q 2619 4750 2861 4703 
Q 3103 4656 3366 4563 
z
" transform="scale(0.015625)"/>
       </defs>
       <use xlink:href="#DejaVuSans-36"/>
      </g>
     </g>
    </g>
    <g id="text_17">
     <!-- k-distance -->
     <g transform="translate(38.157812 200.413938) rotate(-90) scale(0.1 -0.1)">
      <defs>
       <path id="DejaVuSans-6b" d="M 581 4863 
L 1159 4863 
L 1159 1991 
L 2875 3500 
L 3609 3500 
L 1753 1863 
L 3688 0 
L 2938 0 
L 1159 1709 
L 1159 0 
L 581 0 
L 581 4863 
z
" transform="scale(0.015625)"/>
       <path id="DejaVuSans-2d" d="M 313 2009 
L 1997 2009 
L 1997 1497 
L 313 1497 
L 313 2009 
z
" transform="scale(0.015625)"/>
       <path id="DejaVuSans-73" d="M 2834 3397 
L 2834 2853 
Q 2591 2978 2328 3040 
Q 2066 3103 1784 3103 
Q 1356 3103 1142 2972 
Q 928 2841 928 2578 
Q 928 2378 1081 2264 
Q 1234 2150 1697 2047 
L 1894 2003 
Q 2506 1872 2764 1633 
Q 3022 1394 3022 966 
Q 3022 478 2636 193 
Q 2250 -91 1575 -91 
Q 1294 -91 989 -36 
Q 684 19 347 128 
L 347 722 
Q 666 556 975 473 
Q 1284 391 1588 391 
Q 1994 391 2212 530 
Q 2431 669 2431 922 
Q 2431 1156 2273 1281 
Q 2116 1406 1581 1522 
L 1381 1569 
Q 847 1681 609 1914 
Q 372 2147 372 2553 
Q 372 3047 722 3315 
Q 1072 3584 1716 3584 
Q 2034 3584 2315 3537 
Q 2597 3491 2834 3397 
z
" transform="scale(0.015625)"/>
       <path id="DejaVuSans-61" d="M 2194 1759 
Q 1497 1759 1228 1600 
Q 959 1441 959 1056 
Q 959 750 1161 570 
Q 1363 391 1709 391 
Q 2188 391 2477 730 
Q 2766 1069 2766 1631 
L 2766 1759 
L 2194 1759 
z
M 3341 1997 
L 3341 0 
L 2766 0 
L 2766 531 
Q 2569 213 2275 61 
Q 1981 -91 1556 -91 
Q 1019 -91 701 211 
Q 384 513 384 1019 
Q 384 1609 779 1909 
Q 1175 2209 1959 2209 
L 2766 2209 
L 2766 2266 
Q 2766 2663 2505 2880 
Q 2244 3097 1772 3097 
Q 1472 3097 1187 3025 
Q 903 2953 641 2809 
L 641 3341 
Q 956 3463 1253 3523 
Q 1550 3584 1831 3584 
Q 2591 3584 2966 3190 
Q 3341 2797 3341 1997 
z
" transform="scale(0.015625)"/>
       <path id="DejaVuSans-63" d="M 3122 3366 
L 3122 2828 
Q 2878 2963 2633 3030 
Q 2388 3097 2138 3097 
Q 1578 3097 1268 2742 
Q 959 2388 959 1747 
Q 959 1106 1268 751 
Q 1578 397 2138 397 
Q 2388 397 2633 464 
Q 2878 531 3122 666 
L 3122 134 
Q 2881 22 2623 -34 
Q 2366 -91 2075 -91 
Q 1284 -91 818 406 
Q 353 903 353 1747 
Q 353 2603 823 3093 
Q 1294 3584 2113 3584 
Q 2378 3584 2631 3529 
Q 2884 3475 3122 3366 
z
" transform="scale(0.015625)"/>
      </defs>
      <use xlink:href="#DejaVuSans-6b"/>
      <use xlink:href="#DejaVuSans-2d" x="57.910156"/>
      <use xlink:href="#DejaVuSans-64" x="93.994141"/>
      <use xlink:href="#DejaVuSans-69" x="157.470703"/>
      <use xlink:href="#DejaVuSans-73" x="185.253906"/>
      <use xlink:href="#DejaVuSans-74" x="237.353516"/>
      <use xlink:href="#DejaVuSans-61" x="276.5625"/>
      <use xlink:href="#DejaVuSans-6e" x="337.841797"/>
      <use xlink:href="#DejaVuSans-63" x="401.220703"/>
      <use xlink:href="#DejaVuSans-65" x="456.201172"/>
     </g>
    </g>
   </g>
   <g id="line2d_31">
    <path d="M 73.832727 53.568 
L 73.995136 115.830284 
L 74.157544 134.76142 
L 74.482361 142.535703 
L 74.807178 146.756768 
L 75.131995 165.082173 
L 75.619221 171.560966 
L 75.781629 172.422357 
L 75.944037 172.429808 
L 76.106446 173.097014 
L 76.593671 176.069492 
L 76.75608 176.383771 
L 76.918488 176.401797 
L 77.080897 179.111099 
L 77.243305 179.506644 
L 77.405714 180.508571 
L 77.568122 180.680189 
L 77.892939 183.001174 
L 78.217756 184.189874 
L 78.380165 185.861525 
L 78.542573 186.307398 
L 78.86739 188.156824 
L 79.029799 188.272543 
L 79.192207 189.081469 
L 79.517024 189.290086 
L 79.841841 190.130631 
L 80.004249 191.864305 
L 80.166658 191.918022 
L 80.329066 192.244262 
L 80.9787 194.266727 
L 81.141109 194.380772 
L 81.953151 196.046014 
L 82.11556 196.550439 
L 82.277968 196.5754 
L 82.765194 198.056817 
L 82.927602 198.239657 
L 83.252419 200.278178 
L 83.577236 201.398378 
L 83.739644 201.683705 
L 84.389278 201.900081 
L 84.714095 202.597295 
L 85.038912 203.587566 
L 85.201321 203.63617 
L 85.526138 204.458028 
L 85.688546 204.738798 
L 86.013363 206.352658 
L 86.175772 207.252106 
L 86.500588 207.339537 
L 86.662997 207.788667 
L 86.825405 207.856684 
L 87.475039 209.426679 
L 87.799856 209.459344 
L 88.287082 210.047464 
L 88.611899 210.774982 
L 88.774307 210.785014 
L 88.936716 211.495941 
L 89.099124 211.539775 
L 89.911166 212.932214 
L 90.073575 212.987937 
L 90.235983 213.324636 
L 90.398392 214.053253 
L 90.723209 214.229527 
L 91.048026 214.463307 
L 91.535251 215.491439 
L 92.347294 216.230004 
L 92.996928 217.365195 
L 93.484153 217.52719 
L 93.646561 217.562526 
L 93.80897 217.842864 
L 94.133787 217.947408 
L 94.621012 219.033371 
L 94.945829 219.112091 
L 95.270646 219.79006 
L 96.245097 220.372547 
L 96.407506 220.8027 
L 98.03159 221.641543 
L 98.356407 221.954855 
L 98.518816 222.312769 
L 99.006041 222.455292 
L 99.330858 222.662766 
L 99.818084 223.079922 
L 101.117351 223.580047 
L 101.442168 223.851757 
L 102.416619 224.115516 
L 102.741436 224.235716 
L 102.903845 224.304139 
L 103.228662 224.848182 
L 103.715887 224.957248 
L 104.040704 225.07659 
L 104.203112 225.490737 
L 104.852746 225.749582 
L 105.827197 226.639557 
L 105.989606 227.141852 
L 106.314423 227.38315 
L 107.126465 228.171072 
L 107.776099 228.407962 
L 108.100916 228.652996 
L 108.263324 228.700224 
L 108.425733 229.001413 
L 108.75055 229.164192 
L 109.075367 229.318792 
L 109.400184 229.405261 
L 110.049818 229.774501 
L 111.673902 230.326281 
L 112.648353 231.232731 
L 112.810762 231.244286 
L 113.135579 231.533722 
L 113.297987 231.598228 
L 113.460396 232.017205 
L 114.11003 232.380902 
L 114.272438 232.396186 
L 114.597255 232.650374 
L 114.759663 232.66506 
L 115.08448 232.821342 
L 115.409297 232.875114 
L 115.734114 233.258961 
L 116.870974 233.619275 
L 117.033382 233.747555 
L 117.195791 234.142747 
L 117.845425 234.274033 
L 118.982284 234.838165 
L 119.956735 235.044905 
L 120.606369 235.363033 
L 120.768777 235.369872 
L 120.931186 235.652413 
L 121.743228 235.789468 
L 122.230453 236.050128 
L 123.69213 236.275266 
L 124.016947 236.608067 
L 124.991398 237.1695 
L 125.641031 237.282482 
L 126.290665 237.50221 
L 126.453074 237.76849 
L 126.940299 237.895081 
L 127.265116 238.091779 
L 128.077159 238.326985 
L 129.376426 238.994362 
L 129.863652 239.171311 
L 130.350877 239.326785 
L 130.838103 239.471438 
L 131.650145 239.584197 
L 132.462187 239.667079 
L 132.787004 239.840441 
L 133.27423 239.939201 
L 133.599047 240.021504 
L 133.923864 240.18522 
L 134.411089 240.361595 
L 135.060723 240.598989 
L 135.38554 240.813738 
L 136.035174 240.977436 
L 137.009625 241.365125 
L 137.821667 241.445082 
L 138.308893 241.577132 
L 138.796118 241.63299 
L 139.283343 241.955181 
L 140.095386 242.004018 
L 140.420203 242.169741 
L 144.318006 243.355117 
L 144.805232 243.460774 
L 145.942091 243.855077 
L 146.429316 244.223686 
L 147.241359 244.29176 
L 147.890993 244.589218 
L 148.865444 244.708816 
L 149.677486 244.912515 
L 150.002303 245.114341 
L 150.489528 245.180007 
L 150.976754 245.438316 
L 151.788796 245.857162 
L 152.276022 246.002745 
L 153.900106 246.200093 
L 154.387332 246.297521 
L 155.524191 246.454113 
L 156.173825 246.560978 
L 156.823459 246.673705 
L 156.985867 246.873277 
L 157.635501 246.976449 
L 157.79791 246.997923 
L 157.960318 247.24599 
L 160.883671 247.88116 
L 161.208488 248.024957 
L 162.182939 248.101539 
L 162.507756 248.200718 
L 163.15739 248.323718 
L 164.943883 248.713062 
L 165.431108 248.8397 
L 165.755925 249.053149 
L 166.080742 249.102938 
L 166.405559 249.26967 
L 167.217602 249.401217 
L 167.704827 249.479787 
L 168.029644 249.609579 
L 170.465771 250.066078 
L 171.277813 250.127478 
L 171.60263 250.263125 
L 172.901898 250.461078 
L 175.338025 251.125799 
L 175.987659 251.227626 
L 177.124519 251.428372 
L 177.774153 251.737353 
L 178.911012 251.87041 
L 180.047871 252.013098 
L 181.671956 252.243748 
L 182.808815 252.476322 
L 183.945675 252.585626 
L 184.4329 252.716573 
L 188.817929 253.474587 
L 190.766831 253.927514 
L 193.040549 254.421216 
L 193.527775 254.470753 
L 193.852592 254.573033 
L 197.425578 254.981189 
L 198.075212 255.137488 
L 198.562438 255.225655 
L 200.836156 255.552779 
L 202.135424 255.665347 
L 203.5971 255.806962 
L 203.921917 255.970451 
L 205.383594 256.114142 
L 206.520453 256.308043 
L 208.469355 256.57402 
L 209.768622 256.722944 
L 210.905482 256.833039 
L 212.042341 257.00421 
L 212.367158 257.074584 
L 214.803285 257.324826 
L 220.487582 258.241864 
L 221.299624 258.359628 
L 221.949258 258.489723 
L 222.274075 258.602502 
L 225.035019 258.871618 
L 225.684653 259.009718 
L 226.334287 259.075971 
L 226.659104 259.220954 
L 229.744865 259.602825 
L 230.394499 259.674975 
L 231.206541 259.729329 
L 232.505809 259.874065 
L 235.104345 260.182417 
L 235.59157 260.29818 
L 235.916387 260.379158 
L 236.566021 260.471958 
L 238.677331 260.686339 
L 239.651782 260.900507 
L 245.336079 261.689085 
L 245.985713 261.873901 
L 247.447389 262.020856 
L 248.584248 262.339029 
L 253.456503 262.961197 
L 253.78132 263.091144 
L 255.080588 263.229507 
L 256.055038 263.351867 
L 256.542264 263.4904 
L 257.679123 263.628319 
L 258.328757 263.781134 
L 260.440067 263.93032 
L 261.414518 264.076938 
L 263.688237 264.286961 
L 264.175462 264.355789 
L 265.149913 264.489803 
L 265.961956 264.600731 
L 267.58604 264.755547 
L 268.235674 264.81997 
L 269.372534 264.939166 
L 272.94552 265.305613 
L 277.16814 265.907631 
L 278.467408 266.019864 
L 281.228352 266.386897 
L 282.365212 266.550247 
L 288.536734 267.170647 
L 290.160819 267.368446 
L 292.272129 267.481011 
L 293.571397 267.606192 
L 293.896214 267.76267 
L 296.819566 268.074167 
L 297.631609 268.19897 
L 298.281242 268.288783 
L 304.777582 269.074465 
L 307.0513 269.26583 
L 309.487427 269.568787 
L 310.786695 269.729312 
L 314.684499 270.027733 
L 315.171724 270.164133 
L 316.470992 270.308252 
L 316.958217 270.521098 
L 318.257485 270.779807 
L 321.505655 271.111447 
L 324.753824 271.466051 
L 337.908911 273.102351 
L 339.370587 273.331051 
L 340.507446 273.522298 
L 347.166194 274.381425 
L 347.815828 274.489507 
L 348.303053 274.54077 
L 348.62787 274.608094 
L 349.115096 274.785342 
L 349.602321 274.883994 
L 353.175308 275.513674 
L 354.636984 275.63962 
L 355.936252 275.923578 
L 358.047562 276.168192 
L 362.107774 276.831421 
L 362.757408 277.166374 
L 363.56945 277.29084 
L 364.056676 277.480486 
L 364.543901 277.542538 
L 367.629662 278.072334 
L 368.604113 278.338106 
L 369.903381 278.456402 
L 370.553015 278.570493 
L 370.877832 278.678274 
L 372.339508 279.088332 
L 373.476367 279.661774 
L 375.587677 280.011539 
L 376.39972 280.532785 
L 376.886945 280.586392 
L 377.211762 280.771253 
L 377.698988 280.861139 
L 378.51103 281.369294 
L 378.835847 281.493502 
L 379.323072 281.660597 
L 379.647889 281.71369 
L 380.459932 282.105529 
L 380.62234 282.112125 
L 380.947157 282.293602 
L 381.434383 282.390888 
L 381.7592 282.645688 
L 382.246425 282.750042 
L 384.032918 282.90422 
L 384.520144 283.112615 
L 385.007369 283.208741 
L 385.332186 283.424218 
L 385.494595 283.432 
L 385.819412 283.575648 
L 386.469045 283.728101 
L 388.255539 284.328759 
L 388.742764 284.589198 
L 390.366849 285.116667 
L 390.691666 285.186533 
L 391.016483 285.56513 
L 391.3413 285.628962 
L 391.503708 285.84103 
L 391.666117 286.26404 
L 391.990934 286.359141 
L 392.153342 286.616731 
L 392.478159 286.680752 
L 392.640568 286.839515 
L 392.802976 287.186127 
L 393.939835 287.595489 
L 394.589469 288.120137 
L 394.751878 288.511474 
L 395.401512 288.647552 
L 395.56392 288.925578 
L 395.726329 288.926598 
L 396.863188 290.250809 
L 397.188005 290.326676 
L 397.350413 290.65874 
L 397.67523 291.829263 
L 397.837639 292.323551 
L 398.162456 295.080454 
L 398.324864 295.450581 
L 398.487273 295.488 
L 398.487273 295.488 
" clip-path="url(#p89a4d96a9e)" style="fill: none; stroke: #1f77b4; stroke-width: 1.5; stroke-linecap: square"/>
   </g>
   <g id="line2d_32">
    <path d="M 57.6 212.985151 
L 414.72 212.985151 
" clip-path="url(#p89a4d96a9e)" style="fill: none; stroke-dasharray: 5.55,2.4; stroke-dashoffset: 0; stroke: #ff0000; stroke-width: 1.5"/>
   </g>
   <g id="patch_3">
    <path d="M 57.6 307.584 
L 57.6 41.472 
" style="fill: none; stroke: #000000; stroke-width: 0.8; stroke-linejoin: miter; stroke-linecap: square"/>
   </g>
   <g id="patch_4">
    <path d="M 414.72 307.584 
L 414.72 41.472 
" style="fill: none; stroke: #000000; stroke-width: 0.8; stroke-linejoin: miter; stroke-linecap: square"/>
   </g>
   <g id="patch_5">
    <path d="M 57.6 307.584 
L 414.72 307.584 
" style="fill: none; stroke: #000000; stroke-width: 0.8; stroke-linejoin: miter; stroke-linecap: square"/>
   </g>
   <g id="patch_6">
    <path d="M 57.6 41.472 
L 414.72 41.472 
" style="fill: none; stroke: #000000; stroke-width: 0.8; stroke-linejoin: miter; stroke-linecap: square"/>
   </g>
   <g id="legend_1">
    <g id="patch_7">
     <path d="M 320.52 64.150125 
L 407.72 64.150125 
Q 409.72 64.150125 409.72 62.150125 
L 409.72 48.472 
Q 409.72 46.472 407.72 46.472 
L 320.52 46.472 
Q 318.52 46.472 318.52 48.472 
L 318.52 62.150125 
Q 318.52 64.150125 320.52 64.150125 
z
" style="fill: #ffffff; opacity: 0.8; stroke: #cccccc; stroke-linejoin: miter"/>
    </g>
    <g id="line2d_33">
     <path d="M 322.52 54.570438 
L 332.52 54.570438 
L 342.52 54.570438 
" style="fill: none; stroke-dasharray: 5.55,2.4; stroke-dashoffset: 0; stroke: #ff0000; stroke-width: 1.5"/>
    </g>
    <g id="text_18">
     <!-- $\epsilon$ = 2.4734 -->
     <g transform="translate(350.52 58.070438) scale(0.1 -0.1)">
      <defs>
       <path id="DejaVuSans-Oblique-3b5" d="M 1263 1888 
Q 925 1963 778 2166 
Q 669 2309 669 2503 
Q 669 3034 1175 3344 
Q 1575 3588 2188 3588 
Q 2425 3588 2684 3550 
Q 2944 3513 3234 3438 
L 3134 2916 
Q 2847 3006 2606 3047 
Q 2359 3088 2138 3088 
Q 1766 3088 1522 2944 
Q 1228 2772 1228 2522 
Q 1228 2356 1381 2241 
Q 1563 2103 1925 2103 
L 2409 2103 
L 2319 1628 
L 1856 1628 
Q 1425 1628 1172 1469 
Q 828 1253 828 916 
Q 828 703 1013 563 
Q 1244 388 1716 388 
Q 2006 388 2284 444 
Q 2563 503 2806 619 
L 2700 84 
Q 2403 -3 2131 -47 
Q 1859 -91 1609 -91 
Q 866 -91 516 194 
Q 250 413 250 781 
Q 250 1278 600 1584 
Q 859 1813 1263 1888 
z
" transform="scale(0.015625)"/>
       <path id="DejaVuSans-3d" d="M 678 2906 
L 4684 2906 
L 4684 2381 
L 678 2381 
L 678 2906 
z
M 678 1631 
L 4684 1631 
L 4684 1100 
L 678 1100 
L 678 1631 
z
" transform="scale(0.015625)"/>
       <path id="DejaVuSans-2e" d="M 684 794 
L 1344 794 
L 1344 0 
L 684 0 
L 684 794 
z
" transform="scale(0.015625)"/>
      </defs>
      <use xlink:href="#DejaVuSans-Oblique-3b5" transform="translate(0 0.78125)"/>
      <use xlink:href="#DejaVuSans-20" transform="translate(54.052734 0.78125)"/>
      <use xlink:href="#DejaVuSans-3d" transform="translate(85.839844 0.78125)"/>
      <use xlink:href="#DejaVuSans-20" transform="translate(169.628906 0.78125)"/>
      <use xlink:href="#DejaVuSans-32" transform="translate(201.416016 0.78125)"/>
      <use xlink:href="#DejaVuSans-2e" transform="translate(265.039062 0.78125)"/>
      <use xlink:href="#DejaVuSans-34" transform="translate(296.826172 0.78125)"/>
      <use xlink:href="#DejaVuSans-37" transform="translate(360.449219 0.78125)"/>
      <use xlink:href="#DejaVuSans-33" transform="translate(424.072266 0.78125)"/>
      <use xlink:href="#DejaVuSans-34" transform="translate(487.695312 0.78125)"/>
     </g>
    </g>
   </g>
  </g>
 </g>
 <defs>
  <clipPath id="p89a4d96a9e">
   <rect x="57.6" y="41.472" width="357.12" height="266.112"/>
  </clipPath>
 </defs>
</svg>
