<?xml version="1.0" encoding="utf-8" standalone="no"?>
<!DOCTYPE svg PUBLIC "-//W3C//DTD SVG 1.1//EN"
  "http://www.w3.org/Graphics/SVG/1.1/DTD/svg11.dtd">
<svg xmlns:xlink="http://www.w3.org/1999/xlink" width="460.8pt" height="345.6pt" viewBox="0 0 460.8 345.6" xmlns="http://www.w3.org/2000/svg" version="1.1">
 <metadata>
  <rdf:RDF xmlns:dc="http://purl.org/dc/elements/1.1/" xmlns:cc="http://creativecommons.org/ns#" xmlns:rdf="http://www.w3.org/1999/02/22-rdf-syntax-ns#">
   <cc:Work>
    <dc:type rdf:resource="http://purl.org/dc/dcmitype/StillImage"/>
    <dc:date>2025-04-18T16:55:11.482353</dc:date>
    <dc:format>image/svg+xml</dc:format>
    <dc:creator>
     <cc:Agent>
      <dc:title>Matplotlib v3.9.4, https://matplotlib.org/</dc:title>
     </cc:Agent>
    </dc:creator>
   </cc:Work>
  </rdf:RDF>
 </metadata>
 <defs>
  <style type="text/css">*{stroke-linejoin: round; stroke-linecap: butt}</style>
 </defs>
 <g id="figure_1">
  <g id="patch_1">
   <path d="M 0 345.6 
L 460.8 345.6 
L 460.8 0 
L 0 0 
z
" style="fill: #ffffff"/>
  </g>
  <g id="axes_1">
   <g id="patch_2">
    <path d="M 57.6 307.584 
L 414.72 307.584 
L 414.72 41.472 
L 57.6 41.472 
z
" style="fill: #ffffff"/>
   </g>
   <g id="PathCollection_1">
    <defs>
     <path id="m8702ee64cd" d="M 0 0.5 
C 0.132602 0.5 0.25979 0.447317 0.353553 0.353553 
C 0.447317 0.25979 0.5 0.132602 0.5 0 
C 0.5 -0.132602 0.447317 -0.25979 0.353553 -0.353553 
C 0.25979 -0.447317 0.132602 -0.5 0 -0.5 
C -0.132602 -0.5 -0.25979 -0.447317 -0.353553 -0.353553 
C -0.447317 -0.25979 -0.5 -0.132602 -0.5 0 
C -0.5 0.132602 -0.447317 0.25979 -0.353553 0.353553 
C -0.25979 0.447317 -0.132602 0.5 0 0.5 
z
" style="stroke: #000000"/>
    </defs>
    <g clip-path="url(#pe47f4d4c7e)">
     <use xlink:href="#m8702ee64cd" x="164.358786" y="228.031485" style="stroke: #000000"/>
     <use xlink:href="#m8702ee64cd" x="164.358786" y="205.977342" style="stroke: #000000"/>
     <use xlink:href="#m8702ee64cd" x="164.358786" y="190.386491" style="stroke: #000000"/>
     <use xlink:href="#m8702ee64cd" x="164.358786" y="177.291146" style="stroke: #000000"/>
     <use xlink:href="#m8702ee64cd" x="164.358786" y="165.301732" style="stroke: #000000"/>
     <use xlink:href="#m8702ee64cd" x="164.358786" y="153.63439" style="stroke: #000000"/>
     <use xlink:href="#m8702ee64cd" x="164.358786" y="141.644975" style="stroke: #000000"/>
     <use xlink:href="#m8702ee64cd" x="164.358786" y="128.549635" style="stroke: #000000"/>
     <use xlink:href="#m8702ee64cd" x="164.358786" y="112.95878" style="stroke: #000000"/>
     <use xlink:href="#m8702ee64cd" x="164.358786" y="90.904637" style="stroke: #000000"/>
     <use xlink:href="#m8702ee64cd" x="193.955255" y="228.031485" style="stroke: #000000"/>
     <use xlink:href="#m8702ee64cd" x="193.955255" y="205.977342" style="stroke: #000000"/>
     <use xlink:href="#m8702ee64cd" x="193.955255" y="190.386491" style="stroke: #000000"/>
     <use xlink:href="#m8702ee64cd" x="193.955255" y="177.291146" style="stroke: #000000"/>
     <use xlink:href="#m8702ee64cd" x="193.955255" y="165.301732" style="stroke: #000000"/>
     <use xlink:href="#m8702ee64cd" x="193.955255" y="153.63439" style="stroke: #000000"/>
     <use xlink:href="#m8702ee64cd" x="193.955255" y="141.644975" style="stroke: #000000"/>
     <use xlink:href="#m8702ee64cd" x="193.955255" y="128.549635" style="stroke: #000000"/>
     <use xlink:href="#m8702ee64cd" x="193.955255" y="112.95878" style="stroke: #000000"/>
     <use xlink:href="#m8702ee64cd" x="193.955255" y="90.904637" style="stroke: #000000"/>
     <use xlink:href="#m8702ee64cd" x="214.878043" y="228.031485" style="stroke: #000000"/>
     <use xlink:href="#m8702ee64cd" x="214.878043" y="205.977342" style="stroke: #000000"/>
     <use xlink:href="#m8702ee64cd" x="214.878043" y="190.386491" style="stroke: #000000"/>
     <use xlink:href="#m8702ee64cd" x="214.878043" y="177.291146" style="stroke: #000000"/>
     <use xlink:href="#m8702ee64cd" x="214.878043" y="165.301732" style="stroke: #000000"/>
     <use xlink:href="#m8702ee64cd" x="214.878043" y="153.63439" style="stroke: #000000"/>
     <use xlink:href="#m8702ee64cd" x="214.878043" y="141.644975" style="stroke: #000000"/>
     <use xlink:href="#m8702ee64cd" x="214.878043" y="128.549635" style="stroke: #000000"/>
     <use xlink:href="#m8702ee64cd" x="214.878043" y="112.95878" style="stroke: #000000"/>
     <use xlink:href="#m8702ee64cd" x="214.878043" y="90.904637" style="stroke: #000000"/>
     <use xlink:href="#m8702ee64cd" x="232.451882" y="228.031485" style="stroke: #000000"/>
     <use xlink:href="#m8702ee64cd" x="232.451882" y="205.977342" style="stroke: #000000"/>
     <use xlink:href="#m8702ee64cd" x="232.451882" y="190.386491" style="stroke: #000000"/>
     <use xlink:href="#m8702ee64cd" x="232.451882" y="177.291146" style="stroke: #000000"/>
     <use xlink:href="#m8702ee64cd" x="232.451882" y="165.301732" style="stroke: #000000"/>
     <use xlink:href="#m8702ee64cd" x="232.451882" y="153.63439" style="stroke: #000000"/>
     <use xlink:href="#m8702ee64cd" x="232.451882" y="141.644975" style="stroke: #000000"/>
     <use xlink:href="#m8702ee64cd" x="232.451882" y="128.549635" style="stroke: #000000"/>
     <use xlink:href="#m8702ee64cd" x="232.451882" y="112.95878" style="stroke: #000000"/>
     <use xlink:href="#m8702ee64cd" x="232.451882" y="90.904637" style="stroke: #000000"/>
     <use xlink:href="#m8702ee64cd" x="248.541572" y="228.031485" style="stroke: #000000"/>
     <use xlink:href="#m8702ee64cd" x="248.541572" y="205.977342" style="stroke: #000000"/>
     <use xlink:href="#m8702ee64cd" x="248.541572" y="190.386491" style="stroke: #000000"/>
     <use xlink:href="#m8702ee64cd" x="248.541572" y="177.291146" style="stroke: #000000"/>
     <use xlink:href="#m8702ee64cd" x="248.541572" y="165.301732" style="stroke: #000000"/>
     <use xlink:href="#m8702ee64cd" x="248.541572" y="153.63439" style="stroke: #000000"/>
     <use xlink:href="#m8702ee64cd" x="248.541572" y="141.644975" style="stroke: #000000"/>
     <use xlink:href="#m8702ee64cd" x="248.541572" y="128.549635" style="stroke: #000000"/>
     <use xlink:href="#m8702ee64cd" x="248.541572" y="112.95878" style="stroke: #000000"/>
     <use xlink:href="#m8702ee64cd" x="248.541572" y="90.904637" style="stroke: #000000"/>
     <use xlink:href="#m8702ee64cd" x="264.199043" y="228.031485" style="stroke: #000000"/>
     <use xlink:href="#m8702ee64cd" x="264.199043" y="205.977342" style="stroke: #000000"/>
     <use xlink:href="#m8702ee64cd" x="264.199043" y="190.386491" style="stroke: #000000"/>
     <use xlink:href="#m8702ee64cd" x="264.199043" y="177.291146" style="stroke: #000000"/>
     <use xlink:href="#m8702ee64cd" x="264.199043" y="165.301732" style="stroke: #000000"/>
     <use xlink:href="#m8702ee64cd" x="264.199043" y="153.63439" style="stroke: #000000"/>
     <use xlink:href="#m8702ee64cd" x="264.199043" y="141.644975" style="stroke: #000000"/>
     <use xlink:href="#m8702ee64cd" x="264.199043" y="128.549635" style="stroke: #000000"/>
     <use xlink:href="#m8702ee64cd" x="264.199043" y="112.95878" style="stroke: #000000"/>
     <use xlink:href="#m8702ee64cd" x="264.199043" y="90.904637" style="stroke: #000000"/>
     <use xlink:href="#m8702ee64cd" x="280.288735" y="228.031485" style="stroke: #000000"/>
     <use xlink:href="#m8702ee64cd" x="280.288735" y="205.977342" style="stroke: #000000"/>
     <use xlink:href="#m8702ee64cd" x="280.288735" y="190.386491" style="stroke: #000000"/>
     <use xlink:href="#m8702ee64cd" x="280.288735" y="177.291146" style="stroke: #000000"/>
     <use xlink:href="#m8702ee64cd" x="280.288735" y="165.301732" style="stroke: #000000"/>
     <use xlink:href="#m8702ee64cd" x="280.288735" y="153.63439" style="stroke: #000000"/>
     <use xlink:href="#m8702ee64cd" x="280.288735" y="141.644975" style="stroke: #000000"/>
     <use xlink:href="#m8702ee64cd" x="280.288735" y="128.549635" style="stroke: #000000"/>
     <use xlink:href="#m8702ee64cd" x="280.288735" y="112.95878" style="stroke: #000000"/>
     <use xlink:href="#m8702ee64cd" x="280.288735" y="90.904637" style="stroke: #000000"/>
     <use xlink:href="#m8702ee64cd" x="297.862568" y="228.031485" style="stroke: #000000"/>
     <use xlink:href="#m8702ee64cd" x="297.862568" y="205.977342" style="stroke: #000000"/>
     <use xlink:href="#m8702ee64cd" x="297.862568" y="190.386491" style="stroke: #000000"/>
     <use xlink:href="#m8702ee64cd" x="297.862568" y="177.291146" style="stroke: #000000"/>
     <use xlink:href="#m8702ee64cd" x="297.862568" y="165.301732" style="stroke: #000000"/>
     <use xlink:href="#m8702ee64cd" x="297.862568" y="153.63439" style="stroke: #000000"/>
     <use xlink:href="#m8702ee64cd" x="297.862568" y="141.644975" style="stroke: #000000"/>
     <use xlink:href="#m8702ee64cd" x="297.862568" y="128.549635" style="stroke: #000000"/>
     <use xlink:href="#m8702ee64cd" x="297.862568" y="112.95878" style="stroke: #000000"/>
     <use xlink:href="#m8702ee64cd" x="297.862568" y="90.904637" style="stroke: #000000"/>
     <use xlink:href="#m8702ee64cd" x="318.78536" y="228.031485" style="stroke: #000000"/>
     <use xlink:href="#m8702ee64cd" x="318.78536" y="205.977342" style="stroke: #000000"/>
     <use xlink:href="#m8702ee64cd" x="318.78536" y="190.386491" style="stroke: #000000"/>
     <use xlink:href="#m8702ee64cd" x="318.78536" y="177.291146" style="stroke: #000000"/>
     <use xlink:href="#m8702ee64cd" x="318.78536" y="165.301732" style="stroke: #000000"/>
     <use xlink:href="#m8702ee64cd" x="318.78536" y="153.63439" style="stroke: #000000"/>
     <use xlink:href="#m8702ee64cd" x="318.78536" y="141.644975" style="stroke: #000000"/>
     <use xlink:href="#m8702ee64cd" x="318.78536" y="128.549635" style="stroke: #000000"/>
     <use xlink:href="#m8702ee64cd" x="318.78536" y="112.95878" style="stroke: #000000"/>
     <use xlink:href="#m8702ee64cd" x="318.78536" y="90.904637" style="stroke: #000000"/>
     <use xlink:href="#m8702ee64cd" x="348.381829" y="228.031485" style="stroke: #000000"/>
     <use xlink:href="#m8702ee64cd" x="348.381829" y="205.977342" style="stroke: #000000"/>
     <use xlink:href="#m8702ee64cd" x="348.381829" y="190.386491" style="stroke: #000000"/>
     <use xlink:href="#m8702ee64cd" x="348.381829" y="177.291146" style="stroke: #000000"/>
     <use xlink:href="#m8702ee64cd" x="348.381829" y="165.301732" style="stroke: #000000"/>
     <use xlink:href="#m8702ee64cd" x="348.381829" y="153.63439" style="stroke: #000000"/>
     <use xlink:href="#m8702ee64cd" x="348.381829" y="141.644975" style="stroke: #000000"/>
     <use xlink:href="#m8702ee64cd" x="348.381829" y="128.549635" style="stroke: #000000"/>
     <use xlink:href="#m8702ee64cd" x="348.381829" y="112.95878" style="stroke: #000000"/>
     <use xlink:href="#m8702ee64cd" x="348.381829" y="90.904637" style="stroke: #000000"/>
    </g>
   </g>
   <g id="PathCollection_2">
    <path d="M 164.358786 231.541982 
C 165.289781 231.541982 166.18277 231.172094 166.841082 230.513781 
C 167.499395 229.855469 167.869283 228.96248 167.869283 228.031485 
C 167.869283 227.100491 167.499395 226.207502 166.841082 225.549189 
C 166.18277 224.890876 165.289781 224.520988 164.358786 224.520988 
C 163.427791 224.520988 162.534803 224.890876 161.87649 225.549189 
C 161.218177 226.207502 160.848289 227.100491 160.848289 228.031485 
C 160.848289 228.96248 161.218177 229.855469 161.87649 230.513781 
C 162.534803 231.172094 163.427791 231.541982 164.358786 231.541982 
z
" clip-path="url(#pe47f4d4c7e)" style="fill: #ff0000; fill-opacity: 0.6; stroke: #ff0000; stroke-opacity: 0.6"/>
    <path d="M 164.358786 208.705998 
C 165.082434 208.705998 165.776541 208.41849 166.288237 207.906793 
C 166.799934 207.395097 167.087442 206.70099 167.087442 205.977342 
C 167.087442 205.253694 166.799934 204.559587 166.288237 204.047891 
C 165.776541 203.536194 165.082434 203.248686 164.358786 203.248686 
C 163.635138 203.248686 162.941031 203.536194 162.429335 204.047891 
C 161.917638 204.559587 161.63013 205.253694 161.63013 205.977342 
C 161.63013 206.70099 161.917638 207.395097 162.429335 207.906793 
C 162.941031 208.41849 163.635138 208.705998 164.358786 208.705998 
z
" clip-path="url(#pe47f4d4c7e)" style="fill: #ff0000; fill-opacity: 0.6; stroke: #ff0000; stroke-opacity: 0.6"/>
    <path d="M 164.358786 192.705949 
C 164.973914 192.705949 165.56393 192.461556 165.998891 192.026595 
C 166.433851 191.591635 166.678244 191.001618 166.678244 190.386491 
C 166.678244 189.771363 166.433851 189.181347 165.998891 188.746386 
C 165.56393 188.311426 164.973914 188.067033 164.358786 188.067033 
C 163.743659 188.067033 163.153642 188.311426 162.718682 188.746386 
C 162.283721 189.181347 162.039328 189.771363 162.039328 190.386491 
C 162.039328 191.001618 162.283721 191.591635 162.718682 192.026595 
C 163.153642 192.461556 163.743659 192.705949 164.358786 192.705949 
z
" clip-path="url(#pe47f4d4c7e)" style="fill: #ff0000; fill-opacity: 0.6; stroke: #ff0000; stroke-opacity: 0.6"/>
    <path d="M 164.358786 179.242462 
C 164.876281 179.242462 165.372651 179.036859 165.738575 178.670935 
C 166.104499 178.30501 166.310102 177.808641 166.310102 177.291146 
C 166.310102 176.773651 166.104499 176.277281 165.738575 175.911357 
C 165.372651 175.545432 164.876281 175.339829 164.358786 175.339829 
C 163.841291 175.339829 163.344921 175.545432 162.978997 175.911357 
C 162.613073 176.277281 162.40747 176.773651 162.40747 177.291146 
C 162.40747 177.808641 162.613073 178.30501 162.978997 178.670935 
C 163.344921 179.036859 163.841291 179.242462 164.358786 179.242462 
z
" clip-path="url(#pe47f4d4c7e)" style="fill: #ff0000; fill-opacity: 0.6; stroke: #ff0000; stroke-opacity: 0.6"/>
    <path d="M 164.358786 166.91457 
C 164.786516 166.91457 165.196784 166.744631 165.499235 166.442181 
C 165.801685 166.13973 165.971624 165.729462 165.971624 165.301732 
C 165.971624 164.874002 165.801685 164.463734 165.499235 164.161283 
C 165.196784 163.858833 164.786516 163.688894 164.358786 163.688894 
C 163.931056 163.688894 163.520788 163.858833 163.218337 164.161283 
C 162.915887 164.463734 162.745948 164.874002 162.745948 165.301732 
C 162.745948 165.729462 162.915887 166.13973 163.218337 166.442181 
C 163.520788 166.744631 163.931056 166.91457 164.358786 166.91457 
z
" clip-path="url(#pe47f4d4c7e)" style="fill: #ff0000; fill-opacity: 0.6; stroke: #ff0000; stroke-opacity: 0.6"/>
    <path d="M 164.358786 154.93345 
C 164.703301 154.93345 165.033751 154.796572 165.27736 154.552964 
C 165.520968 154.309355 165.657845 153.978905 165.657845 153.63439 
C 165.657845 153.289876 165.520968 152.959425 165.27736 152.715817 
C 165.033751 152.472208 164.703301 152.335331 164.358786 152.335331 
C 164.014272 152.335331 163.683821 152.472208 163.440213 152.715817 
C 163.196604 152.959425 163.059727 153.289876 163.059727 153.63439 
C 163.059727 153.978905 163.196604 154.309355 163.440213 154.552964 
C 163.683821 154.796572 164.014272 154.93345 164.358786 154.93345 
z
" clip-path="url(#pe47f4d4c7e)" style="fill: #ff0000; fill-opacity: 0.6; stroke: #ff0000; stroke-opacity: 0.6"/>
    <path d="M 164.358786 142.650296 
C 164.6254 142.650296 164.881131 142.544369 165.069655 142.355844 
C 165.25818 142.167319 165.364107 141.911589 165.364107 141.644975 
C 165.364107 141.378361 165.25818 141.122631 165.069655 140.934106 
C 164.881131 140.745581 164.6254 140.639654 164.358786 140.639654 
C 164.092172 140.639654 163.836442 140.745581 163.647917 140.934106 
C 163.459392 141.122631 163.353465 141.378361 163.353465 141.644975 
C 163.353465 141.911589 163.459392 142.167319 163.647917 142.355844 
C 163.836442 142.544369 164.092172 142.650296 164.358786 142.650296 
z
" clip-path="url(#pe47f4d4c7e)" style="fill: #ff0000; fill-opacity: 0.6; stroke: #ff0000; stroke-opacity: 0.6"/>
    <path d="M 164.358786 129.276094 
C 164.551445 129.276094 164.736239 129.199549 164.87247 129.063319 
C 165.0087 128.927088 165.085245 128.742294 165.085245 128.549635 
C 165.085245 128.356976 165.0087 128.172182 164.87247 128.035951 
C 164.736239 127.899721 164.551445 127.823177 164.358786 127.823177 
C 164.166127 127.823177 163.981333 127.899721 163.845102 128.035951 
C 163.708872 128.172182 163.632328 128.356976 163.632328 128.549635 
C 163.632328 128.742294 163.708872 128.927088 163.845102 129.063319 
C 163.981333 129.199549 164.166127 129.276094 164.358786 129.276094 
z
" clip-path="url(#pe47f4d4c7e)" style="fill: #ff0000; fill-opacity: 0.6; stroke: #ff0000; stroke-opacity: 0.6"/>
    <path d="M 164.358786 113.412931 
C 164.479228 113.412931 164.594754 113.365079 164.679919 113.279913 
C 164.765085 113.194748 164.812937 113.079223 164.812937 112.95878 
C 164.812937 112.838338 164.765085 112.722813 164.679919 112.637647 
C 164.594754 112.552482 164.479228 112.50463 164.358786 112.50463 
C 164.238344 112.50463 164.122818 112.552482 164.037653 112.637647 
C 163.952487 112.722813 163.904635 112.838338 163.904635 112.95878 
C 163.904635 113.079223 163.952487 113.194748 164.037653 113.279913 
C 164.122818 113.365079 164.238344 113.412931 164.358786 113.412931 
z
" clip-path="url(#pe47f4d4c7e)" style="fill: #ff0000; fill-opacity: 0.6; stroke: #ff0000; stroke-opacity: 0.6"/>
    <path d="M 164.358786 91.045285 
C 164.396086 91.045285 164.431864 91.030466 164.458239 91.00409 
C 164.484614 90.977715 164.499434 90.941937 164.499434 90.904637 
C 164.499434 90.867337 164.484614 90.831559 164.458239 90.805184 
C 164.431864 90.778809 164.396086 90.763989 164.358786 90.763989 
C 164.321486 90.763989 164.285708 90.778809 164.259333 90.805184 
C 164.232958 90.831559 164.218138 90.867337 164.218138 90.904637 
C 164.218138 90.941937 164.232958 90.977715 164.259333 91.00409 
C 164.285708 91.030466 164.321486 91.045285 164.358786 91.045285 
z
" clip-path="url(#pe47f4d4c7e)" style="fill: #ff0000; fill-opacity: 0.6; stroke: #ff0000; stroke-opacity: 0.6"/>
    <path d="M 193.955255 230.760142 
C 194.678903 230.760142 195.37301 230.472633 195.884707 229.960937 
C 196.396403 229.44924 196.683912 228.755133 196.683912 228.031485 
C 196.683912 227.307837 196.396403 226.61373 195.884707 226.102034 
C 195.37301 225.590337 194.678903 225.302829 193.955255 225.302829 
C 193.231607 225.302829 192.5375 225.590337 192.025804 226.102034 
C 191.514107 226.61373 191.226599 227.307837 191.226599 228.031485 
C 191.226599 228.755133 191.514107 229.44924 192.025804 229.960937 
C 192.5375 230.472633 193.231607 230.760142 193.955255 230.760142 
z
" clip-path="url(#pe47f4d4c7e)" style="fill: #ff0000; fill-opacity: 0.6; stroke: #ff0000; stroke-opacity: 0.6"/>
    <path d="M 193.955255 208.096657 
C 194.517304 208.096657 195.056409 207.873353 195.453838 207.475924 
C 195.851266 207.078496 196.074571 206.539391 196.074571 205.977342 
C 196.074571 205.415293 195.851266 204.876188 195.453838 204.47876 
C 195.056409 204.081331 194.517304 203.858027 193.955255 203.858027 
C 193.393206 203.858027 192.854102 204.081331 192.456673 204.47876 
C 192.059244 204.876188 191.83594 205.415293 191.83594 205.977342 
C 191.83594 206.539391 192.059244 207.078496 192.456673 207.475924 
C 192.854102 207.873353 193.393206 208.096657 193.955255 208.096657 
z
" clip-path="url(#pe47f4d4c7e)" style="fill: #ff0000; fill-opacity: 0.6; stroke: #ff0000; stroke-opacity: 0.6"/>
    <path d="M 193.955255 192.186648 
C 194.432663 192.186648 194.890581 191.996972 195.228159 191.659394 
C 195.565737 191.321816 195.755413 190.863898 195.755413 190.386491 
C 195.755413 189.909084 195.565737 189.451165 195.228159 189.113587 
C 194.890581 188.776009 194.432663 188.586334 193.955255 188.586334 
C 193.477848 188.586334 193.01993 188.776009 192.682352 189.113587 
C 192.344774 189.451165 192.155098 189.909084 192.155098 190.386491 
C 192.155098 190.863898 192.344774 191.321816 192.682352 191.659394 
C 193.01993 191.996972 193.477848 192.186648 193.955255 192.186648 
z
" clip-path="url(#pe47f4d4c7e)" style="fill: #ff0000; fill-opacity: 0.6; stroke: #ff0000; stroke-opacity: 0.6"/>
    <path d="M 193.955255 178.803923 
C 194.356449 178.803923 194.741264 178.644528 195.024951 178.360841 
C 195.308637 178.077154 195.468033 177.692339 195.468033 177.291146 
C 195.468033 176.889952 195.308637 176.505137 195.024951 176.22145 
C 194.741264 175.937764 194.356449 175.778368 193.955255 175.778368 
C 193.554062 175.778368 193.169246 175.937764 192.88556 176.22145 
C 192.601873 176.505137 192.442478 176.889952 192.442478 177.291146 
C 192.442478 177.692339 192.601873 178.077154 192.88556 178.360841 
C 193.169246 178.644528 193.554062 178.803923 193.955255 178.803923 
z
" clip-path="url(#pe47f4d4c7e)" style="fill: #ff0000; fill-opacity: 0.6; stroke: #ff0000; stroke-opacity: 0.6"/>
    <path d="M 193.955255 166.550008 
C 194.286302 166.550008 194.603834 166.418482 194.83792 166.184397 
C 195.072005 165.950311 195.203532 165.632779 195.203532 165.301732 
C 195.203532 164.970685 195.072005 164.653153 194.83792 164.419067 
C 194.603834 164.184982 194.286302 164.053456 193.955255 164.053456 
C 193.624208 164.053456 193.306676 164.184982 193.072591 164.419067 
C 192.838505 164.653153 192.706979 164.970685 192.706979 165.301732 
C 192.706979 165.632779 192.838505 165.950311 193.072591 166.184397 
C 193.306676 166.418482 193.624208 166.550008 193.955255 166.550008 
z
" clip-path="url(#pe47f4d4c7e)" style="fill: #ff0000; fill-opacity: 0.6; stroke: #ff0000; stroke-opacity: 0.6"/>
    <path d="M 193.955255 154.637147 
C 194.221189 154.637147 194.476267 154.53149 194.664311 154.343447 
C 194.852355 154.155403 194.958012 153.900325 194.958012 153.63439 
C 194.958012 153.368456 194.852355 153.113378 194.664311 152.925334 
C 194.476267 152.73729 194.221189 152.631634 193.955255 152.631634 
C 193.689321 152.631634 193.434243 152.73729 193.246199 152.925334 
C 193.058155 153.113378 192.952498 153.368456 192.952498 153.63439 
C 192.952498 153.900325 193.058155 154.155403 193.246199 154.343447 
C 193.434243 154.53149 193.689321 154.637147 193.955255 154.637147 
z
" clip-path="url(#pe47f4d4c7e)" style="fill: #ff0000; fill-opacity: 0.6; stroke: #ff0000; stroke-opacity: 0.6"/>
    <path d="M 193.955255 142.417575 
C 194.160151 142.417575 194.356683 142.336169 194.501566 142.191286 
C 194.646449 142.046402 194.727855 141.849871 194.727855 141.644975 
C 194.727855 141.440079 194.646449 141.243548 194.501566 141.098664 
C 194.356683 140.953781 194.160151 140.872375 193.955255 140.872375 
C 193.750359 140.872375 193.553828 140.953781 193.408945 141.098664 
C 193.264061 141.243548 193.182655 141.440079 193.182655 141.644975 
C 193.182655 141.849871 193.264061 142.046402 193.408945 142.191286 
C 193.553828 142.336169 193.750359 142.417575 193.955255 142.417575 
z
" clip-path="url(#pe47f4d4c7e)" style="fill: #ff0000; fill-opacity: 0.6; stroke: #ff0000; stroke-opacity: 0.6"/>
    <path d="M 193.955255 129.103336 
C 194.102098 129.103336 194.242947 129.044995 194.346781 128.941161 
C 194.450615 128.837327 194.508956 128.696478 194.508956 128.549635 
C 194.508956 128.402792 194.450615 128.261943 194.346781 128.158109 
C 194.242947 128.054275 194.102098 127.995934 193.955255 127.995934 
C 193.808412 127.995934 193.667563 128.054275 193.563729 128.158109 
C 193.459896 128.261943 193.401554 128.402792 193.401554 128.549635 
C 193.401554 128.696478 193.459896 128.837327 193.563729 128.941161 
C 193.667563 129.044995 193.808412 129.103336 193.955255 129.103336 
z
" clip-path="url(#pe47f4d4c7e)" style="fill: #ff0000; fill-opacity: 0.6; stroke: #ff0000; stroke-opacity: 0.6"/>
    <path d="M 193.955255 113.296444 
C 194.044805 113.296444 194.130698 113.260866 194.194019 113.197545 
C 194.25734 113.134224 194.292919 113.04833 194.292919 112.95878 
C 194.292919 112.869231 194.25734 112.783337 194.194019 112.720016 
C 194.130698 112.656695 194.044805 112.621117 193.955255 112.621117 
C 193.865706 112.621117 193.779812 112.656695 193.716491 112.720016 
C 193.65317 112.783337 193.617592 112.869231 193.617592 112.95878 
C 193.617592 113.04833 193.65317 113.134224 193.716491 113.197545 
C 193.779812 113.260866 193.865706 113.296444 193.955255 113.296444 
z
" clip-path="url(#pe47f4d4c7e)" style="fill: #ff0000; fill-opacity: 0.6; stroke: #ff0000; stroke-opacity: 0.6"/>
    <path d="M 193.955255 90.904637 
C 193.955255 90.904637 193.955255 90.904637 193.955255 90.904637 
C 193.955255 90.904637 193.955255 90.904637 193.955255 90.904637 
C 193.955255 90.904637 193.955255 90.904637 193.955255 90.904637 
C 193.955255 90.904637 193.955255 90.904637 193.955255 90.904637 
C 193.955255 90.904637 193.955255 90.904637 193.955255 90.904637 
C 193.955255 90.904637 193.955255 90.904637 193.955255 90.904637 
C 193.955255 90.904637 193.955255 90.904637 193.955255 90.904637 
C 193.955255 90.904637 193.955255 90.904637 193.955255 90.904637 
z
" clip-path="url(#pe47f4d4c7e)" style="fill: #ff0000; fill-opacity: 0.6; stroke: #ff0000; stroke-opacity: 0.6"/>
    <path d="M 214.878043 230.350943 
C 215.49317 230.350943 216.083186 230.106551 216.518147 229.67159 
C 216.953108 229.236629 217.197501 228.646613 217.197501 228.031485 
C 217.197501 227.416358 216.953108 226.826342 216.518147 226.391381 
C 216.083186 225.95642 215.49317 225.712027 214.878043 225.712027 
C 214.262915 225.712027 213.672899 225.95642 213.237938 226.391381 
C 212.802977 226.826342 212.558585 227.416358 212.558585 228.031485 
C 212.558585 228.646613 212.802977 229.236629 213.237938 229.67159 
C 213.672899 230.106551 214.262915 230.350943 214.878043 230.350943 
z
" clip-path="url(#pe47f4d4c7e)" style="fill: #ff0000; fill-opacity: 0.6; stroke: #ff0000; stroke-opacity: 0.6"/>
    <path d="M 214.878043 207.777499 
C 215.35545 207.777499 215.813368 207.587823 216.150946 207.250246 
C 216.488524 206.912668 216.6782 206.454749 216.6782 205.977342 
C 216.6782 205.499935 216.488524 205.042017 216.150946 204.704439 
C 215.813368 204.366861 215.35545 204.177185 214.878043 204.177185 
C 214.400635 204.177185 213.942717 204.366861 213.605139 204.704439 
C 213.267561 205.042017 213.077885 205.499935 213.077885 205.977342 
C 213.077885 206.454749 213.267561 206.912668 213.605139 207.250246 
C 213.942717 207.587823 214.400635 207.777499 214.878043 207.777499 
z
" clip-path="url(#pe47f4d4c7e)" style="fill: #ff0000; fill-opacity: 0.6; stroke: #ff0000; stroke-opacity: 0.6"/>
    <path d="M 214.878043 191.914496 
C 215.283274 191.914496 215.671964 191.753496 215.958506 191.466954 
C 216.245048 191.180412 216.406048 190.791723 216.406048 190.386491 
C 216.406048 189.981259 216.245048 189.59257 215.958506 189.306028 
C 215.671964 189.019486 215.283274 188.858485 214.878043 188.858485 
C 214.472811 188.858485 214.084122 189.019486 213.79758 189.306028 
C 213.511037 189.59257 213.350037 189.981259 213.350037 190.386491 
C 213.350037 190.791723 213.511037 191.180412 213.79758 191.466954 
C 214.084122 191.753496 214.472811 191.914496 214.878043 191.914496 
z
" clip-path="url(#pe47f4d4c7e)" style="fill: #ff0000; fill-opacity: 0.6; stroke: #ff0000; stroke-opacity: 0.6"/>
    <path d="M 214.878043 178.574134 
C 215.218295 178.574134 215.544658 178.438951 215.785253 178.198356 
C 216.025848 177.957761 216.161031 177.631398 216.161031 177.291146 
C 216.161031 176.950893 216.025848 176.62453 215.785253 176.383936 
C 215.544658 176.143341 215.218295 176.008157 214.878043 176.008157 
C 214.53779 176.008157 214.211427 176.143341 213.970833 176.383936 
C 213.730238 176.62453 213.595054 176.950893 213.595054 177.291146 
C 213.595054 177.631398 213.730238 177.957761 213.970833 178.198356 
C 214.211427 178.438951 214.53779 178.574134 214.878043 178.574134 
z
" clip-path="url(#pe47f4d4c7e)" style="fill: #ff0000; fill-opacity: 0.6; stroke: #ff0000; stroke-opacity: 0.6"/>
    <path d="M 214.878043 166.359862 
C 215.158662 166.359862 215.427826 166.248371 215.626254 166.049943 
C 215.824682 165.851515 215.936173 165.582351 215.936173 165.301732 
C 215.936173 165.021113 215.824682 164.751949 215.626254 164.553521 
C 215.427826 164.355093 215.158662 164.243602 214.878043 164.243602 
C 214.597423 164.243602 214.32826 164.355093 214.129832 164.553521 
C 213.931404 164.751949 213.819912 165.021113 213.819912 165.301732 
C 213.819912 165.582351 213.931404 165.851515 214.129832 166.049943 
C 214.32826 166.248371 214.597423 166.359862 214.878043 166.359862 
z
" clip-path="url(#pe47f4d4c7e)" style="fill: #ff0000; fill-opacity: 0.6; stroke: #ff0000; stroke-opacity: 0.6"/>
    <path d="M 214.878043 154.486209 
C 215.103947 154.486209 215.32063 154.396456 215.480369 154.236717 
C 215.640108 154.076978 215.729861 153.860295 215.729861 153.63439 
C 215.729861 153.408486 215.640108 153.191803 215.480369 153.032064 
C 215.32063 152.872325 215.103947 152.782572 214.878043 152.782572 
C 214.652138 152.782572 214.435455 152.872325 214.275716 153.032064 
C 214.115977 153.191803 214.026224 153.408486 214.026224 153.63439 
C 214.026224 153.860295 214.115977 154.076978 214.275716 154.236717 
C 214.435455 154.396456 214.652138 154.486209 214.878043 154.486209 
z
" clip-path="url(#pe47f4d4c7e)" style="fill: #ff0000; fill-opacity: 0.6; stroke: #ff0000; stroke-opacity: 0.6"/>
    <path d="M 214.878043 142.310042 
C 215.05442 142.310042 215.223598 142.239966 215.348316 142.115248 
C 215.473034 141.99053 215.54311 141.821353 215.54311 141.644975 
C 215.54311 141.468597 215.473034 141.29942 215.348316 141.174702 
C 215.223598 141.049984 215.05442 140.979908 214.878043 140.979908 
C 214.701665 140.979908 214.532487 141.049984 214.407769 141.174702 
C 214.283051 141.29942 214.212976 141.468597 214.212976 141.644975 
C 214.212976 141.821353 214.283051 141.99053 214.407769 142.115248 
C 214.532487 142.239966 214.701665 142.310042 214.878043 142.310042 
z
" clip-path="url(#pe47f4d4c7e)" style="fill: #ff0000; fill-opacity: 0.6; stroke: #ff0000; stroke-opacity: 0.6"/>
    <path d="M 214.878043 129.051916 
C 215.011249 129.051916 215.139018 128.998993 215.233209 128.904802 
C 215.3274 128.81061 215.380324 128.682842 215.380324 128.549635 
C 215.380324 128.416429 215.3274 128.28866 215.233209 128.194469 
C 215.139018 128.100277 215.011249 128.047354 214.878043 128.047354 
C 214.744836 128.047354 214.617067 128.100277 214.522876 128.194469 
C 214.428685 128.28866 214.375761 128.416429 214.375761 128.549635 
C 214.375761 128.682842 214.428685 128.81061 214.522876 128.904802 
C 214.617067 128.998993 214.744836 129.051916 214.878043 129.051916 
z
" clip-path="url(#pe47f4d4c7e)" style="fill: #ff0000; fill-opacity: 0.6; stroke: #ff0000; stroke-opacity: 0.6"/>
    <path d="M 214.878043 113.324148 
C 214.974939 113.324148 215.06788 113.285651 215.136397 113.217134 
C 215.204913 113.148618 215.24341 113.055677 215.24341 112.95878 
C 215.24341 112.861884 215.204913 112.768943 215.136397 112.700426 
C 215.06788 112.63191 214.974939 112.593413 214.878043 112.593413 
C 214.781146 112.593413 214.688205 112.63191 214.619689 112.700426 
C 214.551172 112.768943 214.512675 112.861884 214.512675 112.95878 
C 214.512675 113.055677 214.551172 113.148618 214.619689 113.217134 
C 214.688205 113.285651 214.781146 113.324148 214.878043 113.324148 
z
" clip-path="url(#pe47f4d4c7e)" style="fill: #ff0000; fill-opacity: 0.6; stroke: #ff0000; stroke-opacity: 0.6"/>
    <path d="M 214.878043 91.104986 
C 214.931176 91.104986 214.98214 91.083876 215.01971 91.046305 
C 215.057281 91.008734 215.078391 90.95777 215.078391 90.904637 
C 215.078391 90.851504 215.057281 90.80054 215.01971 90.762969 
C 214.98214 90.725399 214.931176 90.704289 214.878043 90.704289 
C 214.82491 90.704289 214.773946 90.725399 214.736375 90.762969 
C 214.698804 90.80054 214.677694 90.851504 214.677694 90.904637 
C 214.677694 90.95777 214.698804 91.008734 214.736375 91.046305 
C 214.773946 91.083876 214.82491 91.104986 214.878043 91.104986 
z
" clip-path="url(#pe47f4d4c7e)" style="fill: #ff0000; fill-opacity: 0.6; stroke: #ff0000; stroke-opacity: 0.6"/>
    <path d="M 232.451882 229.982801 
C 232.969378 229.982801 233.465747 229.777198 233.831671 229.411274 
C 234.197596 229.04535 234.403199 228.54898 234.403199 228.031485 
C 234.403199 227.51399 234.197596 227.017621 233.831671 226.651696 
C 233.465747 226.285772 232.969378 226.080169 232.451882 226.080169 
C 231.934387 226.080169 231.438018 226.285772 231.072094 226.651696 
C 230.706169 227.017621 230.500566 227.51399 230.500566 228.031485 
C 230.500566 228.54898 230.706169 229.04535 231.072094 229.411274 
C 231.438018 229.777198 231.934387 229.982801 232.451882 229.982801 
z
" clip-path="url(#pe47f4d4c7e)" style="fill: #ff0000; fill-opacity: 0.6; stroke: #ff0000; stroke-opacity: 0.6"/>
    <path d="M 232.451882 207.49012 
C 232.853076 207.49012 233.237891 207.330724 233.521578 207.047037 
C 233.805264 206.763351 233.96466 206.378535 233.96466 205.977342 
C 233.96466 205.576149 233.805264 205.191333 233.521578 204.907647 
C 233.237891 204.62396 232.853076 204.464564 232.451882 204.464564 
C 232.050689 204.464564 231.665874 204.62396 231.382187 204.907647 
C 231.098501 205.191333 230.939105 205.576149 230.939105 205.977342 
C 230.939105 206.378535 231.098501 206.763351 231.382187 207.047037 
C 231.665874 207.330724 232.050689 207.49012 232.451882 207.49012 
z
" clip-path="url(#pe47f4d4c7e)" style="fill: #ff0000; fill-opacity: 0.6; stroke: #ff0000; stroke-opacity: 0.6"/>
    <path d="M 232.451882 191.66948 
C 232.792135 191.66948 233.118498 191.534296 233.359093 191.293701 
C 233.599687 191.053106 233.734871 190.726743 233.734871 190.386491 
C 233.734871 190.046238 233.599687 189.719876 233.359093 189.479281 
C 233.118498 189.238686 232.792135 189.103502 232.451882 189.103502 
C 232.11163 189.103502 231.785267 189.238686 231.544672 189.479281 
C 231.304077 189.719876 231.168894 190.046238 231.168894 190.386491 
C 231.168894 190.726743 231.304077 191.053106 231.544672 191.293701 
C 231.785267 191.534296 232.11163 191.66948 232.451882 191.66948 
z
" clip-path="url(#pe47f4d4c7e)" style="fill: #ff0000; fill-opacity: 0.6; stroke: #ff0000; stroke-opacity: 0.6"/>
    <path d="M 232.451882 178.368501 
C 232.7376 178.368501 233.011654 178.254984 233.213687 178.052951 
C 233.41572 177.850918 233.529237 177.576863 233.529237 177.291146 
C 233.529237 177.005428 233.41572 176.731374 233.213687 176.529341 
C 233.011654 176.327308 232.7376 176.213791 232.451882 176.213791 
C 232.166165 176.213791 231.892111 176.327308 231.690078 176.529341 
C 231.488044 176.731374 231.374528 177.005428 231.374528 177.291146 
C 231.374528 177.576863 231.488044 177.850918 231.690078 178.052951 
C 231.892111 178.254984 232.166165 178.368501 232.451882 178.368501 
z
" clip-path="url(#pe47f4d4c7e)" style="fill: #ff0000; fill-opacity: 0.6; stroke: #ff0000; stroke-opacity: 0.6"/>
    <path d="M 232.451882 166.195674 
C 232.688959 166.195674 232.916357 166.101483 233.083995 165.933845 
C 233.251633 165.766206 233.345825 165.538808 233.345825 165.301732 
C 233.345825 165.064656 233.251633 164.837258 233.083995 164.669619 
C 232.916357 164.501981 232.688959 164.40779 232.451882 164.40779 
C 232.214806 164.40779 231.987408 164.501981 231.81977 164.669619 
C 231.652132 164.837258 231.55794 165.064656 231.55794 165.301732 
C 231.55794 165.538808 231.652132 165.766206 231.81977 165.933845 
C 231.987408 166.101483 232.214806 166.195674 232.451882 166.195674 
z
" clip-path="url(#pe47f4d4c7e)" style="fill: #ff0000; fill-opacity: 0.6; stroke: #ff0000; stroke-opacity: 0.6"/>
    <path d="M 232.451882 154.376282 
C 232.648634 154.376282 232.837354 154.298111 232.976479 154.158987 
C 233.115604 154.019862 233.193774 153.831142 233.193774 153.63439 
C 233.193774 153.437638 233.115604 153.248918 232.976479 153.109794 
C 232.837354 152.970669 232.648634 152.892499 232.451882 152.892499 
C 232.255131 152.892499 232.066411 152.970669 231.927286 153.109794 
C 231.788161 153.248918 231.709991 153.437638 231.709991 153.63439 
C 231.709991 153.831142 231.788161 154.019862 231.927286 154.158987 
C 232.066411 154.298111 232.255131 154.376282 232.451882 154.376282 
z
" clip-path="url(#pe47f4d4c7e)" style="fill: #ff0000; fill-opacity: 0.6; stroke: #ff0000; stroke-opacity: 0.6"/>
    <path d="M 232.451882 142.287241 
C 232.622213 142.287241 232.785591 142.219568 232.906033 142.099126 
C 233.026475 141.978684 233.094149 141.815306 233.094149 141.644975 
C 233.094149 141.474644 233.026475 141.311266 232.906033 141.190824 
C 232.785591 141.070382 232.622213 141.002709 232.451882 141.002709 
C 232.281551 141.002709 232.118174 141.070382 231.997732 141.190824 
C 231.877289 141.311266 231.809616 141.474644 231.809616 141.644975 
C 231.809616 141.815306 231.877289 141.978684 231.997732 142.099126 
C 232.118174 142.219568 232.281551 142.287241 232.451882 142.287241 
z
" clip-path="url(#pe47f4d4c7e)" style="fill: #ff0000; fill-opacity: 0.6; stroke: #ff0000; stroke-opacity: 0.6"/>
    <path d="M 232.451882 129.164994 
C 232.615078 129.164994 232.771611 129.100156 232.887007 128.98476 
C 233.002403 128.869363 233.067242 128.71283 233.067242 128.549635 
C 233.067242 128.38644 233.002403 128.229907 232.887007 128.114511 
C 232.771611 127.999114 232.615078 127.934276 232.451882 127.934276 
C 232.288687 127.934276 232.132154 127.999114 232.016758 128.114511 
C 231.901362 128.229907 231.836523 128.38644 231.836523 128.549635 
C 231.836523 128.71283 231.901362 128.869363 232.016758 128.98476 
C 232.132154 129.100156 232.288687 129.164994 232.451882 129.164994 
z
" clip-path="url(#pe47f4d4c7e)" style="fill: #ff0000; fill-opacity: 0.6; stroke: #ff0000; stroke-opacity: 0.6"/>
    <path d="M 232.451882 113.589391 
C 232.619122 113.589391 232.779535 113.522946 232.897791 113.404689 
C 233.016048 113.286433 233.082493 113.12602 233.082493 112.95878 
C 233.082493 112.79154 233.016048 112.631128 232.897791 112.512871 
C 232.779535 112.394615 232.619122 112.32817 232.451882 112.32817 
C 232.284643 112.32817 232.12423 112.394615 232.005974 112.512871 
C 231.887717 112.631128 231.821272 112.79154 231.821272 112.95878 
C 231.821272 113.12602 231.887717 113.286433 232.005974 113.404689 
C 232.12423 113.522946 232.284643 113.589391 232.451882 113.589391 
z
" clip-path="url(#pe47f4d4c7e)" style="fill: #ff0000; fill-opacity: 0.6; stroke: #ff0000; stroke-opacity: 0.6"/>
    <path d="M 232.451882 91.431505 
C 232.591609 91.431505 232.725632 91.375991 232.824434 91.277189 
C 232.923236 91.178387 232.97875 91.044364 232.97875 90.904637 
C 232.97875 90.76491 232.923236 90.630887 232.824434 90.532085 
C 232.725632 90.433284 232.591609 90.37777 232.451882 90.37777 
C 232.312156 90.37777 232.178133 90.433284 232.079331 90.532085 
C 231.980529 90.630887 231.925015 90.76491 231.925015 90.904637 
C 231.925015 91.044364 231.980529 91.178387 232.079331 91.277189 
C 232.178133 91.375991 232.312156 91.431505 232.451882 91.431505 
z
" clip-path="url(#pe47f4d4c7e)" style="fill: #ff0000; fill-opacity: 0.6; stroke: #ff0000; stroke-opacity: 0.6"/>
    <path d="M 248.541572 229.644323 
C 248.969301 229.644323 249.37957 229.474384 249.68202 229.171934 
C 249.984471 228.869483 250.15441 228.459215 250.15441 228.031485 
C 250.15441 227.603756 249.984471 227.193487 249.68202 226.891037 
C 249.37957 226.588586 248.969301 226.418647 248.541572 226.418647 
C 248.113842 226.418647 247.703574 226.588586 247.401123 226.891037 
C 247.098672 227.193487 246.928734 227.603756 246.928734 228.031485 
C 246.928734 228.459215 247.098672 228.869483 247.401123 229.171934 
C 247.703574 229.474384 248.113842 229.644323 248.541572 229.644323 
z
" clip-path="url(#pe47f4d4c7e)" style="fill: #ff0000; fill-opacity: 0.6; stroke: #ff0000; stroke-opacity: 0.6"/>
    <path d="M 248.541572 207.225618 
C 248.872618 207.225618 249.190151 207.094092 249.424236 206.860007 
C 249.658322 206.625921 249.789848 206.308389 249.789848 205.977342 
C 249.789848 205.646295 249.658322 205.328763 249.424236 205.094677 
C 249.190151 204.860592 248.872618 204.729066 248.541572 204.729066 
C 248.210525 204.729066 247.892992 204.860592 247.658907 205.094677 
C 247.424822 205.328763 247.293295 205.646295 247.293295 205.977342 
C 247.293295 206.308389 247.424822 206.625921 247.658907 206.860007 
C 247.892992 207.094092 248.210525 207.225618 248.541572 207.225618 
z
" clip-path="url(#pe47f4d4c7e)" style="fill: #ff0000; fill-opacity: 0.6; stroke: #ff0000; stroke-opacity: 0.6"/>
    <path d="M 248.541572 191.444621 
C 248.822191 191.444621 249.091355 191.33313 249.289783 191.134702 
C 249.488211 190.936274 249.599702 190.66711 249.599702 190.386491 
C 249.599702 190.105871 249.488211 189.836708 249.289783 189.63828 
C 249.091355 189.439852 248.822191 189.328361 248.541572 189.328361 
C 248.260952 189.328361 247.991789 189.439852 247.793361 189.63828 
C 247.594933 189.836708 247.483442 190.105871 247.483442 190.386491 
C 247.483442 190.66711 247.594933 190.936274 247.793361 191.134702 
C 247.991789 191.33313 248.260952 191.444621 248.541572 191.444621 
z
" clip-path="url(#pe47f4d4c7e)" style="fill: #ff0000; fill-opacity: 0.6; stroke: #ff0000; stroke-opacity: 0.6"/>
    <path d="M 248.541572 178.185088 
C 248.778648 178.185088 249.006046 178.090896 249.173684 177.923258 
C 249.341322 177.75562 249.435514 177.528222 249.435514 177.291146 
C 249.435514 177.054069 249.341322 176.826671 249.173684 176.659033 
C 249.006046 176.491395 248.778648 176.397203 248.541572 176.397203 
C 248.304495 176.397203 248.077097 176.491395 247.909459 176.659033 
C 247.741821 176.826671 247.64763 177.054069 247.64763 177.291146 
C 247.64763 177.528222 247.741821 177.75562 247.909459 177.923258 
C 248.077097 178.090896 248.304495 178.185088 248.541572 178.185088 
z
" clip-path="url(#pe47f4d4c7e)" style="fill: #ff0000; fill-opacity: 0.6; stroke: #ff0000; stroke-opacity: 0.6"/>
    <path d="M 248.541572 166.071895 
C 248.745821 166.071895 248.941733 165.990746 249.086159 165.846319 
C 249.230585 165.701893 249.311735 165.505982 249.311735 165.301732 
C 249.311735 165.097482 249.230585 164.901571 249.086159 164.757145 
C 248.941733 164.612718 248.745821 164.531569 248.541572 164.531569 
C 248.337322 164.531569 248.141411 164.612718 247.996984 164.757145 
C 247.852558 164.901571 247.771409 165.097482 247.771409 165.301732 
C 247.771409 165.505982 247.852558 165.701893 247.996984 165.846319 
C 248.141411 165.990746 248.337322 166.071895 248.541572 166.071895 
z
" clip-path="url(#pe47f4d4c7e)" style="fill: #ff0000; fill-opacity: 0.6; stroke: #ff0000; stroke-opacity: 0.6"/>
    <path d="M 248.541572 154.361967 
C 248.734527 154.361967 248.919606 154.285305 249.056046 154.148865 
C 249.192486 154.012425 249.269148 153.827346 249.269148 153.63439 
C 249.269148 153.441435 249.192486 153.256356 249.056046 153.119916 
C 248.919606 152.983476 248.734527 152.906814 248.541572 152.906814 
C 248.348616 152.906814 248.163537 152.983476 248.027097 153.119916 
C 247.890657 153.256356 247.813995 153.441435 247.813995 153.63439 
C 247.813995 153.827346 247.890657 154.012425 248.027097 154.148865 
C 248.163537 154.285305 248.348616 154.361967 248.541572 154.361967 
z
" clip-path="url(#pe47f4d4c7e)" style="fill: #ff0000; fill-opacity: 0.6; stroke: #ff0000; stroke-opacity: 0.6"/>
    <path d="M 248.541572 142.452852 
C 248.755823 142.452852 248.961329 142.367729 249.112827 142.216231 
C 249.264326 142.064732 249.349449 141.859227 249.349449 141.644975 
C 249.349449 141.430723 249.264326 141.225218 249.112827 141.073719 
C 248.961329 140.922221 248.755823 140.837098 248.541572 140.837098 
C 248.32732 140.837098 248.121815 140.922221 247.970316 141.073719 
C 247.818817 141.225218 247.733694 141.430723 247.733694 141.644975 
C 247.733694 141.859227 247.818817 142.064732 247.970316 142.216231 
C 248.121815 142.367729 248.32732 142.452852 248.541572 142.452852 
z
" clip-path="url(#pe47f4d4c7e)" style="fill: #ff0000; fill-opacity: 0.6; stroke: #ff0000; stroke-opacity: 0.6"/>
    <path d="M 248.541572 129.538599 
C 248.803848 129.538599 249.055418 129.434396 249.240875 129.248938 
C 249.426333 129.063481 249.530536 128.811912 249.530536 128.549635 
C 249.530536 128.287359 249.426333 128.035789 249.240875 127.850332 
C 249.055418 127.664874 248.803848 127.560671 248.541572 127.560671 
C 248.279295 127.560671 248.027726 127.664874 247.842268 127.850332 
C 247.656811 128.035789 247.552607 128.287359 247.552607 128.549635 
C 247.552607 128.811912 247.656811 129.063481 247.842268 129.248938 
C 248.027726 129.434396 248.279295 129.538599 248.541572 129.538599 
z
" clip-path="url(#pe47f4d4c7e)" style="fill: #ff0000; fill-opacity: 0.6; stroke: #ff0000; stroke-opacity: 0.6"/>
    <path d="M 248.541572 114.119469 
C 248.84939 114.119469 249.144642 113.997172 249.362303 113.779511 
C 249.579963 113.561851 249.702261 113.266599 249.702261 112.95878 
C 249.702261 112.650962 249.579963 112.35571 249.362303 112.138049 
C 249.144642 111.920389 248.84939 111.798091 248.541572 111.798091 
C 248.233753 111.798091 247.938501 111.920389 247.720841 112.138049 
C 247.50318 112.35571 247.380883 112.650962 247.380883 112.95878 
C 247.380883 113.266599 247.50318 113.561851 247.720841 113.779511 
C 247.938501 113.997172 248.233753 114.119469 248.541572 114.119469 
z
" clip-path="url(#pe47f4d4c7e)" style="fill: #ff0000; fill-opacity: 0.6; stroke: #ff0000; stroke-opacity: 0.6"/>
    <path d="M 248.541572 91.943529 
C 248.817089 91.943529 249.081359 91.834065 249.276179 91.639245 
C 249.471 91.444425 249.580464 91.180155 249.580464 90.904637 
C 249.580464 90.62912 249.471 90.36485 249.276179 90.17003 
C 249.081359 89.975209 248.817089 89.865745 248.541572 89.865745 
C 248.266054 89.865745 248.001784 89.975209 247.806964 90.17003 
C 247.612144 90.36485 247.50268 90.62912 247.50268 90.904637 
C 247.50268 91.180155 247.612144 91.444425 247.806964 91.639245 
C 248.001784 91.834065 248.266054 91.943529 248.541572 91.943529 
z
" clip-path="url(#pe47f4d4c7e)" style="fill: #ff0000; fill-opacity: 0.6; stroke: #ff0000; stroke-opacity: 0.6"/>
    <path d="M 264.199043 229.330544 
C 264.543558 229.330544 264.874008 229.193667 265.117617 228.950059 
C 265.361225 228.70645 265.498102 228.376 265.498102 228.031485 
C 265.498102 227.686971 265.361225 227.35652 265.117617 227.112912 
C 264.874008 226.869303 264.543558 226.732426 264.199043 226.732426 
C 263.854529 226.732426 263.524078 226.869303 263.28047 227.112912 
C 263.036861 227.35652 262.899984 227.686971 262.899984 228.031485 
C 262.899984 228.376 263.036861 228.70645 263.28047 228.950059 
C 263.524078 229.193667 263.854529 229.330544 264.199043 229.330544 
z
" clip-path="url(#pe47f4d4c7e)" style="fill: #ff0000; fill-opacity: 0.6; stroke: #ff0000; stroke-opacity: 0.6"/>
    <path d="M 264.199043 206.980099 
C 264.464977 206.980099 264.720056 206.874442 264.908099 206.686398 
C 265.096143 206.498354 265.2018 206.243276 265.2018 205.977342 
C 265.2018 205.711408 265.096143 205.45633 264.908099 205.268286 
C 264.720056 205.080242 264.464977 204.974585 264.199043 204.974585 
C 263.933109 204.974585 263.678031 205.080242 263.489987 205.268286 
C 263.301943 205.45633 263.196286 205.711408 263.196286 205.977342 
C 263.196286 206.243276 263.301943 206.498354 263.489987 206.686398 
C 263.678031 206.874442 263.933109 206.980099 264.199043 206.980099 
z
" clip-path="url(#pe47f4d4c7e)" style="fill: #ff0000; fill-opacity: 0.6; stroke: #ff0000; stroke-opacity: 0.6"/>
    <path d="M 264.199043 191.238309 
C 264.424948 191.238309 264.641631 191.148556 264.80137 190.988817 
C 264.961109 190.829078 265.050862 190.612396 265.050862 190.386491 
C 265.050862 190.160586 264.961109 189.943903 264.80137 189.784164 
C 264.641631 189.624425 264.424948 189.534672 264.199043 189.534672 
C 263.973138 189.534672 263.756456 189.624425 263.596717 189.784164 
C 263.436978 189.943903 263.347225 190.160586 263.347225 190.386491 
C 263.347225 190.612396 263.436978 190.829078 263.596717 190.988817 
C 263.756456 191.148556 263.973138 191.238309 264.199043 191.238309 
z
" clip-path="url(#pe47f4d4c7e)" style="fill: #ff0000; fill-opacity: 0.6; stroke: #ff0000; stroke-opacity: 0.6"/>
    <path d="M 264.199043 178.033037 
C 264.395795 178.033037 264.584515 177.954867 264.72364 177.815742 
C 264.862764 177.676618 264.940935 177.487898 264.940935 177.291146 
C 264.940935 177.094394 264.862764 176.905674 264.72364 176.766549 
C 264.584515 176.627424 264.395795 176.549254 264.199043 176.549254 
C 264.002291 176.549254 263.813571 176.627424 263.674447 176.766549 
C 263.535322 176.905674 263.457152 177.094394 263.457152 177.291146 
C 263.457152 177.487898 263.535322 177.676618 263.674447 177.815742 
C 263.813571 177.954867 264.002291 178.033037 264.199043 178.033037 
z
" clip-path="url(#pe47f4d4c7e)" style="fill: #ff0000; fill-opacity: 0.6; stroke: #ff0000; stroke-opacity: 0.6"/>
    <path d="M 264.199043 166.029309 
C 264.391999 166.029309 264.577077 165.952647 264.713518 165.816206 
C 264.849958 165.679766 264.92662 165.494688 264.92662 165.301732 
C 264.92662 165.108776 264.849958 164.923698 264.713518 164.787258 
C 264.577077 164.650817 264.391999 164.574155 264.199043 164.574155 
C 264.006088 164.574155 263.821009 164.650817 263.684569 164.787258 
C 263.548129 164.923698 263.471467 165.108776 263.471467 165.301732 
C 263.471467 165.494688 263.548129 165.679766 263.684569 165.816206 
C 263.821009 165.952647 264.006088 166.029309 264.199043 166.029309 
z
" clip-path="url(#pe47f4d4c7e)" style="fill: #ff0000; fill-opacity: 0.6; stroke: #ff0000; stroke-opacity: 0.6"/>
    <path d="M 264.199043 154.515125 
C 264.432617 154.515125 264.656655 154.422325 264.821816 154.257163 
C 264.986978 154.092002 265.079777 153.867964 265.079777 153.63439 
C 265.079777 153.400817 264.986978 153.176779 264.821816 153.011617 
C 264.656655 152.846456 264.432617 152.753656 264.199043 152.753656 
C 263.96547 152.753656 263.741432 152.846456 263.57627 153.011617 
C 263.411109 153.176779 263.318309 153.400817 263.318309 153.63439 
C 263.318309 153.867964 263.411109 154.092002 263.57627 154.257163 
C 263.741432 154.422325 263.96547 154.515125 264.199043 154.515125 
z
" clip-path="url(#pe47f4d4c7e)" style="fill: #ff0000; fill-opacity: 0.6; stroke: #ff0000; stroke-opacity: 0.6"/>
    <path d="M 264.199043 142.84615 
C 264.517599 142.84615 264.82315 142.719587 265.048402 142.494334 
C 265.273655 142.269082 265.400219 141.96353 265.400219 141.644975 
C 265.400219 141.32642 265.273655 141.020869 265.048402 140.795616 
C 264.82315 140.570363 264.517599 140.4438 264.199043 140.4438 
C 263.880488 140.4438 263.574937 140.570363 263.349684 140.795616 
C 263.124431 141.020869 262.997868 141.32642 262.997868 141.644975 
C 262.997868 141.96353 263.124431 142.269082 263.349684 142.494334 
C 263.574937 142.719587 263.880488 142.84615 264.199043 142.84615 
z
" clip-path="url(#pe47f4d4c7e)" style="fill: #ff0000; fill-opacity: 0.6; stroke: #ff0000; stroke-opacity: 0.6"/>
    <path d="M 264.199043 130.160109 
C 264.626146 130.160109 265.035813 129.990419 265.33782 129.688412 
C 265.639827 129.386405 265.809517 128.976738 265.809517 128.549635 
C 265.809517 128.122533 265.639827 127.712865 265.33782 127.410858 
C 265.035813 127.108851 264.626146 126.939162 264.199043 126.939162 
C 263.771941 126.939162 263.362274 127.108851 263.060266 127.410858 
C 262.758259 127.712865 262.58857 128.122533 262.58857 128.549635 
C 262.58857 128.976738 262.758259 129.386405 263.060266 129.688412 
C 263.362274 129.990419 263.771941 130.160109 264.199043 130.160109 
z
" clip-path="url(#pe47f4d4c7e)" style="fill: #ff0000; fill-opacity: 0.6; stroke: #ff0000; stroke-opacity: 0.6"/>
    <path d="M 264.199043 114.906404 
C 264.715559 114.906404 265.210989 114.70119 265.576221 114.335958 
C 265.941453 113.970726 266.146667 113.475296 266.146667 112.95878 
C 266.146667 112.442264 265.941453 111.946834 265.576221 111.581602 
C 265.210989 111.216371 264.715559 111.011157 264.199043 111.011157 
C 263.682527 111.011157 263.187097 111.216371 262.821865 111.581602 
C 262.456633 111.946834 262.25142 112.442264 262.25142 112.95878 
C 262.25142 113.475296 262.456633 113.970726 262.821865 114.335958 
C 263.187097 114.70119 263.682527 114.906404 264.199043 114.906404 
z
" clip-path="url(#pe47f4d4c7e)" style="fill: #ff0000; fill-opacity: 0.6; stroke: #ff0000; stroke-opacity: 0.6"/>
    <path d="M 264.199043 92.670734 
C 264.667418 92.670734 265.116672 92.484647 265.447862 92.153456 
C 265.779053 91.822265 265.96514 91.373012 265.96514 90.904637 
C 265.96514 90.436263 265.779053 89.987009 265.447862 89.655818 
C 265.116672 89.324628 264.667418 89.13854 264.199043 89.13854 
C 263.730669 89.13854 263.281415 89.324628 262.950224 89.655818 
C 262.619034 89.987009 262.432947 90.436263 262.432947 90.904637 
C 262.432947 91.373012 262.619034 91.822265 262.950224 92.153456 
C 263.281415 92.484647 263.730669 92.670734 264.199043 92.670734 
z
" clip-path="url(#pe47f4d4c7e)" style="fill: #ff0000; fill-opacity: 0.6; stroke: #ff0000; stroke-opacity: 0.6"/>
    <path d="M 280.288735 229.036806 
C 280.555349 229.036806 280.811079 228.930879 280.999604 228.742354 
C 281.188129 228.55383 281.294056 228.298099 281.294056 228.031485 
C 281.294056 227.764871 281.188129 227.509141 280.999604 227.320616 
C 280.811079 227.132091 280.555349 227.026164 280.288735 227.026164 
C 280.022121 227.026164 279.76639 227.132091 279.577866 227.320616 
C 279.389341 227.509141 279.283414 227.764871 279.283414 228.031485 
C 279.283414 228.298099 279.389341 228.55383 279.577866 228.742354 
C 279.76639 228.930879 280.022121 229.036806 280.288735 229.036806 
z
" clip-path="url(#pe47f4d4c7e)" style="fill: #ff0000; fill-opacity: 0.6; stroke: #ff0000; stroke-opacity: 0.6"/>
    <path d="M 280.288735 206.749942 
C 280.493631 206.749942 280.690162 206.668536 280.835045 206.523653 
C 280.979929 206.378769 281.061335 206.182238 281.061335 205.977342 
C 281.061335 205.772446 280.979929 205.575915 280.835045 205.431031 
C 280.690162 205.286148 280.493631 205.204742 280.288735 205.204742 
C 280.083839 205.204742 279.887307 205.286148 279.742424 205.431031 
C 279.597541 205.575915 279.516135 205.772446 279.516135 205.977342 
C 279.516135 206.182238 279.597541 206.378769 279.742424 206.523653 
C 279.887307 206.668536 280.083839 206.749942 280.288735 206.749942 
z
" clip-path="url(#pe47f4d4c7e)" style="fill: #ff0000; fill-opacity: 0.6; stroke: #ff0000; stroke-opacity: 0.6"/>
    <path d="M 280.288735 191.051558 
C 280.465113 191.051558 280.63429 190.981482 280.759008 190.856764 
C 280.883726 190.732046 280.953802 190.562869 280.953802 190.386491 
C 280.953802 190.210113 280.883726 190.040935 280.759008 189.916217 
C 280.63429 189.791499 280.465113 189.721424 280.288735 189.721424 
C 280.112357 189.721424 279.943179 189.791499 279.818461 189.916217 
C 279.693743 190.040935 279.623668 190.210113 279.623668 190.386491 
C 279.623668 190.562869 279.693743 190.732046 279.818461 190.856764 
C 279.943179 190.981482 280.112357 191.051558 280.288735 191.051558 
z
" clip-path="url(#pe47f4d4c7e)" style="fill: #ff0000; fill-opacity: 0.6; stroke: #ff0000; stroke-opacity: 0.6"/>
    <path d="M 280.288735 177.933412 
C 280.459066 177.933412 280.622443 177.865739 280.742886 177.745296 
C 280.863328 177.624854 280.931001 177.461477 280.931001 177.291146 
C 280.931001 177.120815 280.863328 176.957437 280.742886 176.836995 
C 280.622443 176.716553 280.459066 176.648879 280.288735 176.648879 
C 280.118404 176.648879 279.955026 176.716553 279.834584 176.836995 
C 279.714142 176.957437 279.646469 177.120815 279.646469 177.291146 
C 279.646469 177.461477 279.714142 177.624854 279.834584 177.745296 
C 279.955026 177.865739 280.118404 177.933412 280.288735 177.933412 
z
" clip-path="url(#pe47f4d4c7e)" style="fill: #ff0000; fill-opacity: 0.6; stroke: #ff0000; stroke-opacity: 0.6"/>
    <path d="M 280.288735 166.109609 
C 280.502986 166.109609 280.708492 166.024486 280.85999 165.872988 
C 281.011489 165.721489 281.096612 165.515984 281.096612 165.301732 
C 281.096612 165.08748 281.011489 164.881975 280.85999 164.730476 
C 280.708492 164.578978 280.502986 164.493855 280.288735 164.493855 
C 280.074483 164.493855 279.868978 164.578978 279.717479 164.730476 
C 279.56598 164.881975 279.480857 165.08748 279.480857 165.301732 
C 279.480857 165.515984 279.56598 165.721489 279.717479 165.872988 
C 279.868978 166.024486 280.074483 166.109609 280.288735 166.109609 
z
" clip-path="url(#pe47f4d4c7e)" style="fill: #ff0000; fill-opacity: 0.6; stroke: #ff0000; stroke-opacity: 0.6"/>
    <path d="M 280.288735 154.835566 
C 280.60729 154.835566 280.912841 154.709002 281.138094 154.48375 
C 281.363347 154.258497 281.48991 153.952946 281.48991 153.63439 
C 281.48991 153.315835 281.363347 153.010284 281.138094 152.785031 
C 280.912841 152.559778 280.60729 152.433215 280.288735 152.433215 
C 279.970179 152.433215 279.664628 152.559778 279.439376 152.785031 
C 279.214123 153.010284 279.087559 153.315835 279.087559 153.63439 
C 279.087559 153.952946 279.214123 154.258497 279.439376 154.48375 
C 279.664628 154.709002 279.970179 154.835566 280.288735 154.835566 
z
" clip-path="url(#pe47f4d4c7e)" style="fill: #ff0000; fill-opacity: 0.6; stroke: #ff0000; stroke-opacity: 0.6"/>
    <path d="M 280.288735 143.420464 
C 280.7596 143.420464 281.211243 143.233387 281.544195 142.900435 
C 281.877147 142.567483 282.064224 142.11584 282.064224 141.644975 
C 282.064224 141.17411 281.877147 140.722467 281.544195 140.389515 
C 281.211243 140.056563 280.7596 139.869486 280.288735 139.869486 
C 279.81787 139.869486 279.366227 140.056563 279.033275 140.389515 
C 278.700323 140.722467 278.513246 141.17411 278.513246 141.644975 
C 278.513246 142.11584 278.700323 142.567483 279.033275 142.900435 
C 279.366227 143.233387 279.81787 143.420464 280.288735 143.420464 
z
" clip-path="url(#pe47f4d4c7e)" style="fill: #ff0000; fill-opacity: 0.6; stroke: #ff0000; stroke-opacity: 0.6"/>
    <path d="M 280.288735 130.986279 
C 280.93494 130.986279 281.554766 130.729539 282.011702 130.272602 
C 282.468638 129.815666 282.725378 129.195841 282.725378 128.549635 
C 282.725378 127.90343 282.468638 127.283604 282.011702 126.826668 
C 281.554766 126.369732 280.93494 126.112992 280.288735 126.112992 
C 279.642529 126.112992 279.022704 126.369732 278.565768 126.826668 
C 278.108831 127.283604 277.852091 127.90343 277.852091 128.549635 
C 277.852091 129.195841 278.108831 129.815666 278.565768 130.272602 
C 279.022704 130.729539 279.642529 130.986279 280.288735 130.986279 
z
" clip-path="url(#pe47f4d4c7e)" style="fill: #ff0000; fill-opacity: 0.6; stroke: #ff0000; stroke-opacity: 0.6"/>
    <path d="M 280.288735 115.924725 
C 281.075313 115.924725 281.82978 115.612214 282.385974 115.05602 
C 282.942169 114.499826 283.25468 113.745358 283.25468 112.95878 
C 283.25468 112.172203 282.942169 111.417735 282.385974 110.861541 
C 281.82978 110.305346 281.075313 109.992836 280.288735 109.992836 
C 279.502157 109.992836 278.74769 110.305346 278.191495 110.861541 
C 277.635301 111.417735 277.32279 112.172203 277.32279 112.95878 
C 277.32279 113.745358 277.635301 114.499826 278.191495 115.05602 
C 278.74769 115.612214 279.502157 115.924725 280.288735 115.924725 
z
" clip-path="url(#pe47f4d4c7e)" style="fill: #ff0000; fill-opacity: 0.6; stroke: #ff0000; stroke-opacity: 0.6"/>
    <path d="M 280.288735 93.602369 
C 281.004182 93.602369 281.690422 93.318119 282.19632 92.812222 
C 282.702217 92.306325 282.986467 91.620084 282.986467 90.904637 
C 282.986467 90.18919 282.702217 89.50295 282.19632 88.997052 
C 281.690422 88.491155 281.004182 88.206905 280.288735 88.206905 
C 279.573288 88.206905 278.887047 88.491155 278.38115 88.997052 
C 277.875253 89.50295 277.591003 90.18919 277.591003 90.904637 
C 277.591003 91.620084 277.875253 92.306325 278.38115 92.812222 
C 278.887047 93.318119 279.573288 93.602369 280.288735 93.602369 
z
" clip-path="url(#pe47f4d4c7e)" style="fill: #ff0000; fill-opacity: 0.6; stroke: #ff0000; stroke-opacity: 0.6"/>
    <path d="M 297.862568 228.757944 
C 298.055227 228.757944 298.240021 228.681399 298.376251 228.545169 
C 298.512482 228.408938 298.589026 228.224144 298.589026 228.031485 
C 298.589026 227.838826 298.512482 227.654032 298.376251 227.517801 
C 298.240021 227.381571 298.055227 227.305027 297.862568 227.305027 
C 297.669909 227.305027 297.485114 227.381571 297.348884 227.517801 
C 297.212653 227.654032 297.136109 227.838826 297.136109 228.031485 
C 297.136109 228.224144 297.212653 228.408938 297.348884 228.545169 
C 297.485114 228.681399 297.669909 228.757944 297.862568 228.757944 
z
" clip-path="url(#pe47f4d4c7e)" style="fill: #ff0000; fill-opacity: 0.6; stroke: #ff0000; stroke-opacity: 0.6"/>
    <path d="M 297.862568 206.531043 
C 298.009411 206.531043 298.15026 206.472702 298.254093 206.368868 
C 298.357927 206.265034 298.416269 206.124185 298.416269 205.977342 
C 298.416269 205.830499 298.357927 205.68965 298.254093 205.585816 
C 298.15026 205.481982 298.009411 205.423641 297.862568 205.423641 
C 297.715724 205.423641 297.574876 205.481982 297.471042 205.585816 
C 297.367208 205.68965 297.308867 205.830499 297.308867 205.977342 
C 297.308867 206.124185 297.367208 206.265034 297.471042 206.368868 
C 297.574876 206.472702 297.715724 206.531043 297.862568 206.531043 
z
" clip-path="url(#pe47f4d4c7e)" style="fill: #ff0000; fill-opacity: 0.6; stroke: #ff0000; stroke-opacity: 0.6"/>
    <path d="M 297.862568 190.888772 
C 297.995774 190.888772 298.123543 190.835848 298.217734 190.741657 
C 298.311925 190.647466 298.364849 190.519697 298.364849 190.386491 
C 298.364849 190.253284 298.311925 190.125516 298.217734 190.031324 
C 298.123543 189.937133 297.995774 189.88421 297.862568 189.88421 
C 297.729361 189.88421 297.601592 189.937133 297.507401 190.031324 
C 297.41321 190.125516 297.360286 190.253284 297.360286 190.386491 
C 297.360286 190.519697 297.41321 190.647466 297.507401 190.741657 
C 297.601592 190.835848 297.729361 190.888772 297.862568 190.888772 
z
" clip-path="url(#pe47f4d4c7e)" style="fill: #ff0000; fill-opacity: 0.6; stroke: #ff0000; stroke-opacity: 0.6"/>
    <path d="M 297.862568 177.906505 
C 298.025763 177.906505 298.182296 177.841667 298.297692 177.72627 
C 298.413089 177.610874 298.477927 177.454341 298.477927 177.291146 
C 298.477927 177.12795 298.413089 176.971417 298.297692 176.856021 
C 298.182296 176.740625 298.025763 176.675787 297.862568 176.675787 
C 297.699372 176.675787 297.542839 176.740625 297.427443 176.856021 
C 297.312047 176.971417 297.247209 177.12795 297.247209 177.291146 
C 297.247209 177.454341 297.312047 177.610874 297.427443 177.72627 
C 297.542839 177.841667 297.699372 177.906505 297.862568 177.906505 
z
" clip-path="url(#pe47f4d4c7e)" style="fill: #ff0000; fill-opacity: 0.6; stroke: #ff0000; stroke-opacity: 0.6"/>
    <path d="M 297.862568 166.290696 
C 298.124844 166.290696 298.376414 166.186493 298.561871 166.001035 
C 298.747328 165.815578 298.851532 165.564008 298.851532 165.301732 
C 298.851532 165.039456 298.747328 164.787886 298.561871 164.602429 
C 298.376414 164.416971 298.124844 164.312768 297.862568 164.312768 
C 297.600291 164.312768 297.348722 164.416971 297.163264 164.602429 
C 296.977807 164.787886 296.873603 165.039456 296.873603 165.301732 
C 296.873603 165.564008 296.977807 165.815578 297.163264 166.001035 
C 297.348722 166.186493 297.600291 166.290696 297.862568 166.290696 
z
" clip-path="url(#pe47f4d4c7e)" style="fill: #ff0000; fill-opacity: 0.6; stroke: #ff0000; stroke-opacity: 0.6"/>
    <path d="M 297.862568 155.244864 
C 298.28967 155.244864 298.699337 155.075174 299.001344 154.773167 
C 299.303351 154.47116 299.473041 154.061493 299.473041 153.63439 
C 299.473041 153.207288 299.303351 152.797621 299.001344 152.495614 
C 298.699337 152.193606 298.28967 152.023917 297.862568 152.023917 
C 297.435465 152.023917 297.025798 152.193606 296.723791 152.495614 
C 296.421784 152.797621 296.252094 153.207288 296.252094 153.63439 
C 296.252094 154.061493 296.421784 154.47116 296.723791 154.773167 
C 297.025798 155.075174 297.435465 155.244864 297.862568 155.244864 
z
" clip-path="url(#pe47f4d4c7e)" style="fill: #ff0000; fill-opacity: 0.6; stroke: #ff0000; stroke-opacity: 0.6"/>
    <path d="M 297.862568 144.081619 
C 298.508773 144.081619 299.128599 143.824878 299.585535 143.367942 
C 300.042471 142.911006 300.299211 142.29118 300.299211 141.644975 
C 300.299211 140.99877 300.042471 140.378944 299.585535 139.922008 
C 299.128599 139.465072 298.508773 139.208331 297.862568 139.208331 
C 297.216362 139.208331 296.596537 139.465072 296.1396 139.922008 
C 295.682664 140.378944 295.425924 140.99877 295.425924 141.644975 
C 295.425924 142.29118 295.682664 142.911006 296.1396 143.367942 
C 296.596537 143.824878 297.216362 144.081619 297.862568 144.081619 
z
" clip-path="url(#pe47f4d4c7e)" style="fill: #ff0000; fill-opacity: 0.6; stroke: #ff0000; stroke-opacity: 0.6"/>
    <path d="M 297.862568 131.912947 
C 298.754528 131.912947 299.610077 131.558567 300.240788 130.927856 
C 300.8715 130.297144 301.22588 129.441596 301.22588 128.549635 
C 301.22588 127.657674 300.8715 126.802126 300.240788 126.171414 
C 299.610077 125.540703 298.754528 125.186323 297.862568 125.186323 
C 296.970607 125.186323 296.115058 125.540703 295.484347 126.171414 
C 294.853635 126.802126 294.499256 127.657674 294.499256 128.549635 
C 294.499256 129.441596 294.853635 130.297144 295.484347 130.927856 
C 296.115058 131.558567 296.970607 131.912947 297.862568 131.912947 
z
" clip-path="url(#pe47f4d4c7e)" style="fill: #ff0000; fill-opacity: 0.6; stroke: #ff0000; stroke-opacity: 0.6"/>
    <path d="M 297.862568 117.058818 
C 298.94991 117.058818 299.992865 116.626813 300.761732 115.857945 
C 301.5306 115.089078 301.962606 114.046123 301.962606 112.95878 
C 301.962606 111.871438 301.5306 110.828483 300.761732 110.059616 
C 299.992865 109.290748 298.94991 108.858742 297.862568 108.858742 
C 296.775225 108.858742 295.73227 109.290748 294.963403 110.059616 
C 294.194535 110.828483 293.76253 111.871438 293.76253 112.95878 
C 293.76253 114.046123 294.194535 115.089078 294.963403 115.857945 
C 295.73227 116.626813 296.775225 117.058818 297.862568 117.058818 
z
" clip-path="url(#pe47f4d4c7e)" style="fill: #ff0000; fill-opacity: 0.6; stroke: #ff0000; stroke-opacity: 0.6"/>
    <path d="M 297.862568 94.637072 
C 298.852421 94.637072 299.801865 94.243799 300.501797 93.543867 
C 301.201729 92.843935 301.595002 91.89449 301.595002 90.904637 
C 301.595002 89.914784 301.201729 88.965339 300.501797 88.265407 
C 299.801865 87.565476 298.852421 87.172203 297.862568 87.172203 
C 296.872714 87.172203 295.92327 87.565476 295.223338 88.265407 
C 294.523406 88.965339 294.130133 89.914784 294.130133 90.904637 
C 294.130133 91.89449 294.523406 92.843935 295.223338 93.543867 
C 295.92327 94.243799 296.872714 94.637072 297.862568 94.637072 
z
" clip-path="url(#pe47f4d4c7e)" style="fill: #ff0000; fill-opacity: 0.6; stroke: #ff0000; stroke-opacity: 0.6"/>
    <path d="M 318.78536 228.485636 
C 318.905802 228.485636 319.021327 228.437784 319.106493 228.352618 
C 319.191658 228.267453 319.239511 228.151927 319.239511 228.031485 
C 319.239511 227.911043 319.191658 227.795518 319.106493 227.710352 
C 319.021327 227.625187 318.905802 227.577334 318.78536 227.577334 
C 318.664918 227.577334 318.549392 227.625187 318.464227 227.710352 
C 318.379061 227.795518 318.331209 227.911043 318.331209 228.031485 
C 318.331209 228.151927 318.379061 228.267453 318.464227 228.352618 
C 318.549392 228.437784 318.664918 228.485636 318.78536 228.485636 
z
" clip-path="url(#pe47f4d4c7e)" style="fill: #ff0000; fill-opacity: 0.6; stroke: #ff0000; stroke-opacity: 0.6"/>
    <path d="M 318.78536 206.315006 
C 318.874909 206.315006 318.960803 206.279427 319.024124 206.216106 
C 319.087445 206.152785 319.123023 206.066891 319.123023 205.977342 
C 319.123023 205.887793 319.087445 205.801899 319.024124 205.738578 
C 318.960803 205.675257 318.874909 205.639679 318.78536 205.639679 
C 318.69581 205.639679 318.609917 205.675257 318.546596 205.738578 
C 318.483275 205.801899 318.447696 205.887793 318.447696 205.977342 
C 318.447696 206.066891 318.483275 206.152785 318.546596 206.216106 
C 318.609917 206.279427 318.69581 206.315006 318.78536 206.315006 
z
" clip-path="url(#pe47f4d4c7e)" style="fill: #ff0000; fill-opacity: 0.6; stroke: #ff0000; stroke-opacity: 0.6"/>
    <path d="M 318.78536 190.751859 
C 318.882256 190.751859 318.975197 190.713361 319.043714 190.644845 
C 319.11223 190.576329 319.150728 190.483387 319.150728 190.386491 
C 319.150728 190.289594 319.11223 190.196653 319.043714 190.128137 
C 318.975197 190.05962 318.882256 190.021123 318.78536 190.021123 
C 318.688463 190.021123 318.595522 190.05962 318.527006 190.128137 
C 318.458489 190.196653 318.419992 190.289594 318.419992 190.386491 
C 318.419992 190.483387 318.458489 190.576329 318.527006 190.644845 
C 318.595522 190.713361 318.688463 190.751859 318.78536 190.751859 
z
" clip-path="url(#pe47f4d4c7e)" style="fill: #ff0000; fill-opacity: 0.6; stroke: #ff0000; stroke-opacity: 0.6"/>
    <path d="M 318.78536 177.921756 
C 318.9526 177.921756 319.113012 177.855311 319.231269 177.737055 
C 319.349525 177.618798 319.41597 177.458385 319.41597 177.291146 
C 319.41597 177.123906 319.349525 176.963493 319.231269 176.845237 
C 319.113012 176.72698 318.9526 176.660535 318.78536 176.660535 
C 318.61812 176.660535 318.457707 176.72698 318.339451 176.845237 
C 318.221194 176.963493 318.154749 177.123906 318.154749 177.291146 
C 318.154749 177.458385 318.221194 177.618798 318.339451 177.737055 
C 318.457707 177.855311 318.61812 177.921756 318.78536 177.921756 
z
" clip-path="url(#pe47f4d4c7e)" style="fill: #ff0000; fill-opacity: 0.6; stroke: #ff0000; stroke-opacity: 0.6"/>
    <path d="M 318.78536 166.462421 
C 319.093178 166.462421 319.38843 166.340123 319.606091 166.122463 
C 319.823751 165.904803 319.946049 165.60955 319.946049 165.301732 
C 319.946049 164.993914 319.823751 164.698661 319.606091 164.481001 
C 319.38843 164.263341 319.093178 164.141043 318.78536 164.141043 
C 318.477541 164.141043 318.182289 164.263341 317.964629 164.481001 
C 317.746968 164.698661 317.624671 164.993914 317.624671 165.301732 
C 317.624671 165.60955 317.746968 165.904803 317.964629 166.122463 
C 318.182289 166.340123 318.477541 166.462421 318.78536 166.462421 
z
" clip-path="url(#pe47f4d4c7e)" style="fill: #ff0000; fill-opacity: 0.6; stroke: #ff0000; stroke-opacity: 0.6"/>
    <path d="M 318.78536 155.582014 
C 319.301876 155.582014 319.797306 155.3768 320.162538 155.011568 
C 320.52777 154.646336 320.732983 154.150906 320.732983 153.63439 
C 320.732983 153.117875 320.52777 152.622444 320.162538 152.257212 
C 319.797306 151.891981 319.301876 151.686767 318.78536 151.686767 
C 318.268844 151.686767 317.773414 151.891981 317.408182 152.257212 
C 317.04295 152.622444 316.837736 153.117875 316.837736 153.63439 
C 316.837736 154.150906 317.04295 154.646336 317.408182 155.011568 
C 317.773414 155.3768 318.268844 155.582014 318.78536 155.582014 
z
" clip-path="url(#pe47f4d4c7e)" style="fill: #ff0000; fill-opacity: 0.6; stroke: #ff0000; stroke-opacity: 0.6"/>
    <path d="M 318.78536 144.61092 
C 319.571937 144.61092 320.326405 144.298409 320.882599 143.742215 
C 321.438794 143.18602 321.751304 142.431553 321.751304 141.644975 
C 321.751304 140.858397 321.438794 140.10393 320.882599 139.547735 
C 320.326405 138.991541 319.571937 138.67903 318.78536 138.67903 
C 317.998782 138.67903 317.244315 138.991541 316.68812 139.547735 
C 316.131926 140.10393 315.819415 140.858397 315.819415 141.644975 
C 315.819415 142.431553 316.131926 143.18602 316.68812 143.742215 
C 317.244315 144.298409 317.998782 144.61092 318.78536 144.61092 
z
" clip-path="url(#pe47f4d4c7e)" style="fill: #ff0000; fill-opacity: 0.6; stroke: #ff0000; stroke-opacity: 0.6"/>
    <path d="M 318.78536 132.649673 
C 319.872703 132.649673 320.915657 132.217667 321.684524 131.4488 
C 322.453392 130.679932 322.885398 129.636978 322.885398 128.549635 
C 322.885398 127.462292 322.453392 126.419338 321.684524 125.65047 
C 320.915657 124.881603 319.872703 124.449597 318.78536 124.449597 
C 317.698017 124.449597 316.655062 124.881603 315.886195 125.65047 
C 315.117328 126.419338 314.685322 127.462292 314.685322 128.549635 
C 314.685322 129.636978 315.117328 130.679932 315.886195 131.4488 
C 316.655062 132.217667 317.698017 132.649673 318.78536 132.649673 
z
" clip-path="url(#pe47f4d4c7e)" style="fill: #ff0000; fill-opacity: 0.6; stroke: #ff0000; stroke-opacity: 0.6"/>
    <path d="M 318.78536 117.95878 
C 320.111375 117.95878 321.383259 117.431949 322.320894 116.494314 
C 323.258528 115.55668 323.78536 114.284796 323.78536 112.95878 
C 323.78536 111.632765 323.258528 110.360881 322.320894 109.423246 
C 321.383259 108.485612 320.111375 107.95878 318.78536 107.95878 
C 317.459344 107.95878 316.18746 108.485612 315.249826 109.423246 
C 314.312191 110.360881 313.78536 111.632765 313.78536 112.95878 
C 313.78536 114.284796 314.312191 115.55668 315.249826 116.494314 
C 316.18746 117.431949 317.459344 117.95878 318.78536 117.95878 
z
" clip-path="url(#pe47f4d4c7e)" style="fill: #ff0000; fill-opacity: 0.6; stroke: #ff0000; stroke-opacity: 0.6"/>
    <path d="M 318.78536 95.457517 
C 319.992797 95.457517 321.150944 94.977796 322.004732 94.124009 
C 322.858519 93.270222 323.338239 92.112075 323.338239 90.904637 
C 323.338239 89.697199 322.858519 88.539053 322.004732 87.685265 
C 321.150944 86.831478 319.992797 86.351758 318.78536 86.351758 
C 317.577922 86.351758 316.419775 86.831478 315.565988 87.685265 
C 314.7122 88.539053 314.23248 89.697199 314.23248 90.904637 
C 314.23248 92.112075 314.7122 93.270222 315.565988 94.124009 
C 316.419775 94.977796 317.577922 95.457517 318.78536 95.457517 
z
" clip-path="url(#pe47f4d4c7e)" style="fill: #ff0000; fill-opacity: 0.6; stroke: #ff0000; stroke-opacity: 0.6"/>
    <path d="M 348.381829 228.172133 
C 348.419129 228.172133 348.454907 228.157314 348.481282 228.130938 
C 348.507657 228.104563 348.522477 228.068786 348.522477 228.031485 
C 348.522477 227.994185 348.507657 227.958407 348.481282 227.932032 
C 348.454907 227.905657 348.419129 227.890837 348.381829 227.890837 
C 348.344529 227.890837 348.308751 227.905657 348.282376 227.932032 
C 348.256 227.958407 348.241181 227.994185 348.241181 228.031485 
C 348.241181 228.068786 348.256 228.104563 348.282376 228.130938 
C 348.308751 228.157314 348.344529 228.172133 348.381829 228.172133 
z
" clip-path="url(#pe47f4d4c7e)" style="fill: #ff0000; fill-opacity: 0.6; stroke: #ff0000; stroke-opacity: 0.6"/>
    <path d="M 348.381829 205.977342 
C 348.381829 205.977342 348.381829 205.977342 348.381829 205.977342 
C 348.381829 205.977342 348.381829 205.977342 348.381829 205.977342 
C 348.381829 205.977342 348.381829 205.977342 348.381829 205.977342 
C 348.381829 205.977342 348.381829 205.977342 348.381829 205.977342 
C 348.381829 205.977342 348.381829 205.977342 348.381829 205.977342 
C 348.381829 205.977342 348.381829 205.977342 348.381829 205.977342 
C 348.381829 205.977342 348.381829 205.977342 348.381829 205.977342 
C 348.381829 205.977342 348.381829 205.977342 348.381829 205.977342 
z
" clip-path="url(#pe47f4d4c7e)" style="fill: #ff0000; fill-opacity: 0.6; stroke: #ff0000; stroke-opacity: 0.6"/>
    <path d="M 348.381829 190.586839 
C 348.434962 190.586839 348.485926 190.565729 348.523497 190.528159 
C 348.561067 190.490588 348.582177 190.439624 348.582177 190.386491 
C 348.582177 190.333358 348.561067 190.282394 348.523497 190.244823 
C 348.485926 190.207252 348.434962 190.186142 348.381829 190.186142 
C 348.328696 190.186142 348.277732 190.207252 348.240161 190.244823 
C 348.20259 190.282394 348.18148 190.333358 348.18148 190.386491 
C 348.18148 190.439624 348.20259 190.490588 348.240161 190.528159 
C 348.277732 190.565729 348.328696 190.586839 348.381829 190.586839 
z
" clip-path="url(#pe47f4d4c7e)" style="fill: #ff0000; fill-opacity: 0.6; stroke: #ff0000; stroke-opacity: 0.6"/>
    <path d="M 348.381829 177.818013 
C 348.521556 177.818013 348.655579 177.762499 348.754381 177.663697 
C 348.853182 177.564895 348.908697 177.430873 348.908697 177.291146 
C 348.908697 177.151419 348.853182 177.017396 348.754381 176.918594 
C 348.655579 176.819792 348.521556 176.764278 348.381829 176.764278 
C 348.242102 176.764278 348.108079 176.819792 348.009277 176.918594 
C 347.910475 177.017396 347.854961 177.151419 347.854961 177.291146 
C 347.854961 177.430873 347.910475 177.564895 348.009277 177.663697 
C 348.108079 177.762499 348.242102 177.818013 348.381829 177.818013 
z
" clip-path="url(#pe47f4d4c7e)" style="fill: #ff0000; fill-opacity: 0.6; stroke: #ff0000; stroke-opacity: 0.6"/>
    <path d="M 348.381829 166.340624 
C 348.657346 166.340624 348.921616 166.23116 349.116437 166.03634 
C 349.311257 165.84152 349.420721 165.577249 349.420721 165.301732 
C 349.420721 165.026215 349.311257 164.761945 349.116437 164.567124 
C 348.921616 164.372304 348.657346 164.26284 348.381829 164.26284 
C 348.106311 164.26284 347.842041 164.372304 347.647221 164.567124 
C 347.452401 164.761945 347.342937 165.026215 347.342937 165.301732 
C 347.342937 165.577249 347.452401 165.84152 347.647221 166.03634 
C 347.842041 166.23116 348.106311 166.340624 348.381829 166.340624 
z
" clip-path="url(#pe47f4d4c7e)" style="fill: #ff0000; fill-opacity: 0.6; stroke: #ff0000; stroke-opacity: 0.6"/>
    <path d="M 348.381829 155.400487 
C 348.850203 155.400487 349.299457 155.2144 349.630648 154.883209 
C 349.961838 154.552019 350.147926 154.102765 350.147926 153.63439 
C 350.147926 153.166016 349.961838 152.716762 349.630648 152.385571 
C 349.299457 152.054381 348.850203 151.868294 348.381829 151.868294 
C 347.913455 151.868294 347.464201 152.054381 347.13301 152.385571 
C 346.801819 152.716762 346.615732 153.166016 346.615732 153.63439 
C 346.615732 154.102765 346.801819 154.552019 347.13301 154.883209 
C 347.464201 155.2144 347.913455 155.400487 348.381829 155.400487 
z
" clip-path="url(#pe47f4d4c7e)" style="fill: #ff0000; fill-opacity: 0.6; stroke: #ff0000; stroke-opacity: 0.6"/>
    <path d="M 348.381829 144.342707 
C 349.097276 144.342707 349.783516 144.058457 350.289414 143.55256 
C 350.795311 143.046662 351.079561 142.360422 351.079561 141.644975 
C 351.079561 140.929528 350.795311 140.243288 350.289414 139.73739 
C 349.783516 139.231493 349.097276 138.947243 348.381829 138.947243 
C 347.666382 138.947243 346.980142 139.231493 346.474244 139.73739 
C 345.968347 140.243288 345.684097 140.929528 345.684097 141.644975 
C 345.684097 142.360422 345.968347 143.046662 346.474244 143.55256 
C 346.980142 144.058457 347.666382 144.342707 348.381829 144.342707 
z
" clip-path="url(#pe47f4d4c7e)" style="fill: #ff0000; fill-opacity: 0.6; stroke: #ff0000; stroke-opacity: 0.6"/>
    <path d="M 348.381829 132.28207 
C 349.371682 132.28207 350.321127 131.888797 351.021059 131.188865 
C 351.720991 130.488933 352.114263 129.539488 352.114263 128.549635 
C 352.114263 127.559782 351.720991 126.610337 351.021059 125.910405 
C 350.321127 125.210473 349.371682 124.817201 348.381829 124.817201 
C 347.391976 124.817201 346.442531 125.210473 345.742599 125.910405 
C 345.042667 126.610337 344.649394 127.559782 344.649394 128.549635 
C 344.649394 129.539488 345.042667 130.488933 345.742599 131.188865 
C 346.442531 131.888797 347.391976 132.28207 348.381829 132.28207 
z
" clip-path="url(#pe47f4d4c7e)" style="fill: #ff0000; fill-opacity: 0.6; stroke: #ff0000; stroke-opacity: 0.6"/>
    <path d="M 348.381829 117.51166 
C 349.589267 117.51166 350.747413 117.03194 351.601201 116.178152 
C 352.454988 115.324365 352.934708 114.166218 352.934708 112.95878 
C 352.934708 111.751343 352.454988 110.593196 351.601201 109.739408 
C 350.747413 108.885621 349.589267 108.405901 348.381829 108.405901 
C 347.174391 108.405901 346.016244 108.885621 345.162457 109.739408 
C 344.30867 110.593196 343.82895 111.751343 343.82895 112.95878 
C 343.82895 114.166218 344.30867 115.324365 345.162457 116.178152 
C 346.016244 117.03194 347.174391 117.51166 348.381829 117.51166 
z
" clip-path="url(#pe47f4d4c7e)" style="fill: #ff0000; fill-opacity: 0.6; stroke: #ff0000; stroke-opacity: 0.6"/>
    <path d="M 348.381829 95.050424 
C 349.481304 95.050424 350.535896 94.613598 351.313343 93.836151 
C 352.09079 93.058705 352.527616 92.004113 352.527616 90.904637 
C 352.527616 89.805162 352.09079 88.75057 351.313343 87.973123 
C 350.535896 87.195676 349.481304 86.75885 348.381829 86.75885 
C 347.282353 86.75885 346.227761 87.195676 345.450315 87.973123 
C 344.672868 88.75057 344.236042 89.805162 344.236042 90.904637 
C 344.236042 92.004113 344.672868 93.058705 345.450315 93.836151 
C 346.227761 94.613598 347.282353 95.050424 348.381829 95.050424 
z
" clip-path="url(#pe47f4d4c7e)" style="fill: #ff0000; fill-opacity: 0.6; stroke: #ff0000; stroke-opacity: 0.6"/>
   </g>
   <g id="patch_3">
    <path d="M 164.358786 228.031485 
L 348.381829 228.031485 
L 348.381829 90.904637 
L 164.358786 90.904637 
L 164.358786 228.031485 
z
" clip-path="url(#pe47f4d4c7e)" style="fill: none; stroke: #000000; stroke-linejoin: miter"/>
   </g>
   <g id="matplotlib.axis_1">
    <g id="xtick_1">
     <g id="line2d_1">
      <defs>
       <path id="mf4f3aed2d0" d="M 0 0 
L 0 3.5 
" style="stroke: #000000; stroke-width: 0.8"/>
      </defs>
      <g>
       <use xlink:href="#mf4f3aed2d0" x="118.620801" y="307.584" style="stroke: #000000; stroke-width: 0.8"/>
      </g>
     </g>
     <g id="text_1">
      <!-- 1 -->
      <g transform="translate(111.249707 322.182437) scale(0.1 -0.1)">
       <defs>
        <path id="DejaVuSans-2212" d="M 678 2272 
L 4684 2272 
L 4684 1741 
L 678 1741 
L 678 2272 
z
" transform="scale(0.015625)"/>
        <path id="DejaVuSans-31" d="M 794 531 
L 1825 531 
L 1825 4091 
L 703 3866 
L 703 4441 
L 1819 4666 
L 2450 4666 
L 2450 531 
L 3481 531 
L 3481 0 
L 794 0 
L 794 531 
z
" transform="scale(0.015625)"/>
       </defs>
       <use xlink:href="#DejaVuSans-2212"/>
       <use xlink:href="#DejaVuSans-31" x="83.789062"/>
      </g>
     </g>
    </g>
    <g id="xtick_2">
     <g id="line2d_2">
      <g>
       <use xlink:href="#mf4f3aed2d0" x="197.334805" y="307.584" style="stroke: #000000; stroke-width: 0.8"/>
      </g>
     </g>
     <g id="text_2">
      <!-- 0 -->
      <g transform="translate(194.153555 322.182437) scale(0.1 -0.1)">
       <defs>
        <path id="DejaVuSans-30" d="M 2034 4250 
Q 1547 4250 1301 3770 
Q 1056 3291 1056 2328 
Q 1056 1369 1301 889 
Q 1547 409 2034 409 
Q 2525 409 2770 889 
Q 3016 1369 3016 2328 
Q 3016 3291 2770 3770 
Q 2525 4250 2034 4250 
z
M 2034 4750 
Q 2819 4750 3233 4129 
Q 3647 3509 3647 2328 
Q 3647 1150 3233 529 
Q 2819 -91 2034 -91 
Q 1250 -91 836 529 
Q 422 1150 422 2328 
Q 422 3509 836 4129 
Q 1250 4750 2034 4750 
z
" transform="scale(0.015625)"/>
       </defs>
       <use xlink:href="#DejaVuSans-30"/>
      </g>
     </g>
    </g>
    <g id="xtick_3">
     <g id="line2d_3">
      <g>
       <use xlink:href="#mf4f3aed2d0" x="276.048808" y="307.584" style="stroke: #000000; stroke-width: 0.8"/>
      </g>
     </g>
     <g id="text_3">
      <!-- 1 -->
      <g transform="translate(272.867558 322.182437) scale(0.1 -0.1)">
       <use xlink:href="#DejaVuSans-31"/>
      </g>
     </g>
    </g>
    <g id="xtick_4">
     <g id="line2d_4">
      <g>
       <use xlink:href="#mf4f3aed2d0" x="354.762812" y="307.584" style="stroke: #000000; stroke-width: 0.8"/>
      </g>
     </g>
     <g id="text_4">
      <!-- 2 -->
      <g transform="translate(351.581562 322.182437) scale(0.1 -0.1)">
       <defs>
        <path id="DejaVuSans-32" d="M 1228 531 
L 3431 531 
L 3431 0 
L 469 0 
L 469 531 
Q 828 903 1448 1529 
Q 2069 2156 2228 2338 
Q 2531 2678 2651 2914 
Q 2772 3150 2772 3378 
Q 2772 3750 2511 3984 
Q 2250 4219 1831 4219 
Q 1534 4219 1204 4116 
Q 875 4013 500 3803 
L 500 4441 
Q 881 4594 1212 4672 
Q 1544 4750 1819 4750 
Q 2544 4750 2975 4387 
Q 3406 4025 3406 3419 
Q 3406 3131 3298 2873 
Q 3191 2616 2906 2266 
Q 2828 2175 2409 1742 
Q 1991 1309 1228 531 
z
" transform="scale(0.015625)"/>
       </defs>
       <use xlink:href="#DejaVuSans-32"/>
      </g>
     </g>
    </g>
   </g>
   <g id="matplotlib.axis_2">
    <g id="ytick_1">
     <g id="line2d_5">
      <defs>
       <path id="md5455561bd" d="M 0 0 
L -3.5 0 
" style="stroke: #000000; stroke-width: 0.8"/>
      </defs>
      <g>
       <use xlink:href="#md5455561bd" x="57.6" y="262.113661" style="stroke: #000000; stroke-width: 0.8"/>
      </g>
     </g>
     <g id="text_5">
      <!-- 1 -->
      <g transform="translate(35.857813 265.91288) scale(0.1 -0.1)">
       <use xlink:href="#DejaVuSans-2212"/>
       <use xlink:href="#DejaVuSans-31" x="83.789062"/>
      </g>
     </g>
    </g>
    <g id="ytick_2">
     <g id="line2d_6">
      <g>
       <use xlink:href="#md5455561bd" x="57.6" y="203.459033" style="stroke: #000000; stroke-width: 0.8"/>
      </g>
     </g>
     <g id="text_6">
      <!-- 0 -->
      <g transform="translate(44.2375 207.258252) scale(0.1 -0.1)">
       <use xlink:href="#DejaVuSans-30"/>
      </g>
     </g>
    </g>
    <g id="ytick_3">
     <g id="line2d_7">
      <g>
       <use xlink:href="#md5455561bd" x="57.6" y="144.804404" style="stroke: #000000; stroke-width: 0.8"/>
      </g>
     </g>
     <g id="text_7">
      <!-- 1 -->
      <g transform="translate(44.2375 148.603623) scale(0.1 -0.1)">
       <use xlink:href="#DejaVuSans-31"/>
      </g>
     </g>
    </g>
    <g id="ytick_4">
     <g id="line2d_8">
      <g>
       <use xlink:href="#md5455561bd" x="57.6" y="86.149775" style="stroke: #000000; stroke-width: 0.8"/>
      </g>
     </g>
     <g id="text_8">
      <!-- 2 -->
      <g transform="translate(44.2375 89.948994) scale(0.1 -0.1)">
       <use xlink:href="#DejaVuSans-32"/>
      </g>
     </g>
    </g>
   </g>
   <g id="patch_4">
    <path d="M 57.6 307.584 
L 57.6 41.472 
" style="fill: none; stroke: #000000; stroke-width: 0.8; stroke-linejoin: miter; stroke-linecap: square"/>
   </g>
   <g id="patch_5">
    <path d="M 414.72 307.584 
L 414.72 41.472 
" style="fill: none; stroke: #000000; stroke-width: 0.8; stroke-linejoin: miter; stroke-linecap: square"/>
   </g>
   <g id="patch_6">
    <path d="M 57.6 307.584 
L 414.72 307.584 
" style="fill: none; stroke: #000000; stroke-width: 0.8; stroke-linejoin: miter; stroke-linecap: square"/>
   </g>
   <g id="patch_7">
    <path d="M 57.6 41.472 
L 414.72 41.472 
" style="fill: none; stroke: #000000; stroke-width: 0.8; stroke-linejoin: miter; stroke-linecap: square"/>
   </g>
   <g id="legend_1">
    <g id="patch_8">
     <path d="M 64.6 302.584 
L 214.76875 302.584 
Q 216.76875 302.584 216.76875 300.584 
L 216.76875 257.549625 
Q 216.76875 255.549625 214.76875 255.549625 
L 64.6 255.549625 
Q 62.6 255.549625 62.6 257.549625 
L 62.6 300.584 
Q 62.6 302.584 64.6 302.584 
z
" style="fill: #ffffff; opacity: 0.8; stroke: #cccccc; stroke-linejoin: miter"/>
    </g>
    <g id="PathCollection_3">
     <g>
      <use xlink:href="#m8702ee64cd" x="76.6" y="264.523062" style="stroke: #000000"/>
     </g>
    </g>
    <g id="text_9">
     <!-- Possible grid locations -->
     <g transform="translate(94.6 267.148062) scale(0.1 -0.1)">
      <defs>
       <path id="DejaVuSans-50" d="M 1259 4147 
L 1259 2394 
L 2053 2394 
Q 2494 2394 2734 2622 
Q 2975 2850 2975 3272 
Q 2975 3691 2734 3919 
Q 2494 4147 2053 4147 
L 1259 4147 
z
M 628 4666 
L 2053 4666 
Q 2838 4666 3239 4311 
Q 3641 3956 3641 3272 
Q 3641 2581 3239 2228 
Q 2838 1875 2053 1875 
L 1259 1875 
L 1259 0 
L 628 0 
L 628 4666 
z
" transform="scale(0.015625)"/>
       <path id="DejaVuSans-6f" d="M 1959 3097 
Q 1497 3097 1228 2736 
Q 959 2375 959 1747 
Q 959 1119 1226 758 
Q 1494 397 1959 397 
Q 2419 397 2687 759 
Q 2956 1122 2956 1747 
Q 2956 2369 2687 2733 
Q 2419 3097 1959 3097 
z
M 1959 3584 
Q 2709 3584 3137 3096 
Q 3566 2609 3566 1747 
Q 3566 888 3137 398 
Q 2709 -91 1959 -91 
Q 1206 -91 779 398 
Q 353 888 353 1747 
Q 353 2609 779 3096 
Q 1206 3584 1959 3584 
z
" transform="scale(0.015625)"/>
       <path id="DejaVuSans-73" d="M 2834 3397 
L 2834 2853 
Q 2591 2978 2328 3040 
Q 2066 3103 1784 3103 
Q 1356 3103 1142 2972 
Q 928 2841 928 2578 
Q 928 2378 1081 2264 
Q 1234 2150 1697 2047 
L 1894 2003 
Q 2506 1872 2764 1633 
Q 3022 1394 3022 966 
Q 3022 478 2636 193 
Q 2250 -91 1575 -91 
Q 1294 -91 989 -36 
Q 684 19 347 128 
L 347 722 
Q 666 556 975 473 
Q 1284 391 1588 391 
Q 1994 391 2212 530 
Q 2431 669 2431 922 
Q 2431 1156 2273 1281 
Q 2116 1406 1581 1522 
L 1381 1569 
Q 847 1681 609 1914 
Q 372 2147 372 2553 
Q 372 3047 722 3315 
Q 1072 3584 1716 3584 
Q 2034 3584 2315 3537 
Q 2597 3491 2834 3397 
z
" transform="scale(0.015625)"/>
       <path id="DejaVuSans-69" d="M 603 3500 
L 1178 3500 
L 1178 0 
L 603 0 
L 603 3500 
z
M 603 4863 
L 1178 4863 
L 1178 4134 
L 603 4134 
L 603 4863 
z
" transform="scale(0.015625)"/>
       <path id="DejaVuSans-62" d="M 3116 1747 
Q 3116 2381 2855 2742 
Q 2594 3103 2138 3103 
Q 1681 3103 1420 2742 
Q 1159 2381 1159 1747 
Q 1159 1113 1420 752 
Q 1681 391 2138 391 
Q 2594 391 2855 752 
Q 3116 1113 3116 1747 
z
M 1159 2969 
Q 1341 3281 1617 3432 
Q 1894 3584 2278 3584 
Q 2916 3584 3314 3078 
Q 3713 2572 3713 1747 
Q 3713 922 3314 415 
Q 2916 -91 2278 -91 
Q 1894 -91 1617 61 
Q 1341 213 1159 525 
L 1159 0 
L 581 0 
L 581 4863 
L 1159 4863 
L 1159 2969 
z
" transform="scale(0.015625)"/>
       <path id="DejaVuSans-6c" d="M 603 4863 
L 1178 4863 
L 1178 0 
L 603 0 
L 603 4863 
z
" transform="scale(0.015625)"/>
       <path id="DejaVuSans-65" d="M 3597 1894 
L 3597 1613 
L 953 1613 
Q 991 1019 1311 708 
Q 1631 397 2203 397 
Q 2534 397 2845 478 
Q 3156 559 3463 722 
L 3463 178 
Q 3153 47 2828 -22 
Q 2503 -91 2169 -91 
Q 1331 -91 842 396 
Q 353 884 353 1716 
Q 353 2575 817 3079 
Q 1281 3584 2069 3584 
Q 2775 3584 3186 3129 
Q 3597 2675 3597 1894 
z
M 3022 2063 
Q 3016 2534 2758 2815 
Q 2500 3097 2075 3097 
Q 1594 3097 1305 2825 
Q 1016 2553 972 2059 
L 3022 2063 
z
" transform="scale(0.015625)"/>
       <path id="DejaVuSans-20" transform="scale(0.015625)"/>
       <path id="DejaVuSans-67" d="M 2906 1791 
Q 2906 2416 2648 2759 
Q 2391 3103 1925 3103 
Q 1463 3103 1205 2759 
Q 947 2416 947 1791 
Q 947 1169 1205 825 
Q 1463 481 1925 481 
Q 2391 481 2648 825 
Q 2906 1169 2906 1791 
z
M 3481 434 
Q 3481 -459 3084 -895 
Q 2688 -1331 1869 -1331 
Q 1566 -1331 1297 -1286 
Q 1028 -1241 775 -1147 
L 775 -588 
Q 1028 -725 1275 -790 
Q 1522 -856 1778 -856 
Q 2344 -856 2625 -561 
Q 2906 -266 2906 331 
L 2906 616 
Q 2728 306 2450 153 
Q 2172 0 1784 0 
Q 1141 0 747 490 
Q 353 981 353 1791 
Q 353 2603 747 3093 
Q 1141 3584 1784 3584 
Q 2172 3584 2450 3431 
Q 2728 3278 2906 2969 
L 2906 3500 
L 3481 3500 
L 3481 434 
z
" transform="scale(0.015625)"/>
       <path id="DejaVuSans-72" d="M 2631 2963 
Q 2534 3019 2420 3045 
Q 2306 3072 2169 3072 
Q 1681 3072 1420 2755 
Q 1159 2438 1159 1844 
L 1159 0 
L 581 0 
L 581 3500 
L 1159 3500 
L 1159 2956 
Q 1341 3275 1631 3429 
Q 1922 3584 2338 3584 
Q 2397 3584 2469 3576 
Q 2541 3569 2628 3553 
L 2631 2963 
z
" transform="scale(0.015625)"/>
       <path id="DejaVuSans-64" d="M 2906 2969 
L 2906 4863 
L 3481 4863 
L 3481 0 
L 2906 0 
L 2906 525 
Q 2725 213 2448 61 
Q 2172 -91 1784 -91 
Q 1150 -91 751 415 
Q 353 922 353 1747 
Q 353 2572 751 3078 
Q 1150 3584 1784 3584 
Q 2172 3584 2448 3432 
Q 2725 3281 2906 2969 
z
M 947 1747 
Q 947 1113 1208 752 
Q 1469 391 1925 391 
Q 2381 391 2643 752 
Q 2906 1113 2906 1747 
Q 2906 2381 2643 2742 
Q 2381 3103 1925 3103 
Q 1469 3103 1208 2742 
Q 947 2381 947 1747 
z
" transform="scale(0.015625)"/>
       <path id="DejaVuSans-63" d="M 3122 3366 
L 3122 2828 
Q 2878 2963 2633 3030 
Q 2388 3097 2138 3097 
Q 1578 3097 1268 2742 
Q 959 2388 959 1747 
Q 959 1106 1268 751 
Q 1578 397 2138 397 
Q 2388 397 2633 464 
Q 2878 531 3122 666 
L 3122 134 
Q 2881 22 2623 -34 
Q 2366 -91 2075 -91 
Q 1284 -91 818 406 
Q 353 903 353 1747 
Q 353 2603 823 3093 
Q 1294 3584 2113 3584 
Q 2378 3584 2631 3529 
Q 2884 3475 3122 3366 
z
" transform="scale(0.015625)"/>
       <path id="DejaVuSans-61" d="M 2194 1759 
Q 1497 1759 1228 1600 
Q 959 1441 959 1056 
Q 959 750 1161 570 
Q 1363 391 1709 391 
Q 2188 391 2477 730 
Q 2766 1069 2766 1631 
L 2766 1759 
L 2194 1759 
z
M 3341 1997 
L 3341 0 
L 2766 0 
L 2766 531 
Q 2569 213 2275 61 
Q 1981 -91 1556 -91 
Q 1019 -91 701 211 
Q 384 513 384 1019 
Q 384 1609 779 1909 
Q 1175 2209 1959 2209 
L 2766 2209 
L 2766 2266 
Q 2766 2663 2505 2880 
Q 2244 3097 1772 3097 
Q 1472 3097 1187 3025 
Q 903 2953 641 2809 
L 641 3341 
Q 956 3463 1253 3523 
Q 1550 3584 1831 3584 
Q 2591 3584 2966 3190 
Q 3341 2797 3341 1997 
z
" transform="scale(0.015625)"/>
       <path id="DejaVuSans-74" d="M 1172 4494 
L 1172 3500 
L 2356 3500 
L 2356 3053 
L 1172 3053 
L 1172 1153 
Q 1172 725 1289 603 
Q 1406 481 1766 481 
L 2356 481 
L 2356 0 
L 1766 0 
Q 1100 0 847 248 
Q 594 497 594 1153 
L 594 3053 
L 172 3053 
L 172 3500 
L 594 3500 
L 594 4494 
L 1172 4494 
z
" transform="scale(0.015625)"/>
       <path id="DejaVuSans-6e" d="M 3513 2113 
L 3513 0 
L 2938 0 
L 2938 2094 
Q 2938 2591 2744 2837 
Q 2550 3084 2163 3084 
Q 1697 3084 1428 2787 
Q 1159 2491 1159 1978 
L 1159 0 
L 581 0 
L 581 3500 
L 1159 3500 
L 1159 2956 
Q 1366 3272 1645 3428 
Q 1925 3584 2291 3584 
Q 2894 3584 3203 3211 
Q 3513 2838 3513 2113 
z
" transform="scale(0.015625)"/>
      </defs>
      <use xlink:href="#DejaVuSans-50"/>
      <use xlink:href="#DejaVuSans-6f" x="56.677734"/>
      <use xlink:href="#DejaVuSans-73" x="117.859375"/>
      <use xlink:href="#DejaVuSans-73" x="169.958984"/>
      <use xlink:href="#DejaVuSans-69" x="222.058594"/>
      <use xlink:href="#DejaVuSans-62" x="249.841797"/>
      <use xlink:href="#DejaVuSans-6c" x="313.318359"/>
      <use xlink:href="#DejaVuSans-65" x="341.101562"/>
      <use xlink:href="#DejaVuSans-20" x="402.625"/>
      <use xlink:href="#DejaVuSans-67" x="434.412109"/>
      <use xlink:href="#DejaVuSans-72" x="497.888672"/>
      <use xlink:href="#DejaVuSans-69" x="539.001953"/>
      <use xlink:href="#DejaVuSans-64" x="566.785156"/>
      <use xlink:href="#DejaVuSans-20" x="630.261719"/>
      <use xlink:href="#DejaVuSans-6c" x="662.048828"/>
      <use xlink:href="#DejaVuSans-6f" x="689.832031"/>
      <use xlink:href="#DejaVuSans-63" x="751.013672"/>
      <use xlink:href="#DejaVuSans-61" x="805.994141"/>
      <use xlink:href="#DejaVuSans-74" x="867.273438"/>
      <use xlink:href="#DejaVuSans-69" x="906.482422"/>
      <use xlink:href="#DejaVuSans-6f" x="934.265625"/>
      <use xlink:href="#DejaVuSans-6e" x="995.447266"/>
      <use xlink:href="#DejaVuSans-73" x="1058.826172"/>
     </g>
    </g>
    <g id="PathCollection_4">
     <defs>
      <path id="m525fb58507" d="M 0 3.535534 
C 0.937635 3.535534 1.836992 3.163008 2.5 2.5 
C 3.163008 1.836992 3.535534 0.937635 3.535534 0 
C 3.535534 -0.937635 3.163008 -1.836992 2.5 -2.5 
C 1.836992 -3.163008 0.937635 -3.535534 0 -3.535534 
C -0.937635 -3.535534 -1.836992 -3.163008 -2.5 -2.5 
C -3.163008 -1.836992 -3.535534 -0.937635 -3.535534 0 
C -3.535534 0.937635 -3.163008 1.836992 -2.5 2.5 
C -1.836992 3.163008 -0.937635 3.535534 0 3.535534 
z
" style="stroke: #ff0000; stroke-opacity: 0.6"/>
     </defs>
     <g>
      <use xlink:href="#m525fb58507" x="76.6" y="279.201188" style="fill: #ff0000; fill-opacity: 0.6; stroke: #ff0000; stroke-opacity: 0.6"/>
     </g>
    </g>
    <g id="text_10">
     <!-- Weighted grid locations -->
     <g transform="translate(94.6 281.826188) scale(0.1 -0.1)">
      <defs>
       <path id="DejaVuSans-57" d="M 213 4666 
L 850 4666 
L 1831 722 
L 2809 4666 
L 3519 4666 
L 4500 722 
L 5478 4666 
L 6119 4666 
L 4947 0 
L 4153 0 
L 3169 4050 
L 2175 0 
L 1381 0 
L 213 4666 
z
" transform="scale(0.015625)"/>
       <path id="DejaVuSans-68" d="M 3513 2113 
L 3513 0 
L 2938 0 
L 2938 2094 
Q 2938 2591 2744 2837 
Q 2550 3084 2163 3084 
Q 1697 3084 1428 2787 
Q 1159 2491 1159 1978 
L 1159 0 
L 581 0 
L 581 4863 
L 1159 4863 
L 1159 2956 
Q 1366 3272 1645 3428 
Q 1925 3584 2291 3584 
Q 2894 3584 3203 3211 
Q 3513 2838 3513 2113 
z
" transform="scale(0.015625)"/>
      </defs>
      <use xlink:href="#DejaVuSans-57"/>
      <use xlink:href="#DejaVuSans-65" x="93.001953"/>
      <use xlink:href="#DejaVuSans-69" x="154.525391"/>
      <use xlink:href="#DejaVuSans-67" x="182.308594"/>
      <use xlink:href="#DejaVuSans-68" x="245.785156"/>
      <use xlink:href="#DejaVuSans-74" x="309.164062"/>
      <use xlink:href="#DejaVuSans-65" x="348.373047"/>
      <use xlink:href="#DejaVuSans-64" x="409.896484"/>
      <use xlink:href="#DejaVuSans-20" x="473.373047"/>
      <use xlink:href="#DejaVuSans-67" x="505.160156"/>
      <use xlink:href="#DejaVuSans-72" x="568.636719"/>
      <use xlink:href="#DejaVuSans-69" x="609.75"/>
      <use xlink:href="#DejaVuSans-64" x="637.533203"/>
      <use xlink:href="#DejaVuSans-20" x="701.009766"/>
      <use xlink:href="#DejaVuSans-6c" x="732.796875"/>
      <use xlink:href="#DejaVuSans-6f" x="760.580078"/>
      <use xlink:href="#DejaVuSans-63" x="821.761719"/>
      <use xlink:href="#DejaVuSans-61" x="876.742188"/>
      <use xlink:href="#DejaVuSans-74" x="938.021484"/>
      <use xlink:href="#DejaVuSans-69" x="977.230469"/>
      <use xlink:href="#DejaVuSans-6f" x="1005.013672"/>
      <use xlink:href="#DejaVuSans-6e" x="1066.195312"/>
      <use xlink:href="#DejaVuSans-73" x="1129.574219"/>
     </g>
    </g>
    <g id="patch_9">
     <path d="M 66.6 296.504312 
L 86.6 296.504312 
L 86.6 289.504312 
L 66.6 289.504312 
L 66.6 296.504312 
z
" style="fill: none; stroke: #000000; stroke-linejoin: miter"/>
    </g>
    <g id="text_11">
     <!-- Grid bounding box -->
     <g transform="translate(94.6 296.504312) scale(0.1 -0.1)">
      <defs>
       <path id="DejaVuSans-47" d="M 3809 666 
L 3809 1919 
L 2778 1919 
L 2778 2438 
L 4434 2438 
L 4434 434 
Q 4069 175 3628 42 
Q 3188 -91 2688 -91 
Q 1594 -91 976 548 
Q 359 1188 359 2328 
Q 359 3472 976 4111 
Q 1594 4750 2688 4750 
Q 3144 4750 3555 4637 
Q 3966 4525 4313 4306 
L 4313 3634 
Q 3963 3931 3569 4081 
Q 3175 4231 2741 4231 
Q 1884 4231 1454 3753 
Q 1025 3275 1025 2328 
Q 1025 1384 1454 906 
Q 1884 428 2741 428 
Q 3075 428 3337 486 
Q 3600 544 3809 666 
z
" transform="scale(0.015625)"/>
       <path id="DejaVuSans-75" d="M 544 1381 
L 544 3500 
L 1119 3500 
L 1119 1403 
Q 1119 906 1312 657 
Q 1506 409 1894 409 
Q 2359 409 2629 706 
Q 2900 1003 2900 1516 
L 2900 3500 
L 3475 3500 
L 3475 0 
L 2900 0 
L 2900 538 
Q 2691 219 2414 64 
Q 2138 -91 1772 -91 
Q 1169 -91 856 284 
Q 544 659 544 1381 
z
M 1991 3584 
L 1991 3584 
z
" transform="scale(0.015625)"/>
       <path id="DejaVuSans-78" d="M 3513 3500 
L 2247 1797 
L 3578 0 
L 2900 0 
L 1881 1375 
L 863 0 
L 184 0 
L 1544 1831 
L 300 3500 
L 978 3500 
L 1906 2253 
L 2834 3500 
L 3513 3500 
z
" transform="scale(0.015625)"/>
      </defs>
      <use xlink:href="#DejaVuSans-47"/>
      <use xlink:href="#DejaVuSans-72" x="77.490234"/>
      <use xlink:href="#DejaVuSans-69" x="118.603516"/>
      <use xlink:href="#DejaVuSans-64" x="146.386719"/>
      <use xlink:href="#DejaVuSans-20" x="209.863281"/>
      <use xlink:href="#DejaVuSans-62" x="241.650391"/>
      <use xlink:href="#DejaVuSans-6f" x="305.126953"/>
      <use xlink:href="#DejaVuSans-75" x="366.308594"/>
      <use xlink:href="#DejaVuSans-6e" x="429.6875"/>
      <use xlink:href="#DejaVuSans-64" x="493.066406"/>
      <use xlink:href="#DejaVuSans-69" x="556.542969"/>
      <use xlink:href="#DejaVuSans-6e" x="584.326172"/>
      <use xlink:href="#DejaVuSans-67" x="647.705078"/>
      <use xlink:href="#DejaVuSans-20" x="711.181641"/>
      <use xlink:href="#DejaVuSans-62" x="742.96875"/>
      <use xlink:href="#DejaVuSans-6f" x="806.445312"/>
      <use xlink:href="#DejaVuSans-78" x="864.501953"/>
     </g>
    </g>
   </g>
  </g>
 </g>
 <defs>
  <clipPath id="pe47f4d4c7e">
   <rect x="57.6" y="41.472" width="357.12" height="266.112"/>
  </clipPath>
 </defs>
</svg>
